<?xml version="1.0" encoding="UTF-8"?>
<!DOCTYPE svg PUBLIC "-//W3C//DTD SVG 1.1//EN" "http://www.w3.org/Graphics/SVG/1.1/DTD/svg11.dtd">
<!-- Creator: CorelDRAW X7 -->
<svg xmlns="http://www.w3.org/2000/svg" xml:space="preserve" width="4.564in" height="4.602in" version="1.1" style="shape-rendering:geometricPrecision; text-rendering:geometricPrecision; image-rendering:optimizeQuality; fill-rule:evenodd; clip-rule:evenodd"
viewBox="0 0 4564 4602"
 xmlns:xlink="http://www.w3.org/1999/xlink">
 <defs>
  <style type="text/css">
   <![CDATA[
    .fil0 {fill:#2E414E;fill-rule:nonzero}
    .fil19 {fill:#383D3A;fill-rule:nonzero}
    .fil17 {fill:#3B494B;fill-rule:nonzero}
    .fil22 {fill:#3D423F;fill-rule:nonzero}
    .fil20 {fill:#464946;fill-rule:nonzero}
    .fil12 {fill:#49544D;fill-rule:nonzero}
    .fil35 {fill:#4B3D54;fill-rule:nonzero}
    .fil21 {fill:#5687A1;fill-rule:nonzero}
    .fil2 {fill:#56DBE2;fill-rule:nonzero}
    .fil5 {fill:#595B59;fill-rule:nonzero}
    .fil29 {fill:#5B6660;fill-rule:nonzero}
    .fil13 {fill:#6B7974;fill-rule:nonzero}
    .fil28 {fill:#707975;fill-rule:nonzero}
    .fil15 {fill:#774D28;fill-rule:nonzero}
    .fil4 {fill:#808785;fill-rule:nonzero}
    .fil25 {fill:#85938E;fill-rule:nonzero}
    .fil30 {fill:#85DBEF;fill-rule:nonzero}
    .fil24 {fill:#89908E;fill-rule:nonzero}
    .fil26 {fill:#939997;fill-rule:nonzero}
    .fil1 {fill:#93BCD1;fill-rule:nonzero}
    .fil31 {fill:#A35E41;fill-rule:nonzero}
    .fil7 {fill:#B6BCBA;fill-rule:nonzero}
    .fil8 {fill:#BA3138;fill-rule:nonzero}
    .fil10 {fill:#BDDDED;fill-rule:nonzero}
    .fil23 {fill:#DF8E7C;fill-rule:nonzero}
    .fil9 {fill:#DF9A2A;fill-rule:nonzero}
    .fil6 {fill:#E2495E;fill-rule:nonzero}
    .fil18 {fill:#ED3A38;fill-rule:nonzero}
    .fil37 {fill:#ED8C66;fill-rule:nonzero}
    .fil16 {fill:#EDA082;fill-rule:nonzero}
    .fil32 {fill:#EFB183;fill-rule:nonzero}
    .fil14 {fill:#F4EBE9;fill-rule:nonzero}
    .fil11 {fill:#F9AF9A;fill-rule:nonzero}
    .fil34 {fill:#F9C395;fill-rule:nonzero}
    .fil36 {fill:#FB4B77;fill-rule:nonzero}
    .fil33 {fill:#FF2A54;fill-rule:nonzero}
    .fil27 {fill:#FFC470;fill-rule:nonzero}
    .fil3 {fill:white;fill-rule:nonzero}
   ]]>
  </style>
 </defs>
 <g id="Layer_x0020_1">
  <metadata id="CorelCorpID_0Corel-Layer"/>
  <path class="fil0" d="M-1562 29769c-56,17 -167,45 -297,45 -146,0 -267,-32 -362,-108 -83,-68 -134,-176 -134,-303 1,-243 199,-421 523,-421 112,0 199,21 241,38l-30 86c-52,-20 -116,-36 -214,-36 -235,0 -389,124 -389,328 0,207 148,329 373,329 82,0 138,-10 167,-22l0 -243 -197 0 0 -85 319 0 0 392z"/>
  <path class="fil0" d="M-1247 29393c28,6 62,9 103,9 151,0 243,-62 243,-174 0,-108 -90,-160 -228,-160 -55,0 -96,4 -118,9l0 316zm-125 -393c61,-8 140,-15 240,-15 123,0 214,24 271,67 53,39 85,98 85,171 0,74 -26,131 -75,174 -66,59 -174,89 -295,89 -38,0 -72,-1 -101,-7l0 326 -125 0 0 -805z"/>
  <path class="fil0" d="M-626 29677c56,29 138,53 224,53 128,0 202,-56 202,-139 0,-76 -51,-119 -182,-162 -158,-47 -255,-116 -255,-230 0,-127 125,-221 313,-221 99,0 170,19 213,39l-34 86c-32,-14 -96,-39 -184,-39 -132,0 -182,67 -182,123 0,76 59,113 192,157 164,53 247,119 247,239 0,125 -111,234 -339,234 -93,0 -195,-23 -246,-52l31 -88z"/>
  <polygon class="fil0" points="403,28991 527,28991 527,29717 941,29717 941,29805 403,29805 "/>
  <path class="fil0" d="M1100 29403c0,174 112,330 308,330 198,0 310,-154 310,-339 0,-162 -100,-331 -308,-331 -207,0 -310,161 -310,340zm750 -14c0,281 -202,430 -449,430 -255,0 -435,-167 -435,-414 0,-258 191,-427 449,-427 264,0 435,170 435,411z"/>
  <path class="fil0" d="M2688 29779c-46,19 -138,38 -256,38 -272,0 -477,-145 -477,-412 0,-255 205,-427 505,-427 120,0 196,21 229,36l-30 85c-47,-19 -115,-33 -195,-33 -227,0 -377,122 -377,336 0,199 136,327 371,327 76,0 154,-13 204,-34l26 84z"/>
  <path class="fil0" d="M3323 29467l-95 -235c-21,-53 -36,-101 -50,-148l-3 0c-14,48 -30,98 -49,147l-94 236 291 0zm-317 82l-100 256 -130 0 329 -814 150 0 330 814 -133 0 -103 -256 -343 0z"/>
  <polygon class="fil0" points="3801,29080 3506,29080 3506,28991 4222,28991 4222,29080 3927,29080 3927,29805 3801,29805 "/>
  <polygon class="fil0" points="4330,29805 4455,29805 4455,28991 4330,28991 "/>
  <path class="fil0" d="M4749 29403c0,174 112,330 308,330 198,0 310,-154 310,-339 0,-162 -101,-331 -309,-331 -206,0 -309,161 -309,340zm750 -14c0,281 -202,430 -449,430 -255,0 -435,-167 -435,-414 0,-258 191,-427 449,-427 264,0 435,170 435,411z"/>
  <path class="fil0" d="M5661 29805l0 -814 136 0 310 412c72,95 128,181 174,265l2 -2c-11,-108 -14,-208 -14,-334l0 -341 118 0 0 814 -127 0 -307 -413c-67,-91 -132,-184 -180,-272l-5 1c8,103 10,201 10,336l0 348 -117 0z"/>
  <g id="_969937888">
   <path class="fil1" d="M4095 4480c0,68 -891,122 -1991,122 -1100,0 -1992,-54 -1992,-122 0,-67 892,-122 1992,-122 1100,0 1991,55 1991,122z"/>
   <g>
    <g>
     <g>
      <path class="fil2" d="M1232 1476c1,0 2,0 2,0 4,0 8,-3 9,-7 6,-23 13,-47 20,-69 2,-5 -1,-11 -6,-12 -4,-2 -10,1 -11,6 -8,23 -15,47 -21,71 -1,5 2,10 7,11z"/>
     </g>
     <g>
      <path class="fil2" d="M1210 1621c1,0 1,0 1,0 5,0 9,-4 9,-9 2,-24 5,-48 9,-72 1,-5 -3,-10 -8,-10 -5,-1 -10,2 -10,7 -4,24 -7,49 -9,74 0,5 3,9 8,10z"/>
     </g>
     <g>
      <path class="fil2" d="M1229 1829c-1,-5 -5,-9 -10,-8 -5,1 -9,6 -8,11 4,24 9,48 15,72 1,5 5,7 9,7 1,0 1,0 2,0 5,-1 8,-6 7,-11 -6,-23 -11,-47 -15,-71z"/>
     </g>
     <g>
      <path class="fil2" d="M1264 1969c-2,-4 -7,-7 -12,-5 -5,1 -7,7 -6,11 8,24 17,47 27,69 1,4 5,6 8,6 1,0 3,0 4,-1 5,-2 7,-7 5,-12 -10,-22 -18,-45 -26,-68z"/>
     </g>
     <g>
      <path class="fil2" d="M1398 2225c-3,-4 -8,-5 -12,-2 -5,3 -5,9 -2,13 14,19 30,39 47,57 1,2 4,3 6,3 3,0 5,-1 7,-2 3,-4 4,-9 0,-13 -16,-18 -31,-37 -46,-56z"/>
     </g>
     <g>
      <path class="fil2" d="M1321 2103c-3,-5 -8,-7 -13,-4 -4,2 -6,8 -3,12 11,22 23,43 37,64 1,3 4,4 7,4 2,0 4,0 5,-1 5,-3 6,-8 3,-13 -13,-20 -25,-41 -36,-62z"/>
     </g>
     <g>
      <path class="fil2" d="M1212 1767c5,0 9,-5 9,-10 -2,-24 -3,-48 -3,-72 0,-6 -5,-10 -10,-10 0,0 0,0 0,0 -5,0 -9,4 -9,10 0,24 1,49 3,73 1,5 5,9 9,9 1,0 1,0 1,0z"/>
     </g>
     <g>
      <path class="fil2" d="M1794 843c1,0 2,0 3,-1 23,-8 46,-16 69,-23 5,-1 7,-6 6,-11 -1,-5 -7,-8 -11,-7 -24,7 -48,15 -71,24 -4,2 -7,7 -5,12 2,3 5,6 9,6z"/>
     </g>
     <g>
      <path class="fil2" d="M1662 906c1,0 3,-1 4,-2 21,-12 43,-23 64,-33 5,-3 7,-8 5,-13 -2,-4 -8,-6 -12,-4 -23,11 -45,22 -66,34 -4,3 -6,9 -3,13 2,3 5,5 8,5z"/>
     </g>
     <g>
      <path class="fil2" d="M1934 802c1,0 1,0 2,0 3,-1 6,-1 8,-2 3,-7 6,-14 10,-21 -7,2 -15,3 -22,5 -5,1 -8,5 -7,10 1,5 5,8 9,8z"/>
     </g>
     <g>
      <path class="fil2" d="M1277 1337c1,0 2,0 3,0 4,0 7,-2 9,-5 9,-22 20,-45 31,-66 2,-4 1,-10 -4,-12 -4,-3 -10,-1 -12,4 -12,21 -22,44 -32,66 -2,5 0,11 5,13z"/>
     </g>
     <g>
      <path class="fil2" d="M1343 1206c2,1 4,2 5,2 3,0 6,-2 8,-5 13,-20 27,-40 41,-59 3,-4 3,-10 -2,-13 -4,-3 -9,-2 -12,2 -15,19 -29,40 -42,60 -3,5 -2,10 2,13z"/>
     </g>
     <g>
      <path class="fil2" d="M1436 1091c3,0 5,-1 7,-4 16,-18 33,-35 50,-52 4,-3 4,-9 1,-13 -4,-4 -10,-4 -14,0 -17,17 -34,35 -51,53 -3,4 -3,10 1,13 2,2 4,3 6,3z"/>
     </g>
     <g>
      <path class="fil2" d="M1542 989c2,0 4,-1 5,-2 19,-15 39,-30 58,-44 4,-3 5,-8 3,-13 -3,-4 -9,-5 -13,-2 -20,14 -40,29 -59,45 -4,3 -5,9 -2,13 2,2 5,3 8,3z"/>
     </g>
     <g>
      <path class="fil2" d="M1549 2381c-19,-15 -37,-31 -54,-48 -4,-3 -10,-3 -13,0 -4,4 -4,10 0,13 18,17 36,34 55,49 2,2 4,3 6,3 3,0 5,-2 7,-4 3,-4 3,-10 -1,-13z"/>
     </g>
     <g>
      <path class="fil2" d="M2850 2222c-4,-3 -10,-2 -13,2 -14,19 -29,38 -45,56 -4,4 -4,10 0,13 2,2 4,3 6,3 3,0 5,-1 7,-3 17,-19 32,-38 47,-58 3,-4 2,-10 -2,-13z"/>
     </g>
     <g>
      <path class="fil2" d="M2927 2098c-4,-2 -10,-1 -12,4 -11,21 -23,42 -36,63 -3,4 -2,10 2,12 2,1 4,2 5,2 3,0 6,-2 8,-5 13,-20 26,-42 37,-64 3,-4 1,-10 -4,-12z"/>
     </g>
     <g>
      <path class="fil2" d="M2741 2333c-17,16 -35,32 -54,48 -4,3 -4,9 -1,13 2,2 4,3 7,3 2,0 4,-1 6,-2 19,-16 37,-32 55,-49 4,-4 4,-10 0,-13 -3,-4 -9,-4 -13,0z"/>
     </g>
     <g>
      <path class="fil2" d="M2629 2424c-20,14 -40,27 -61,39 -4,3 -6,8 -3,13 1,3 4,4 8,4 1,0 3,0 4,-1 21,-12 42,-26 63,-40 4,-3 5,-8 2,-12 -3,-5 -9,-6 -13,-3z"/>
     </g>
     <g>
      <path class="fil2" d="M2983 1963c-4,-2 -10,1 -11,5 -8,23 -17,46 -26,68 -2,5 0,10 5,12 1,1 2,1 4,1 3,0 7,-2 8,-6 10,-22 18,-45 26,-69 2,-5 -1,-10 -6,-11z"/>
     </g>
     <g>
      <path class="fil2" d="M3017 1724c-1,11 -1,21 -2,32 0,5 3,9 8,10 1,0 1,0 1,0 5,0 9,-4 9,-9 1,-12 2,-24 3,-36 -7,1 -13,2 -19,3z"/>
     </g>
     <g>
      <path class="fil2" d="M3017 1820c-5,-1 -10,3 -11,8 -4,24 -8,47 -14,71 -1,5 2,10 7,11 0,0 1,0 2,0 4,0 8,-3 9,-7 6,-24 11,-48 14,-72 1,-5 -2,-10 -7,-11z"/>
     </g>
     <g>
      <path class="fil2" d="M2504 2497c-22,10 -44,20 -67,28 -4,2 -7,7 -5,12 1,4 5,6 9,6 1,0 2,0 3,-1 23,-8 46,-18 68,-29 4,-2 6,-7 4,-12 -2,-4 -8,-6 -12,-4z"/>
     </g>
     <g>
      <path class="fil2" d="M1938 2566c-23,-5 -47,-11 -70,-18 -5,-1 -10,2 -12,7 -1,5 2,10 7,11 23,7 47,13 72,18 0,0 1,0 1,0 5,0 9,-3 9,-7 1,-5 -2,-10 -7,-11z"/>
     </g>
     <g>
      <path class="fil2" d="M1799 2526c-22,-9 -45,-19 -67,-29 -4,-2 -10,0 -12,5 -2,4 0,10 4,12 23,10 46,20 69,29 1,0 2,0 3,0 3,0 7,-2 8,-6 2,-4 0,-10 -5,-11z"/>
     </g>
     <g>
      <path class="fil2" d="M2082 2583c-24,-1 -48,-3 -72,-6 -5,0 -10,3 -11,8 0,5 3,10 9,10 24,3 49,5 73,6 0,0 0,0 1,0 5,0 9,-4 9,-9 0,-5 -4,-9 -9,-9z"/>
     </g>
     <g>
      <path class="fil2" d="M2227 2577c-24,3 -48,5 -73,6 -5,0 -9,4 -8,9 0,5 4,9 9,9 0,0 0,0 0,0 25,-1 50,-3 74,-6 5,0 9,-5 8,-10 -1,-5 -5,-8 -10,-8z"/>
     </g>
     <g>
      <path class="fil2" d="M2369 2548c-24,7 -47,13 -71,17 -5,1 -8,6 -7,11 1,5 5,8 9,8 1,0 1,0 2,0 24,-5 48,-11 72,-18 5,-2 7,-7 6,-12 -1,-4 -7,-7 -11,-6z"/>
     </g>
     <g>
      <path class="fil2" d="M1668 2463c-21,-12 -41,-25 -61,-38 -4,-3 -10,-2 -13,2 -3,4 -2,10 2,13 21,14 42,27 63,39 1,1 3,2 4,2 4,0 7,-2 8,-5 3,-4 2,-10 -3,-13z"/>
     </g>
    </g>
    <g>
     <g>
      <path class="fil2" d="M1099 2011c-4,0 -9,-1 -12,-3l-136 -81 -881 0c-39,0 -70,-31 -70,-70l0 -117c0,-39 31,-70 70,-70l946 0c39,0 70,31 70,70l0 117c0,5 -1,10 -2,14l37 109c3,9 1,20 -7,26 -5,3 -10,5 -15,5zm-1029 -322l0 0c-29,0 -51,22 -51,51l0 117c0,28 22,51 51,51l886 0 140 84c3,2 5,0 6,0 1,-1 3,-3 2,-6l-39 -114 1 -2c1,-5 1,-9 1,-13l0 -117c0,-29 -23,-51 -51,-51l-946 0z"/>
     </g>
     <g>
      <path class="fil2" d="M966 1810l-871 0c-5,0 -9,-4 -9,-9 0,-5 4,-10 9,-10l871 0c5,0 9,5 9,10 0,5 -4,9 -9,9z"/>
     </g>
    </g>
    <g>
     <path class="fil2" d="M3465 1432c-5,0 -10,-1 -15,-5 -8,-6 -10,-16 -7,-26l37 -108c-1,-5 -2,-10 -2,-14l0 -118c0,-38 31,-70 70,-70l946 0c39,0 70,32 70,70l0 118c0,38 -31,69 -70,69l-881 0 -136 81c-3,2 -8,3 -12,3zm83 -322l0 0c-28,0 -51,23 -51,51l0 118c0,4 0,8 1,12l1 2 -39 114c-1,3 1,5 2,6 1,1 3,2 6,0l140 -83 886 0c29,0 51,-23 51,-51l0 -118c0,-28 -22,-51 -51,-51l-946 0z"/>
    </g>
    <g>
     <path class="fil2" d="M4469 1231l-871 0c-5,0 -9,-4 -9,-9 0,-5 4,-9 9,-9l871 0c5,0 9,4 9,9 0,5 -4,9 -9,9z"/>
    </g>
    <g>
     <g>
      <path class="fil2" d="M1057 1114c-5,0 -9,-4 -9,-9l0 -147c0,-6 4,-10 9,-10 5,0 9,4 9,10l0 147c0,5 -4,9 -9,9z"/>
     </g>
     <g>
      <path class="fil2" d="M1131 1041l-148 0c-5,0 -9,-5 -9,-10 0,-5 4,-9 9,-9l148 0c5,0 9,4 9,9 0,5 -4,10 -9,10z"/>
     </g>
    </g>
    <g>
     <g>
      <path class="fil2" d="M3987 1694c-5,0 -9,-4 -9,-9l0 -148c0,-5 4,-9 9,-9 5,0 9,4 9,9l0 148c0,5 -4,9 -9,9z"/>
     </g>
     <g>
      <path class="fil2" d="M4061 1620l-148 0c-5,0 -9,-4 -9,-9 0,-5 4,-9 9,-9l148 0c5,0 9,4 9,9 0,5 -4,9 -9,9z"/>
     </g>
    </g>
    <g>
     <g>
      <path class="fil2" d="M488 2635c-5,0 -10,-4 -10,-9l0 -111c0,-5 5,-9 10,-9 5,0 9,4 9,9l0 111c0,5 -4,9 -9,9z"/>
     </g>
     <g>
      <path class="fil2" d="M543 2579l-111 0c-5,0 -9,-4 -9,-9 0,-5 4,-9 9,-9l111 0c5,0 9,4 9,9 0,5 -4,9 -9,9z"/>
     </g>
    </g>
    <g>
     <path class="fil2" d="M3639 766c-34,0 -62,-27 -62,-61 0,-35 28,-62 62,-62 35,0 62,27 62,62 0,34 -27,61 -62,61zm0 -105l0 0c-24,0 -43,20 -43,44 0,24 19,43 43,43 24,0 44,-19 44,-43 0,-24 -20,-44 -44,-44z"/>
    </g>
    <g>
     <path class="fil2" d="M1247 220c-34,0 -62,-28 -62,-62 0,-34 28,-62 62,-62 34,0 62,28 62,62 0,34 -28,62 -62,62zm0 -105l0 0c-24,0 -43,19 -43,43 0,24 19,44 43,44 24,0 44,-20 44,-44 0,-24 -20,-43 -44,-43z"/>
    </g>
    <g>
     <path class="fil2" d="M3766 1926c-40,0 -73,-33 -73,-73 0,-39 33,-72 73,-72 40,0 72,33 72,72 0,40 -32,73 -72,73zm0 -127l0 0c-30,0 -54,25 -54,54 0,30 24,54 54,54 30,0 54,-24 54,-54 0,-29 -24,-54 -54,-54z"/>
    </g>
    <g>
     <path class="fil2" d="M741 2358c-46,0 -83,-37 -83,-83 0,-46 37,-83 83,-83 45,0 83,37 83,83 0,46 -38,83 -83,83zm0 -147l0 0c-36,0 -65,28 -65,64 0,36 29,65 65,65 35,0 64,-29 64,-65 0,-36 -29,-64 -64,-64z"/>
    </g>
    <g>
     <g>
      <path class="fil2" d="M1553 674l-324 0 0 -228 324 0 0 228zm-305 -19l0 0 287 0 0 -191 -287 0 0 191z"/>
     </g>
     <g>
      <path class="fil2" d="M1391 571l-158 -108c-4,-3 -5,-9 -2,-13 3,-4 8,-5 13,-2l147 101 148 -101c4,-3 10,-2 13,2 2,4 1,10 -3,13l-158 108z"/>
     </g>
    </g>
    <g>
     <g>
      <path class="fil2" d="M3411 358c-99,0 -179,-81 -179,-179 0,-99 80,-179 179,-179 98,0 178,80 178,179 0,98 -80,179 -178,179zm0 -340l0 0c-89,0 -161,72 -161,161 0,88 72,160 161,160 88,0 160,-72 160,-160 0,-89 -72,-161 -160,-161z"/>
     </g>
     <g>
      <path class="fil2" d="M3399 290l0 -29c-17,-1 -34,-6 -45,-13l7 -20c11,7 26,13 43,13 21,0 35,-12 35,-29 0,-16 -12,-26 -34,-35 -30,-12 -48,-25 -48,-51 0,-24 17,-43 44,-47l0 -30 19 0 0 29c17,0 29,5 38,10l-8 19c-6,-3 -18,-10 -37,-10 -22,0 -31,14 -31,26 0,15 11,22 37,33 30,12 45,28 45,54 0,23 -16,45 -46,50l0 30 -19 0z"/>
     </g>
    </g>
    <g>
     <g>
      <polygon class="fil2" points="2021,119 2009,119 2009,53 2021,53 "/>
     </g>
     <g>
      <polygon class="fil2" points="2021,274 2009,274 2009,209 2021,209 "/>
     </g>
     <g>
      <polygon class="fil2" points="1970,170 1904,170 1904,157 1970,157 "/>
     </g>
     <g>
      <polygon class="fil2" points="2125,170 2060,170 2060,157 2125,157 "/>
     </g>
     <g>
      <polygon class="fil2" points="2051,136 2042,127 2089,81 2097,90 "/>
     </g>
     <g>
      <polygon class="fil2" points="1941,246 1932,237 1979,191 1987,200 "/>
     </g>
     <g>
      <polygon class="fil2" points="1979,136 1932,90 1941,81 1987,127 "/>
     </g>
     <g>
      <polygon class="fil2" points="2089,246 2042,200 2051,191 2097,237 "/>
     </g>
    </g>
    <g>
     <g>
      <polygon class="fil2" points="3846,2312 3834,2312 3834,2247 3846,2247 "/>
     </g>
     <g>
      <polygon class="fil2" points="3846,2468 3834,2468 3834,2402 3846,2402 "/>
     </g>
     <g>
      <polygon class="fil2" points="3795,2364 3730,2364 3730,2351 3795,2351 "/>
     </g>
     <g>
      <polygon class="fil2" points="3951,2364 3885,2364 3885,2351 3951,2351 "/>
     </g>
     <g>
      <polygon class="fil2" points="3876,2330 3868,2321 3914,2275 3923,2284 "/>
     </g>
     <g>
      <polygon class="fil2" points="3766,2440 3758,2431 3804,2385 3813,2394 "/>
     </g>
     <g>
      <polygon class="fil2" points="3804,2330 3758,2284 3766,2275 3813,2321 "/>
     </g>
     <g>
      <polygon class="fil2" points="3914,2440 3868,2394 3876,2385 3923,2431 "/>
     </g>
    </g>
    <g>
     <g>
      <polygon class="fil2" points="564,1182 552,1182 552,1096 564,1096 "/>
     </g>
     <g>
      <polygon class="fil2" points="564,1387 552,1387 552,1301 564,1301 "/>
     </g>
     <g>
      <polygon class="fil2" points="498,1248 412,1248 412,1236 498,1236 "/>
     </g>
     <g>
      <polygon class="fil2" points="704,1248 617,1248 617,1236 704,1236 "/>
     </g>
     <g>
      <polygon class="fil2" points="604,1204 595,1195 656,1134 665,1143 "/>
     </g>
     <g>
      <polygon class="fil2" points="459,1349 450,1340 511,1279 520,1288 "/>
     </g>
     <g>
      <polygon class="fil2" points="511,1204 450,1143 459,1134 520,1195 "/>
     </g>
     <g>
      <polygon class="fil2" points="656,1349 595,1288 604,1279 665,1340 "/>
     </g>
    </g>
    <g>
     <path class="fil2" d="M652 841c-108,0 -197,-88 -197,-197 0,-109 89,-197 197,-197 109,0 197,88 197,197 0,109 -88,197 -197,197zm0 -376l0 0c-98,0 -178,81 -178,179 0,99 80,179 178,179 99,0 179,-80 179,-179 0,-98 -80,-179 -179,-179z"/>
    </g>
    <g>
     <path class="fil2" d="M652 834c-59,0 -106,-85 -106,-194 0,-108 47,-193 106,-193 60,0 106,85 106,193 0,109 -46,194 -106,194zm0 -369l0 0c-47,0 -88,81 -88,175 0,95 41,175 88,175 48,0 88,-80 88,-175 0,-94 -40,-175 -88,-175z"/>
    </g>
    <g>
     <path class="fil2" d="M652 834c-5,0 -9,-4 -9,-9l0 -369c0,-5 4,-9 9,-9 5,0 9,4 9,9l0 369c0,5 -4,9 -9,9z"/>
    </g>
    <g>
     <path class="fil2" d="M836 650l-368 0c-5,0 -9,-4 -9,-10 0,-5 4,-9 9,-9l368 0c6,0 10,4 10,9 0,6 -4,10 -10,10z"/>
    </g>
    <g>
     <g>
      <path class="fil2" d="M853 831c0,65 -53,117 -118,117 -64,0 -117,-52 -117,-117 0,-65 53,-117 117,-117 65,0 118,52 118,117z"/>
     </g>
     <g>
      <g>
       <path class="fil3" d="M732 867l0 11 -63 0 0 -8 36 -35c9,-9 11,-15 11,-20 0,-9 -7,-15 -19,-15 -10,0 -17,3 -23,10l-8 -8c6,-8 18,-13 32,-13 18,0 30,9 30,24 0,9 -2,17 -14,28l-27 26 45 0z"/>
      </g>
      <g>
       <polygon class="fil3" points="817,856 800,856 800,878 788,878 788,856 739,856 739,848 784,790 798,790 754,846 788,846 788,826 800,826 800,846 817,846 "/>
      </g>
     </g>
    </g>
   </g>
   <g>
    <g>
     <g>
      <g>
       <g>
        <polygon class="fil4" points="1684,4356 1721,4353 1633,4209 1452,4145 1447,4175 1614,4238 "/>
       </g>
      </g>
      <g>
       <g>
        <path class="fil5" d="M1628 4372c0,36 29,65 64,65 36,0 65,-29 65,-65 0,-35 -29,-64 -65,-64 -35,0 -64,29 -64,64z"/>
       </g>
       <g>
        <path class="fil4" d="M1622 4358c6,-33 35,-58 70,-58 35,0 64,25 71,58l-141 0z"/>
       </g>
      </g>
     </g>
     <g>
      <g>
       <g>
        <polygon class="fil4" points="1350,4356 1312,4353 1401,4209 1581,4145 1586,4175 1419,4238 "/>
       </g>
      </g>
      <g>
       <g>
        <path class="fil5" d="M1406 4372c0,36 -29,65 -65,65 -35,0 -64,-29 -64,-65 0,-35 29,-64 64,-64 36,0 65,29 65,64z"/>
       </g>
       <g>
        <path class="fil4" d="M1412 4358c-7,-33 -36,-58 -71,-58 -35,0 -64,25 -70,58l141 0z"/>
       </g>
      </g>
     </g>
     <g>
      <g>
       <polygon class="fil4" points="2000,4369 1919,4238 1546,4181 1550,4150 1938,4209 2026,4353 "/>
      </g>
     </g>
     <g>
      <g>
       <g>
        <path class="fil5" d="M1933 4372c0,36 29,65 64,65 36,0 65,-29 65,-65 0,-35 -29,-64 -65,-64 -35,0 -64,29 -64,64z"/>
       </g>
      </g>
      <g>
       <g>
        <path class="fil4" d="M1927 4358c6,-33 35,-58 70,-58 35,0 64,25 71,58l-141 0z"/>
       </g>
      </g>
     </g>
     <g>
      <g>
       <polygon class="fil4" points="1049,4369 1023,4353 1111,4209 1498,4150 1503,4181 1130,4238 "/>
      </g>
     </g>
     <g>
      <path class="fil6" d="M1992 2102l-934 0c-56,0 -102,46 -102,103l0 1200c0,57 46,103 102,103l934 0c57,0 103,-46 103,-103l0 -1200c0,-57 -46,-103 -103,-103z"/>
     </g>
     <g>
      <polygon class="fil7" points="1615,4183 1416,4183 1416,3587 1615,3587 "/>
     </g>
     <g>
      <polygon class="fil4" points="1631,4186 1631,4058 1400,4058 1400,4186 "/>
     </g>
     <g>
      <path class="fil8" d="M2041 2134l-934 0c-57,0 -103,46 -103,103l0 1200c0,57 46,103 103,103l934 0c57,0 103,-46 103,-103l0 -1200c0,-57 -46,-103 -103,-103z"/>
     </g>
     <g>
      <path class="fil6" d="M2190 3709l-1132 0c-73,0 -133,-60 -133,-133 0,-73 60,-133 133,-133l1132 0c73,0 133,60 133,133 0,73 -60,133 -133,133z"/>
     </g>
    </g>
    <g>
     <path class="fil9" d="M3804 3154l-3259 0c-40,0 -73,-33 -73,-73 0,-41 33,-74 73,-74l3259 0c40,0 73,33 73,74 0,40 -33,73 -73,73z"/>
    </g>
    <g>
     <g>
      <path class="fil5" d="M1116 4372c0,36 -29,65 -64,65 -36,0 -65,-29 -65,-65 0,-35 29,-64 65,-64 35,0 64,29 64,64z"/>
     </g>
     <g>
      <path class="fil4" d="M1122 4358c-6,-33 -35,-58 -70,-58 -35,0 -64,25 -71,58l141 0z"/>
     </g>
    </g>
    <g>
     <g>
      <path class="fil10" d="M1661 4228l-3 0c-30,0 -55,24 -55,54 0,30 25,54 55,54l3 0c30,0 55,-24 55,-54 0,-30 -25,-54 -55,-54z"/>
     </g>
     <g>
      <polygon class="fil11" points="2266,2856 2432,2843 2649,2919 2698,3008 2240,3008 "/>
     </g>
     <g>
      <polygon class="fil12" points="1307,2339 1307,3322 1956,3322 1956,2225 1461,2205 "/>
     </g>
     <g>
      <path class="fil12" d="M2183 2800l-142 -539c-19,-56 -66,-97 -124,-110l-132 -29 25 150 137 503c2,4 2,9 0,12l-80 104 30 77c15,20 38,33 66,33l433 0 0 -201 -213 0z"/>
     </g>
     <g>
      <polygon class="fil13" points="1545,2078 1400,2138 1414,2486 1481,2506 1414,2566 1634,3148 "/>
     </g>
     <g>
      <polygon class="fil13" points="1723,2078 1868,2138 1854,2486 1787,2506 1854,2566 1635,3148 "/>
     </g>
     <g>
      <polygon class="fil14" points="1551,2136 1471,2136 1632,3148 1819,2140 1725,2136 "/>
     </g>
     <g>
      <path class="fil15" d="M1884 1600c-11,-51 -47,-97 -97,-122 -50,-24 -112,-27 -164,-6 27,-11 128,151 139,171 37,69 49,138 69,210 34,-67 69,-177 53,-253z"/>
     </g>
     <g>
      <path class="fil16" d="M1528 1930l23 209c0,0 92,57 174,0l10 -188 -207 -21z"/>
     </g>
     <g>
      <path class="fil11" d="M1756 1620c45,32 74,82 81,136 11,80 25,209 8,253 -27,66 -268,105 -343,-57 0,0 -26,-145 -39,-215 -13,-70 92,-180 193,-162 39,6 73,25 100,45z"/>
     </g>
     <g>
      <path class="fil15" d="M1473 1832c23,-46 32,-99 25,-150 48,-20 108,-23 160,-14 16,3 33,8 47,17 18,12 31,32 48,46 24,21 59,29 91,23 5,-82 6,-170 -45,-235 -14,-17 -30,-31 -49,-42 -77,-43 -172,-19 -257,6 -21,6 -43,13 -59,29 -16,15 -23,43 -9,60 -20,-5 -44,7 -52,25 -8,19 -7,40 -5,59 6,54 20,107 42,157 7,-15 27,-22 42,-16 15,6 27,19 21,35z"/>
     </g>
     <g>
      <path class="fil11" d="M1501 1815l-12 5c-2,-30 -46,-44 -70,-25 -23,20 -15,54 1,80 12,18 35,42 56,37 17,-4 19,-26 23,-43 5,-18 4,-36 2,-54z"/>
     </g>
     <g>
      <path class="fil17" d="M1469 1796c-32,0 -59,27 -59,60 0,33 27,59 59,59 33,0 60,-26 60,-59 0,-33 -27,-60 -60,-60z"/>
     </g>
     <g>
      <g>
       <path class="fil17" d="M1670 1423l-39 0c-99,0 -179,81 -179,179l0 172c0,11 1,36 3,46 8,-4 15,-8 23,-12 -1,-7 -1,-27 -1,-34l0 -172c0,-85 69,-154 154,-154l39 0c22,0 43,5 62,13 20,3 48,11 77,29 -33,-41 -83,-67 -139,-67z"/>
      </g>
     </g>
     <g>
      <polygon class="fil3" points="1643,2168 1545,2078 1471,2136 1542,2280 "/>
     </g>
     <g>
      <polygon class="fil3" points="1643,2168 1730,2092 1819,2140 1733,2280 "/>
     </g>
     <g>
      <polygon class="fil18" points="1668,2302 1705,2237 1643,2168 1581,2237 1618,2302 1586,2866 1631,3142 1631,3146 1632,3145 1632,3148 1634,3148 1687,2857 "/>
     </g>
     <g>
      <polygon class="fil11" points="1491,2856 1657,2843 1862,2913 1775,3008 1465,3008 "/>
     </g>
     <g>
      <path class="fil12" d="M1425 2122l-132 29c-58,13 -105,54 -124,110l-166 631c-18,53 21,109 78,109l433 0 0 -201 -234 0c-13,0 -22,-13 -17,-25l137 -503 25 -150z"/>
     </g>
     <g>
      <g>
       <path class="fil10" d="M2401 4266l-4 0c-30,0 -54,25 -54,56 0,31 24,57 54,57l4 0c29,0 54,-26 54,-57 0,-31 -25,-56 -54,-56z"/>
      </g>
      <g>
       <path class="fil19" d="M2511 4306c0,0 -80,-685 -80,-685 -18,-143 -99,-386 -260,-416 -49,-9 -109,0 -159,0 -70,0 -141,0 -212,0 -51,0 -101,0 -151,0 -41,0 -74,35 -74,77l0 218c0,42 33,76 74,76l368 0 287 725 207 5z"/>
      </g>
     </g>
     <g>
      <g>
       <path class="fil10" d="M1664 4266l-3 0c-30,0 -55,25 -55,56 0,31 25,57 55,57l3 0c30,0 55,-26 55,-57 0,-31 -25,-56 -55,-56z"/>
      </g>
      <g>
       <path class="fil20" d="M1846 3268c-6,-36 -36,-63 -73,-63l-525 0c-40,0 -73,34 -73,76l0 218c0,42 33,76 73,76l274 0 44 741 205 0 102 -617c46,-244 13,-368 -27,-431z"/>
      </g>
     </g>
     <g>
      <path class="fil21" d="M1868 4323c-50,0 -78,-18 -93,-35l-98 0 -17 59 -26 -59 -78 0 0 134 413 0c0,0 -12,-99 -101,-99z"/>
     </g>
     <g>
      <path class="fil21" d="M2607 4326c-50,0 -78,-19 -93,-35l-98 0 -17 59 -25 -59 -79 0 0 134 414 0c0,0 -13,-99 -102,-99z"/>
     </g>
     <g>
      <path class="fil22" d="M1966 4419l-407 0c-5,0 -10,4 -10,10l0 16c0,6 5,10 10,10l407 0c6,0 10,-4 10,-10l0 -16c0,-6 -4,-10 -10,-10z"/>
     </g>
     <g>
      <path class="fil22" d="M2699 4458l-390 0c-10,0 -18,-8 -18,-18 0,-10 8,-18 18,-18l390 0c10,0 18,8 18,18 0,10 -8,18 -18,18z"/>
     </g>
     <g>
      <g>
       <g>
        <path class="fil23" d="M1626 1854c24,0 24,-36 0,-36 -23,0 -23,36 0,36z"/>
       </g>
      </g>
     </g>
     <g>
      <g>
       <g>
        <path class="fil23" d="M1796 1842c23,0 23,-36 0,-36 -24,0 -24,36 0,36z"/>
       </g>
      </g>
     </g>
     <g>
      <path class="fil23" d="M1676 1963c0,27 22,49 48,49 27,0 49,-22 49,-49l-97 0z"/>
     </g>
     <g>
      <g>
       <g>
        <path class="fil17" d="M1725 2023l-194 -27c-26,-4 -48,-21 -58,-46l-16 -43 22 5 12 31c7,18 24,31 43,34l194 27 -3 19z"/>
       </g>
      </g>
      <g>
       <path class="fil17" d="M1753 2035l-28 0c-13,0 -23,-10 -23,-23 0,-12 10,-23 23,-23l28 0c13,0 23,11 23,23 0,13 -10,23 -23,23z"/>
      </g>
     </g>
     <g>
      <g>
       <path class="fil15" d="M1561 1786c22,-30 65,-41 99,-26 9,5 17,-9 8,-13 -42,-19 -92,-6 -120,31 -6,8 7,16 13,8z"/>
      </g>
     </g>
     <g>
      <g>
       <path class="fil15" d="M1840 1780c-22,-30 -65,-41 -99,-25 -9,4 -17,-10 -8,-14 42,-19 93,-6 120,31 6,8 -7,16 -13,8z"/>
      </g>
     </g>
    </g>
    <g>
     <polygon class="fil24" points="2505,3008 1579,3008 1579,2901 2505,2901 "/>
    </g>
    <g>
     <g>
      <g>
       <polygon class="fil7" points="611,3075 611,4467 745,4467 745,3075 "/>
      </g>
      <g>
       <polygon class="fil25" points="745,3410 745,3075 611,3075 611,3410 "/>
      </g>
     </g>
     <g>
      <polygon class="fil26" points="2926,3075 2926,4467 3060,4467 3060,3075 "/>
     </g>
     <g>
      <polygon class="fil13" points="3060,3410 3060,3075 2926,3075 2926,3410 "/>
     </g>
     <g>
      <polygon class="fil26" points="3495,3075 3495,4467 3629,4467 3629,3075 "/>
     </g>
     <g>
      <polygon class="fil13" points="3629,3410 3629,3075 3495,3075 3495,3410 "/>
     </g>
     <g>
      <g>
       <polygon class="fil7" points="1205,3075 1205,4467 1339,4467 1339,3075 "/>
      </g>
      <g>
       <polygon class="fil25" points="1339,3410 1339,3075 1205,3075 1205,3410 "/>
      </g>
     </g>
     <g>
      <g>
       <path class="fil9" d="M3804 3007l-2362 0 0 147 2362 0c40,0 73,-33 73,-73 0,-41 -33,-74 -73,-74z"/>
      </g>
      <g>
       <path class="fil27" d="M545 3007c-40,0 -73,33 -73,74 0,40 33,73 73,73l897 0 0 -147 -897 0z"/>
      </g>
     </g>
    </g>
    <g>
     <g>
      <g>
       <polygon class="fil28" points="3277,2717 2130,2717 2365,1930 3511,1930 "/>
      </g>
      <g>
       <polygon class="fil24" points="3491,1997 3511,1930 2365,1930 2130,2717 2204,2717 2419,1997 "/>
      </g>
      <g>
       <polygon class="fil28" points="3491,1997 2419,1997 2204,2717 3277,2717 "/>
      </g>
      <g>
       <polygon class="fil29" points="2805,2655 2679,2717 2464,2717 2675,2395 "/>
      </g>
      <g>
       <polygon class="fil28" points="2863,3004 2675,3004 2675,2395 2863,2395 "/>
      </g>
      <g>
       <polygon class="fil28" points="3086,3008 2415,3008 2415,2946 3086,2946 "/>
      </g>
     </g>
     <g>
      <polygon class="fil29" points="2645,2294 2608,2294 2732,2068 2768,2068 "/>
     </g>
     <g>
      <polygon class="fil29" points="2757,2294 2721,2294 2844,2068 2881,2068 "/>
     </g>
     <g>
      <polygon class="fil29" points="2870,2294 2833,2294 2957,2068 2994,2068 "/>
     </g>
     <g>
      <polygon class="fil29" points="2983,2294 2946,2294 3070,2068 3106,2068 "/>
     </g>
    </g>
   </g>
   <g>
    <g>
     <path class="fil30" d="M2638 1861c0,0 -1,0 -1,0 -421,-1 -766,-344 -770,-765 -2,-208 78,-404 226,-552 147,-147 343,-227 552,-226 200,2 389,81 533,222 144,141 226,329 231,528 4,122 -22,243 -74,353l125 198c22,36 22,81 -2,116 -24,35 -65,52 -107,45l-281 -51c-127,86 -276,132 -432,132zm0 -1450l0 0c-181,0 -352,70 -480,199 -130,129 -200,302 -199,486 3,370 307,672 678,673 0,0 1,0 1,0 143,0 279,-44 395,-127l16 -11 318 58c8,1 12,-2 14,-6 3,-3 5,-9 1,-15l-153 -243 12 -23c53,-101 79,-216 76,-331 -5,-176 -77,-341 -204,-465 -126,-125 -293,-194 -469,-195 -2,0 -4,0 -6,0z"/>
    </g>
    <g>
     <g>
      <path class="fil31" d="M3019 855c-10,-44 -25,-89 -51,-124 1,-2 1,-4 2,-6 11,-40 4,-84 -13,-122 -10,-22 -22,-42 -30,-64 -8,-26 -10,-54 -15,-82 -14,-74 -55,-143 -115,-190 -59,-47 -135,-71 -211,-68 -43,3 -86,14 -121,38 -88,59 -60,142 -35,227 12,41 32,81 64,110 26,24 60,41 79,70 12,19 18,39 21,61 -12,2 -24,4 -36,7 -41,7 -103,6 -137,31 -80,56 -111,203 -117,292 -2,49 7,105 50,130 25,15 57,15 86,14 118,-3 235,-7 353,-10 50,-2 101,-4 144,-28 46,-27 76,-76 87,-128 11,-52 6,-106 -5,-158z"/>
     </g>
     <g>
      <path class="fil32" d="M2029 1135c-12,-22 -25,-44 -38,-66 -16,-28 -23,-61 -45,-84 -23,-22 -50,-39 -77,-57 -12,-7 -26,-14 -38,-6 -7,6 -9,15 -7,24 3,15 16,24 27,33 10,8 20,16 25,27 -58,-26 -116,-61 -159,-107 -9,-10 -25,-3 -24,10 1,36 8,72 24,104 21,44 58,81 103,98 27,10 56,13 82,25 41,18 69,56 95,93 17,-21 31,-68 32,-94z"/>
     </g>
     <g>
      <path class="fil33" d="M2647 889c0,0 230,64 253,105 23,42 -69,464 -69,464l-184 -569z"/>
     </g>
     <g>
      <path class="fil33" d="M2858 1737c-2,-90 -3,-216 -8,-300 -11,-174 -7,-284 -45,-435 -101,-72 -233,-99 -353,-66 -45,65 -90,131 -121,205 -30,74 -17,31 3,108 13,46 23,159 37,205 25,87 29,180 22,273 67,24 246,74 465,10z"/>
     </g>
     <g>
      <path class="fil33" d="M2513 896l-106 26c-40,11 -73,39 -89,77l-127 301 -165 -192 -110 56c0,0 186,428 295,414 110,-13 295,-397 295,-397l7 -285z"/>
     </g>
     <g>
      <path class="fil32" d="M2495 797l0 164c0,0 0,162 82,162 93,0 85,-162 85,-162l0 -164 -167 0z"/>
     </g>
     <g>
      <path class="fil31" d="M2445 775c-46,-45 -88,-97 -112,-157 -25,-60 -32,-129 -11,-190 21,-62 72,-114 135,-128 -1,165 -10,310 -12,475z"/>
     </g>
     <g>
      <path class="fil34" d="M2392 782c17,45 55,81 101,97 45,16 98,11 139,-13 56,-32 90,-94 102,-157 12,-63 6,-128 0,-192 -60,3 -122,6 -180,-11 -58,-18 -113,-60 -127,-119 -16,25 -54,65 -58,95 -2,12 8,29 10,41 3,17 4,35 4,52 -1,69 -17,141 9,207z"/>
     </g>
     <g>
      <path class="fil34" d="M2793 665c-8,31 -33,52 -57,46 -23,-6 -36,-36 -28,-68 8,-31 34,-51 57,-45 24,6 36,36 28,67z"/>
     </g>
     <g>
      <path class="fil35" d="M2889 626l-146 0c-6,0 -12,4 -14,10l-106 267c-4,10 3,21 13,21l147 0c6,0 11,-4 14,-10l106 -267c4,-10 -3,-21 -14,-21z"/>
     </g>
     <g>
      <g>
       <path class="fil32" d="M2720 1020l-14 -93c0,0 -74,-112 -62,-158 0,0 9,-15 21,-12 0,0 -3,-29 23,-29 0,0 -9,-33 23,-30 0,0 -5,-41 30,-32l73 103c0,0 47,-68 58,-50 12,17 -35,108 -35,108l-29 82 20 99 -108 12z"/>
      </g>
      <g>
       <path class="fil36" d="M2900 1182l-76 -262 -132 6c0,0 -11,501 102,538 2,0 4,1 7,1 29,6 59,-9 73,-35 65,-120 26,-248 26,-248z"/>
      </g>
     </g>
     <g>
      <g>
       <g>
        <path class="fil31" d="M2383 568c-1,0 -2,0 -3,-1 -2,-2 -3,-5 -1,-8 21,-25 61,-32 88,-13 3,1 4,5 2,7 -2,3 -5,3 -8,2 -23,-15 -56,-10 -73,11 -1,1 -3,2 -5,2z"/>
       </g>
      </g>
      <g>
       <g>
        <path class="fil31" d="M2673 568c-1,0 -3,-1 -4,-2 -17,-21 -51,-26 -74,-11 -2,1 -5,1 -7,-2 -2,-2 -1,-6 1,-7 28,-19 68,-12 89,13 2,3 1,6 -1,8 -1,1 -2,1 -4,1z"/>
       </g>
      </g>
      <g>
       <path class="fil37" d="M2438 608c0,10 -8,17 -18,17 -9,0 -17,-7 -17,-17 0,-10 8,-18 17,-18 10,0 18,8 18,18z"/>
      </g>
      <g>
       <path class="fil37" d="M2644 608c0,10 -8,17 -17,17 -10,0 -18,-7 -18,-17 0,-10 8,-18 18,-18 9,0 17,8 17,18z"/>
      </g>
      <g>
       <path class="fil37" d="M2456 735c2,0 4,0 5,0l100 0c-3,26 -29,50 -56,50 -26,0 -45,-24 -49,-50z"/>
      </g>
     </g>
    </g>
   </g>
  </g>
 </g>
</svg>
