<?xml version="1.0" encoding="UTF-8"?>
<!DOCTYPE svg PUBLIC "-//W3C//DTD SVG 1.1//EN" "http://www.w3.org/Graphics/SVG/1.1/DTD/svg11.dtd">
<!-- Creator: CorelDRAW X7 -->
<svg xmlns="http://www.w3.org/2000/svg" xml:space="preserve" width="5.29in" height="4.043in" version="1.1" style="shape-rendering:geometricPrecision; text-rendering:geometricPrecision; image-rendering:optimizeQuality; fill-rule:evenodd; clip-rule:evenodd"
viewBox="0 0 5290 4043"
 xmlns:xlink="http://www.w3.org/1999/xlink">
 <defs>
  <style type="text/css">
   <![CDATA[
    .str1 {stroke:#0A42A3;stroke-width:13.8898;stroke-linecap:round;stroke-linejoin:round;stroke-opacity:0.309804}
    .str0 {stroke:#00AC9E;stroke-width:13.8898;stroke-linecap:round;stroke-linejoin:round}
    .str2 {stroke:#086256;stroke-width:13.8898;stroke-linecap:round;stroke-linejoin:round}
    .fil8 {fill:none;fill-rule:nonzero}
    .fil9 {fill:none;fill-rule:nonzero}
    .fil1 {fill:#92D2BE;fill-rule:nonzero}
    .fil0 {fill:#2E414E;fill-rule:nonzero}
    .fil29 {fill:#001F64;fill-rule:nonzero}
    .fil15 {fill:#0056EB;fill-rule:nonzero}
    .fil11 {fill:#00AC9E;fill-rule:nonzero}
    .fil27 {fill:#2D2B83;fill-rule:nonzero}
    .fil10 {fill:#4983D8;fill-rule:nonzero}
    .fil36 {fill:#4B48B5;fill-rule:nonzero}
    .fil6 {fill:#4BA1FF;fill-rule:nonzero}
    .fil2 {fill:#4F83DA;fill-rule:nonzero}
    .fil3 {fill:#5093F4;fill-rule:nonzero}
    .fil7 {fill:#52D1BC;fill-rule:nonzero}
    .fil37 {fill:#568EDB;fill-rule:nonzero}
    .fil38 {fill:#5D9CE4;fill-rule:nonzero}
    .fil13 {fill:#7EE8D4;fill-rule:nonzero}
    .fil30 {fill:#8EC1FF;fill-rule:nonzero}
    .fil18 {fill:#C8EDFB;fill-rule:nonzero}
    .fil22 {fill:#F9704D;fill-rule:nonzero}
    .fil34 {fill:#F9ACC8;fill-rule:nonzero}
    .fil24 {fill:#FFB154;fill-rule:nonzero}
    .fil26 {fill:#FFC1D3;fill-rule:nonzero}
    .fil17 {fill:white;fill-rule:nonzero}
    .fil19 {fill:black;fill-rule:nonzero;fill-opacity:0.090196}
    .fil35 {fill:black;fill-rule:nonzero;fill-opacity:0.101961}
    .fil39 {fill:#4D83D8;fill-rule:nonzero;fill-opacity:0.160784}
    .fil5 {fill:#6059CA;fill-rule:nonzero;fill-opacity:0.227451}
    .fil28 {fill:#2D2B83;fill-rule:nonzero;fill-opacity:0.301961}
    .fil31 {fill:#8EC1FF;fill-rule:nonzero;fill-opacity:0.301961}
    .fil20 {fill:#93EBFF;fill-rule:nonzero;fill-opacity:0.301961}
    .fil40 {fill:#F9704D;fill-rule:nonzero;fill-opacity:0.301961}
    .fil32 {fill:#FFC1D3;fill-rule:nonzero;fill-opacity:0.301961}
    .fil14 {fill:#594FD1;fill-rule:nonzero;fill-opacity:0.368627}
    .fil4 {fill:#4F83DA;fill-rule:nonzero;fill-opacity:0.400000}
    .fil23 {fill:#F9704D;fill-rule:nonzero;fill-opacity:0.400000}
    .fil25 {fill:#FFB154;fill-rule:nonzero;fill-opacity:0.400000}
    .fil12 {fill:#4BA1FF;fill-rule:nonzero;fill-opacity:0.501961}
    .fil16 {fill:#6059CA;fill-rule:nonzero;fill-opacity:0.501961}
    .fil21 {fill:#93EBFF;fill-rule:nonzero;fill-opacity:0.501961}
    .fil33 {fill:#FFC87C;fill-rule:nonzero;fill-opacity:0.501961}
   ]]>
  </style>
 </defs>
 <g id="Layer_x0020_1">
  <metadata id="CorelCorpID_0Corel-Layer"/>
  <path class="fil0" d="M-1199 29489c-56,17 -167,45 -297,45 -146,0 -267,-31 -362,-107 -83,-68 -134,-177 -134,-304 1,-243 199,-420 523,-420 112,0 199,20 241,37l-30 86c-52,-19 -116,-35 -214,-35 -235,0 -389,123 -389,327 0,207 148,329 373,329 82,0 138,-10 167,-22l0 -243 -197 0 0 -84 319 0 0 391z"/>
  <path class="fil0" d="M-884 29114c28,6 62,8 103,8 151,0 243,-61 243,-174 0,-108 -90,-159 -228,-159 -55,0 -96,3 -118,8l0 317zm-125 -393c61,-9 140,-16 240,-16 123,0 214,24 271,68 53,38 85,98 85,170 0,74 -26,132 -75,174 -66,59 -174,90 -295,90 -38,0 -72,-1 -101,-8l0 327 -125 0 0 -805z"/>
  <path class="fil0" d="M-263 29398c56,29 138,53 224,53 128,0 202,-57 202,-139 0,-76 -51,-120 -182,-162 -158,-47 -255,-116 -255,-231 0,-127 125,-221 313,-221 99,0 170,19 213,40l-34 86c-32,-15 -96,-39 -184,-39 -132,0 -182,66 -182,122 0,76 59,114 192,157 164,53 247,120 247,239 0,126 -111,235 -339,235 -93,0 -195,-23 -246,-52l31 -88z"/>
  <polygon class="fil0" points="766,28711 890,28711 890,29437 1304,29437 1304,29526 766,29526 "/>
  <path class="fil0" d="M1463 29123c0,174 112,330 308,330 198,0 310,-153 310,-338 0,-162 -100,-331 -308,-331 -207,0 -310,160 -310,339zm750 -13c0,280 -202,429 -449,429 -255,0 -435,-167 -435,-413 0,-259 191,-428 449,-428 264,0 435,170 435,412z"/>
  <path class="fil0" d="M3051 29499c-46,19 -138,39 -256,39 -272,0 -477,-145 -477,-412 0,-255 205,-428 505,-428 120,0 196,22 229,36l-30 86c-47,-19 -115,-34 -195,-34 -227,0 -377,122 -377,336 0,199 136,328 371,328 76,0 154,-14 204,-34l26 83z"/>
  <path class="fil0" d="M3686 29187l-95 -234c-21,-53 -36,-102 -50,-149l-3 0c-14,49 -30,98 -49,148l-94 235 291 0zm-317 83l-100 256 -130 0 329 -815 150 0 330 815 -133 0 -103 -256 -343 0z"/>
  <polygon class="fil0" points="4164,28801 3869,28801 3869,28711 4585,28711 4585,28801 4290,28801 4290,29526 4164,29526 "/>
  <polygon class="fil0" points="4693,29526 4818,29526 4818,28711 4693,28711 "/>
  <path class="fil0" d="M5112 29123c0,174 112,330 308,330 198,0 310,-153 310,-338 0,-162 -101,-331 -309,-331 -206,0 -309,160 -309,339zm750 -13c0,280 -202,429 -449,429 -255,0 -435,-167 -435,-413 0,-259 191,-428 449,-428 264,0 435,170 435,412z"/>
  <path class="fil0" d="M6024 29526l0 -815 136 0 310 412c72,96 128,182 174,265l2 -1c-11,-109 -14,-208 -14,-335l0 -341 118 0 0 815 -127 0 -307 -414c-67,-90 -132,-183 -180,-272l-5 2c8,102 10,200 10,336l0 348 -117 0z"/>
  <g id="_962416464">
   <g>
    <path class="fil1" d="M4969 1449c75,135 182,262 192,414 15,244 -223,427 -320,653 -120,278 -20,605 -125,887 -77,205 -265,369 -486,423 -165,40 -339,22 -510,24 -485,4 -968,172 -1446,96 -236,-38 -459,-134 -697,-164 -284,-37 -616,7 -819,-186 -284,-270 -73,-767 -286,-1091 -69,-104 -180,-186 -217,-304 -43,-138 27,-285 114,-402 88,-118 195,-226 243,-363 42,-124 16,-259 -36,-380 -81,-185 144,-609 590,-577 204,15 296,-222 520,-288 257,-75 579,-14 768,48 193,64 430,98 541,-65 155,-231 619,-267 827,107 76,137 144,243 306,233 877,-57 731,735 841,935zm-2391 -1264l0 0c0,31 0,85 138,76 43,-3 77,-25 77,-57 0,-31 -34,-57 -77,-57 -42,0 -138,-13 -138,38zm-1363 152l0 0c-4,2 -7,7 -9,11 -9,14 -25,23 -40,29 -10,3 -20,7 -27,14 -10,11 -9,30 3,40 10,8 24,9 37,8 48,-2 95,-20 132,-49 49,-39 -69,-68 -96,-53zm-131 72l0 0c-17,-10 -37,-4 -54,4 -3,2 -7,4 -8,8 -2,8 8,13 16,15 12,4 25,8 37,4 13,-4 25,-20 9,-31zm-612 1001l0 0c-12,-37 -41,-55 -83,-34 -26,12 -44,35 -59,59 -25,37 -46,80 -41,124 4,32 22,62 50,81 11,8 24,14 38,13 15,0 29,-9 41,-18 28,-21 49,-49 70,-77 11,-15 23,-30 25,-48 4,-37 -30,-67 -41,-100zm4486 1127l0 0c-11,4 -22,10 -29,20 -4,7 -6,16 -7,25 -2,18 -3,37 -3,56 0,20 2,42 18,56 21,19 54,12 82,5 15,-5 32,-10 42,-22 7,-9 10,-20 12,-31 6,-37 27,-93 4,-113 -22,-19 -80,-12 -119,4zm-1550 1433l0 0c-6,5 -11,11 -14,18 -9,18 0,43 20,51 10,4 21,4 32,4 92,-1 191,-5 265,-58 9,-6 18,-15 17,-26 -2,-13 -18,-18 -32,-21 -92,-18 -214,-37 -288,32zm-1752 -142l0 0c-80,-11 -208,-27 -208,38 0,25 113,48 132,53 58,14 112,35 169,56 105,38 189,-14 106,-73 -69,-48 -134,-66 -199,-74z"/>
   </g>
   <g>
    <g>
     <g>
      <path class="fil2" d="M4294 2293c0,0 186,-17 363,-90 6,-2 9,36 9,36 0,0 26,-51 35,-55 96,-45 183,-108 231,-195 0,0 23,534 -663,652l25 -348z"/>
     </g>
     <g>
      <path class="fil2" d="M4522 2902c0,0 226,120 669,141 0,0 -301,274 -990,180l22 -313 299 -8z"/>
     </g>
     <g>
      <path class="fil3" d="M4205 2597c0,0 102,-65 268,-122 7,-2 21,37 21,37 0,0 23,-51 35,-54 198,-60 469,-98 761,-16 0,0 -88,123 -270,258 -7,6 -58,1 -58,1 0,0 21,26 14,31 -172,120 -416,242 -735,290l-36 -425z"/>
     </g>
     <g>
      <g>
       <path class="fil4" d="M5290 2442c-85,55 -175,103 -267,148 -91,44 -185,84 -280,120 -48,18 -96,33 -144,49l-73 22c-13,4 -25,8 -37,11l-37 9c-98,27 -199,45 -299,59l74 -15 38 -8c12,-3 24,-6 37,-9l74 -17 73 -21c49,-13 97,-29 146,-43 47,-17 96,-33 143,-51 95,-35 188,-74 281,-117 46,-21 91,-43 137,-66 45,-22 90,-46 134,-71z"/>
      </g>
      <g>
       <path class="fil4" d="M4671 2728c19,-18 37,-36 55,-53 18,-18 36,-37 53,-56 18,-18 34,-38 50,-58 16,-20 31,-40 45,-62 -9,24 -21,48 -36,69 -14,22 -30,42 -48,61 -35,38 -75,73 -119,99z"/>
      </g>
      <g>
       <path class="fil4" d="M4396 2810c21,-13 40,-28 58,-44 17,-16 34,-33 49,-52 15,-18 29,-38 41,-58 13,-21 23,-43 33,-65 -5,24 -11,48 -23,70 -10,23 -24,43 -39,63 -16,19 -34,36 -54,51 -20,15 -41,27 -65,35z"/>
      </g>
      <g>
       <path class="fil4" d="M4671 2728c35,2 70,2 105,0 17,-1 34,-3 51,-6 18,-2 35,-6 52,-9 -15,9 -32,16 -49,20 -18,5 -35,8 -53,9 -18,1 -36,1 -54,-1 -18,-2 -36,-6 -52,-13z"/>
      </g>
      <g>
       <path class="fil4" d="M4402 2811c21,2 42,4 63,7 22,1 42,3 63,4 21,1 42,1 63,1 21,-2 42,-4 64,-7 -20,9 -41,15 -62,18 -22,3 -44,4 -65,3 -43,-3 -86,-10 -126,-26z"/>
      </g>
     </g>
     <g>
      <g>
       <path class="fil5" d="M4861 2128c-18,50 -50,94 -87,133 -37,39 -80,71 -126,98l-36 19c-11,7 -24,11 -36,17 -24,11 -50,19 -75,27 -13,5 -26,7 -39,10l-39 9c-26,5 -52,8 -79,12 26,-7 52,-12 78,-19l38 -11c12,-4 25,-7 37,-12 25,-9 50,-17 73,-29 12,-6 25,-10 36,-17l34 -18c46,-27 88,-58 126,-94 9,-9 19,-18 27,-28 5,-5 9,-10 13,-15l13 -16c16,-20 30,-43 42,-66z"/>
      </g>
     </g>
     <g>
      <g>
       <path class="fil6" d="M5046 3080c-31,6 -62,10 -93,14 -32,3 -63,5 -95,6 -63,4 -126,2 -190,-2 -31,-3 -63,-7 -94,-12 -31,-4 -63,-10 -93,-18 -62,-16 -122,-38 -176,-71 29,13 58,25 88,35 29,10 60,18 90,25 62,13 124,21 186,26 63,6 126,7 189,6 63,-1 126,-3 188,-9z"/>
      </g>
      <g>
       <path class="fil6" d="M4750 3191c-42,3 -84,-6 -121,-24 -19,-10 -37,-22 -51,-38 -15,-15 -25,-34 -31,-54 11,18 24,33 39,46 15,13 31,24 49,33 18,9 37,16 56,22 19,6 38,11 59,15z"/>
      </g>
      <g>
       <path class="fil6" d="M4585 3201c-41,-6 -80,-24 -113,-50 -17,-13 -31,-29 -42,-48 -11,-18 -16,-39 -19,-59 8,19 17,37 29,53 12,16 25,30 41,43 15,12 32,23 49,33 18,10 36,19 55,28z"/>
      </g>
     </g>
    </g>
    <g>
     <path class="fil7" d="M2775 3652c-69,-80 -173,-127 -279,-125 -77,1 -153,27 -231,22 -81,-5 -160,-45 -211,-109 -52,-63 -75,-148 -64,-229 9,-61 41,-123 97,-150 30,-15 65,-19 99,-16 31,3 61,11 89,24 64,28 120,79 165,134 40,51 133,125 195,173 37,28 64,47 64,47 44,40 46,177 76,229z"/>
     <path class="fil8 str0" d="M2095 3233c195,56 411,134 563,268"/>
    </g>
    <g>
     <path class="fil3" d="M3352 3206c-3,32 -9,65 -25,95 -11,20 -26,38 -42,53 -9,9 -18,16 -27,23 -37,28 -77,49 -119,62 -61,20 -126,23 -182,58 -26,16 -48,38 -66,63 -11,16 -19,33 -26,51l0 -54c6,-61 12,-122 35,-180 14,-38 35,-73 58,-106 37,-53 79,-102 128,-143 39,-33 85,-62 133,-69 48,-7 99,11 121,53 14,27 15,61 12,94z"/>
     <path class="fil9 str1" d="M2899 3506c34,-81 94,-153 166,-200 45,-30 94,-50 140,-78 46,-28 91,-65 112,-116"/>
    </g>
    <g>
     <path class="fil7" d="M2824 3555c86,-85 208,-124 327,-141 100,-14 205,-15 298,23 29,12 58,29 76,55 17,27 19,65 -2,88 -18,20 -47,25 -73,26 -88,3 -174,-22 -259,-40 -148,-31 -309,-39 -443,30l76 -41z"/>
     <path class="fil8 str0" d="M2931 3511c178,-75 434,-51 546,26"/>
    </g>
    <g>
     <path class="fil10" d="M830 2640c-80,-39 -118,-142 -184,-164 -82,-28 -105,63 -237,41 -111,-19 -145,-144 -330,-105 -57,11 -94,59 -73,117 16,57 95,93 141,122 42,23 79,36 103,80 0,0 1,0 1,1 16,35 10,67 49,93 90,66 203,-39 306,-36 72,2 70,78 158,99 86,22 58,-55 239,15 7,3 14,-1 17,-7 2,-5 0,-10 -3,-14 -127,-132 -69,-186 -187,-242z"/>
     <path class="fil11" d="M830 2640c-80,-39 -118,-142 -184,-164 -82,-28 -105,63 -237,41 -111,-19 -145,-144 -330,-105 -57,11 -94,59 -73,117 16,57 95,93 141,122 42,23 79,36 103,80 0,0 1,0 1,1 16,35 10,67 49,93 90,66 203,-39 306,-36 72,2 70,78 158,99 86,22 58,-55 239,15 7,3 14,-1 17,-7 2,-5 0,-10 -3,-14 -127,-132 -69,-186 -187,-242z"/>
     <g>
      <g>
       <path class="fil12" d="M933 2813c-69,-36 -109,-111 -182,-141 -16,-7 -33,-10 -51,-10 -25,1 -50,11 -76,8 -36,-3 -59,-35 -91,-48 -37,-16 -75,8 -113,-1 -39,-10 -71,-38 -102,-62 -64,-50 -136,-78 -218,-77 -4,0 -2,11 3,11 90,-1 162,35 231,89 26,20 54,42 86,49 39,10 79,-14 116,3 29,14 51,41 84,47 41,6 78,-15 120,-2 79,24 120,107 192,144 5,3 5,-8 1,-10z"/>
      </g>
     </g>
    </g>
    <g>
     <path class="fil13" d="M1612 3179c-264,28 -307,51 -370,23 -81,-34 -165,-26 -247,-59 -81,-33 -169,-59 -256,-45 -28,5 -58,16 -62,48 -1,13 3,26 10,36 19,27 51,36 81,44l99 28c33,9 31,57 -3,61 0,0 0,0 0,1 -28,3 -57,-2 -84,-8 -60,-14 -120,-30 -182,-30 -74,0 -153,27 -189,96 -13,25 -18,53 -14,81 13,76 85,102 148,96 45,-4 87,-21 130,-36 103,-38 191,3 300,6 303,8 639,-342 639,-342z"/>
     <path class="fil8 str0" d="M477 3421c188,-22 378,-43 558,-101 53,-16 121,-21 270,-131"/>
    </g>
    <g>
     <path class="fil13" d="M782 2330c6,5 13,9 20,13 32,16 69,18 94,47 18,18 27,42 40,64 2,5 5,9 8,14 40,54 79,61 121,60 17,-1 35,-2 53,-2 28,0 58,3 90,21 20,11 41,27 63,51 4,5 11,5 17,2 5,-4 8,-10 7,-15 -11,-50 -33,-83 -60,-108 -74,-70 -183,-76 -189,-220 -2,-31 5,-53 0,-75 -3,-11 -8,-22 -19,-35 -22,-24 -55,-34 -83,-54 -78,-55 -41,-146 -48,-232 -4,-70 -68,-116 -119,-156 -65,-47 -65,-133 -108,-197 -44,-63 -152,-89 -210,-3 -61,85 -27,192 -10,279 5,23 13,43 23,61 33,57 88,97 136,144 29,30 54,63 71,100 10,22 18,46 22,70 1,6 2,12 3,18 12,60 25,113 78,153z"/>
     <g>
      <g>
       <path class="fil12" d="M507 1506c3,79 9,161 68,220 28,27 61,49 87,78 19,20 28,42 35,68 4,15 7,30 16,42 11,15 26,22 41,32 20,13 35,29 46,50 18,31 27,67 43,99 7,14 15,28 26,40 15,19 39,31 50,54 18,39 11,85 28,126 41,94 139,140 226,181 5,3 5,-8 1,-10 -85,-40 -181,-85 -221,-176 -17,-37 -12,-77 -24,-115 -12,-36 -47,-51 -67,-82 -35,-52 -41,-121 -89,-164 -16,-14 -38,-21 -52,-37 -17,-19 -17,-48 -26,-71 -12,-29 -34,-52 -57,-73 -35,-30 -73,-56 -95,-98 -25,-50 -27,-108 -29,-163 -1,-5 -7,-9 -7,-1z"/>
      </g>
     </g>
     <path class="fil14" d="M1118 2526c28,0 58,3 90,21 3,-45 17,-54 27,-70 -74,-70 -183,-76 -189,-220 -2,-31 5,-53 0,-75 -22,46 -62,56 -59,103 3,49 65,94 77,156 9,50 28,63 54,85z"/>
    </g>
    <g>
     <path class="fil2" d="M1834 3254c-50,-20 -117,-28 -149,15 -27,36 -13,87 6,128 15,35 35,70 68,88 23,13 49,17 75,20 71,9 144,13 216,13 84,-1 185,34 254,86 -89,-165 -302,-284 -470,-350z"/>
     <path class="fil9 str1" d="M1746 3361c64,3 128,7 189,25 62,19 302,129 339,176"/>
    </g>
    <g>
     <path class="fil13" d="M4271 2025c-2,7 -2,15 -2,22 0,34 14,67 0,101 -8,23 -25,41 -38,61 -3,5 -6,9 -8,14 -30,57 -19,93 0,128 7,15 16,29 24,45 12,24 21,51 20,86 -1,22 -6,47 -17,76 -2,6 0,12 6,15 5,3 11,3 15,0 39,-31 57,-64 68,-97 28,-93 -14,-189 107,-256 26,-15 48,-18 65,-32 8,-7 15,-16 21,-31 11,-29 7,-61 11,-94 14,-90 108,-97 179,-140 58,-33 70,-107 82,-168 14,-76 87,-112 123,-177 36,-64 12,-168 -86,-181 -99,-16 -177,58 -243,110 -18,14 -32,29 -43,46 -35,52 -45,116 -66,178 -12,37 -30,73 -55,103 -15,18 -31,35 -51,49 -4,3 -9,7 -13,10 -47,35 -87,69 -99,132z"/>
     <g>
      <g>
       <path class="fil12" d="M4859 1437c-68,37 -135,78 -159,156 -11,36 -15,74 -30,108 -10,22 -25,38 -42,54 -13,10 -25,21 -32,37 -7,17 -5,38 -9,56 -4,21 -14,39 -27,55 -21,29 -48,53 -68,82 -22,33 -21,78 -50,105 -27,24 -61,37 -86,66 -63,75 -61,180 -60,272 1,6 7,9 7,2 -2,-93 -4,-199 64,-271 25,-27 60,-39 85,-65 24,-26 23,-65 41,-94 32,-52 93,-89 103,-154 4,-29 4,-52 27,-73 12,-11 25,-21 35,-34 21,-26 29,-60 37,-92 10,-45 22,-88 55,-123 32,-33 73,-55 113,-77 4,-2 1,-13 -4,-10z"/>
      </g>
     </g>
    </g>
    <g>
     <path class="fil10" d="M3983 3403c76,43 107,146 170,171 78,33 106,-55 234,-24 107,26 132,150 316,124 56,-8 96,-52 79,-110 -12,-57 -87,-97 -131,-129 -39,-25 -74,-40 -95,-84 0,0 -1,-1 -1,-1 -14,-36 -5,-67 -41,-94 -85,-71 -202,25 -302,15 -71,-7 -64,-80 -148,-107 -84,-27 -61,50 -234,-30 -6,-3 -13,0 -16,6 -2,4 -1,9 2,13 115,138 55,187 167,250z"/>
     <path class="fil11" d="M3983 3403c76,43 107,146 170,171 78,33 106,-55 234,-24 107,26 132,150 316,124 56,-8 96,-52 79,-110 -12,-57 -87,-97 -131,-129 -39,-25 -74,-40 -95,-84 0,0 -1,-1 -1,-1 -14,-36 -5,-67 -41,-94 -85,-71 -202,25 -302,15 -71,-7 -64,-80 -148,-107 -84,-27 -61,50 -234,-30 -6,-3 -13,0 -16,6 -2,4 -1,9 2,13 115,138 55,187 167,250z"/>
     <g>
      <g>
       <path class="fil12" d="M3894 3227c67,41 102,122 176,153 40,16 76,-1 116,6 37,6 57,40 89,55 35,15 73,-4 108,7 39,12 68,43 98,69 58,51 127,82 205,87 5,0 3,-11 -1,-11 -88,-5 -156,-45 -220,-102 -23,-20 -46,-41 -75,-52 -39,-15 -83,8 -120,-12 -27,-14 -45,-41 -75,-50 -39,-11 -78,8 -118,-5 -78,-27 -114,-114 -182,-155 -5,-3 -5,8 -1,10z"/>
      </g>
     </g>
    </g>
    <g>
     <g>
      <path class="fil2" d="M1267 3195c0,0 -331,-73 -586,-46 -8,1 2,-49 2,-49 0,0 -53,56 -66,58 -140,22 -277,70 -370,165 0,0 170,-696 1098,-593l-78 465z"/>
     </g>
     <g>
      <path class="fil3" d="M1460 3232c0,0 -149,-67 -334,-211 -7,-6 26,-51 26,-51 0,0 -74,12 -86,2 -213,-179 -456,-455 -578,-844 0,0 203,9 488,113 12,4 45,65 45,65 0,0 13,-43 23,-39 261,105 578,290 867,612l-451 353z"/>
     </g>
     <g>
      <g>
       <path class="fil4" d="M488 2138c124,55 244,121 362,190 117,70 230,147 341,227 55,40 108,83 162,125l78 66c13,11 26,22 39,33l38 35c102,91 196,190 286,292l-72 -72 -36 -36c-13,-12 -25,-24 -38,-35l-74 -70 -76 -68c-51,-45 -105,-87 -157,-131 -54,-41 -107,-84 -162,-123 -109,-81 -222,-157 -337,-230 -58,-36 -116,-71 -175,-105 -59,-34 -119,-67 -179,-98z"/>
      </g>
      <g>
       <path class="fil4" d="M1265 2622c-34,-8 -68,-15 -101,-22 -34,-8 -68,-14 -101,-20 -34,-6 -68,-9 -102,-13 -34,-3 -68,-4 -103,-4 34,-8 69,-11 104,-11 35,0 69,3 104,9 68,12 136,31 199,61z"/>
      </g>
      <g>
       <path class="fil4" d="M939 2399c-25,-1 -48,-2 -72,-3 -24,-1 -48,-1 -71,-1 -24,1 -48,2 -71,4 -24,2 -48,6 -71,10 22,-9 45,-16 69,-21 24,-4 48,-6 72,-6 49,-1 97,4 144,17z"/>
      </g>
      <g>
       <path class="fil4" d="M1559 2870c-30,-13 -61,-23 -92,-32 -31,-8 -63,-14 -95,-17 -32,-4 -64,-5 -96,-3 -32,1 -64,6 -97,10 31,-12 63,-22 96,-26 33,-5 66,-4 99,-1 33,4 66,11 97,23 31,11 61,26 88,46z"/>
      </g>
      <g>
       <path class="fil4" d="M1265 2622c-25,-41 -50,-80 -78,-117 -14,-19 -29,-37 -44,-54 -16,-18 -33,-34 -49,-51 21,10 42,24 59,40 19,16 35,34 50,53 14,20 27,40 37,62 11,21 20,44 25,67z"/>
      </g>
      <g>
       <path class="fil4" d="M1555 2863c-13,-26 -26,-51 -39,-76 -13,-25 -27,-50 -41,-74 -15,-25 -30,-48 -46,-71 -17,-23 -34,-45 -54,-66 25,15 47,34 66,56 19,22 36,46 51,71 29,50 52,103 63,160z"/>
      </g>
     </g>
     <g>
      <g>
       <path class="fil12" d="M390 3171c42,-58 100,-103 162,-139 62,-37 130,-62 199,-80l53 -11c17,-4 35,-6 53,-8 35,-5 71,-6 107,-7 18,-1 36,1 54,1l53 3c36,4 71,9 106,15 -36,-1 -71,-4 -106,-5l-53 0c-18,0 -36,-1 -53,1 -36,3 -71,4 -106,11 -17,2 -35,4 -52,8l-51 11c-68,17 -135,41 -197,74 -16,8 -31,16 -46,26 -7,5 -15,9 -22,14l-22 16c-28,20 -55,43 -79,70z"/>
      </g>
     </g>
     <g>
      <g>
       <path class="fil12" d="M963 2935c-19,31 -38,60 -54,91 -8,15 -15,31 -21,47 -6,16 -10,33 -14,51 -9,-36 1,-75 17,-108 9,-16 19,-31 31,-45 12,-14 25,-26 41,-36z"/>
      </g>
     </g>
    </g>
    <g>
     <polygon class="fil15" points="2975,3536 2426,3536 2426,3158 2975,3158 "/>
     <polygon class="fil16" points="2975,3295 2426,3295 2426,3158 2975,3158 "/>
     <path class="fil15" d="M3258 3530l-1114 0c-36,0 -64,29 -64,64 0,35 28,63 64,63l1114 0c35,0 63,-28 63,-63 0,-35 -28,-64 -63,-64z"/>
     <path class="fil16" d="M3321 3594c0,35 -28,63 -63,63l-1114 0c-36,0 -64,-28 -64,-63 0,-6 1,-11 2,-16 7,28 32,49 62,49l1114 0c30,0 55,-21 61,-49 2,5 2,10 2,16z"/>
     <g>
      <g>
       <g>
        <path class="fil17" d="M983 3211c-21,0 -39,-17 -39,-39l0 -2268c0,-22 18,-39 39,-39l3435 0c21,0 39,17 39,39l0 2268c0,22 -18,39 -39,39l-3435 0z"/>
        <path class="fil15" d="M4418 893c6,0 11,5 11,11l0 2268c0,6 -5,11 -11,11l-3435 0c-6,0 -11,-5 -11,-11l0 -2268c0,-6 5,-11 11,-11l3435 0zm0 -56l0 0 -3435 0c-37,0 -67,30 -67,67l0 2268c0,37 30,67 67,67l3435 0c37,0 67,-30 67,-67l0 -2268c0,-37 -30,-67 -67,-67z"/>
       </g>
      </g>
      <g>
       <path class="fil15" d="M4485 3167l0 -221 -3569 0 0 221c0,42 34,76 76,76l3417 0c42,0 76,-34 76,-76z"/>
      </g>
     </g>
     <g>
      <path class="fil18" d="M2976 1349c0,152 -123,275 -275,275 -152,0 -275,-123 -275,-275 0,-152 123,-275 275,-275 152,0 275,123 275,275z"/>
      <path class="fil2" d="M2807 1286c0,59 -48,107 -106,107 -59,0 -107,-48 -107,-107 0,-58 48,-106 107,-106 58,0 106,48 106,106zm54 286c-45,33 -100,52 -160,52 -60,0 -116,-19 -161,-52l0 -26c0,-71 58,-128 128,-128l65 0c71,0 128,57 128,128l0 26z"/>
     </g>
     <path class="fil18" d="M3359 1937l-1316 0c-61,0 -109,-49 -109,-109 0,-60 48,-109 109,-109l1316 0c60,0 109,49 109,109 0,60 -49,109 -109,109z"/>
     <path class="fil2" d="M3313 1857l-1225 0c-15,0 -28,-13 -28,-29 0,-16 13,-28 28,-28l1225 0c16,0 29,12 29,28 0,16 -13,29 -29,29z"/>
     <path class="fil18" d="M3360 2328l-1316 0c-60,0 -109,-48 -109,-108 0,-61 49,-109 109,-109l1316 0c60,0 109,48 109,109 0,60 -49,108 -109,108z"/>
     <path class="fil2" d="M2077 2250c-15,0 -28,-13 -28,-29 0,-15 13,-28 28,-28 16,0 29,13 29,28 0,16 -13,29 -29,29zm113 -29l0 0c0,-15 -12,-28 -28,-28 -16,0 -29,13 -29,28 0,16 13,29 29,29 16,0 28,-13 28,-29zm85 0l0 0c0,-15 -13,-28 -29,-28 -15,0 -28,13 -28,28 0,16 13,29 28,29 16,0 29,-13 29,-29zm84 0l0 0c0,-15 -12,-28 -28,-28 -16,0 -29,13 -29,28 0,16 13,29 29,29 16,0 28,-13 28,-29zm85 0l0 0c0,-15 -13,-28 -29,-28 -15,0 -28,13 -28,28 0,16 13,29 28,29 16,0 29,-13 29,-29zm84 0l0 0c0,-15 -12,-28 -28,-28 -16,0 -29,13 -29,28 0,16 13,29 29,29 16,0 28,-13 28,-29zm85 0l0 0c0,-15 -13,-28 -29,-28 -15,0 -28,13 -28,28 0,16 13,29 28,29 16,0 29,-13 29,-29z"/>
     <path class="fil2" d="M2888 2739l-374 0c-60,0 -109,-49 -109,-109 0,-60 49,-109 109,-109l374 0c60,0 108,49 108,109 0,60 -48,109 -108,109z"/>
    </g>
    <path class="fil19" d="M4081 3237l0 -124c0,-41 -34,-75 -74,-75l-7 0 0 -115c0,-169 -138,-307 -307,-307 -170,0 -308,138 -308,307l0 115 -6 0c-41,0 -74,34 -74,75l0 124 776 0zm-594 -314l0 0c0,-113 92,-206 206,-206 113,0 205,93 205,206l0 115 -411 0 0 -115z"/>
    <path class="fil19" d="M4226 2071c-30,-25 -67,-40 -111,-44 -1,-4 -1,-8 0,-13 22,-4 42,-24 53,-51 31,-29 52,-66 42,-112 -1,-3 0,-5 1,-7 -13,-23 -38,-35 -65,-59 -91,-82 -198,32 -158,79 4,4 8,13 12,26 0,0 0,0 0,1 -2,8 -1,23 6,31 1,4 1,9 1,14 0,0 1,0 1,1 1,7 4,13 7,19 6,22 19,45 47,54 2,1 4,2 6,2 2,7 2,10 1,15 -27,3 -51,12 -72,25 -174,83 -345,354 -326,413 18,60 66,129 99,176l5 -1c2,9 5,18 7,27 2,5 3,9 7,12 4,4 11,4 18,4 7,0 16,-1 21,-6 4,-3 6,-7 7,-12 3,-11 0,-24 -6,-34l4 -1c0,0 -75,-112 -72,-180 1,-25 59,-84 106,-128 -1,16 -1,31 -1,47l-23 544c0,0 20,3 51,8l31 325 123 0 2 -306c2,0 4,0 5,1 2,0 3,0 5,0 6,0 12,1 18,1 2,0 4,0 6,0 2,1 4,1 7,1l12 303 121 0 25 -309c0,0 0,0 0,0 5,-1 10,-2 15,-3 2,0 4,0 6,-1 4,-1 8,-2 12,-3 2,0 4,-1 6,-1 4,-2 8,-3 11,-4 2,-1 4,-1 5,-2 6,-2 10,-4 15,-6l-2 -588c0,-13 -1,-25 -1,-37 -1,-1 -1,-2 -1,-3 0,-11 -1,-22 -3,-33 0,-1 0,-2 0,-3 0,-1 0,-2 -1,-3 24,5 56,11 96,18 27,4 53,2 77,-5l0 -119c-101,11 -215,-47 -258,-73z"/>
    <g>
     <path class="fil20" d="M2759 2211c0,104 -84,189 -189,189 -104,0 -189,-85 -189,-189 0,-105 85,-189 189,-189 105,0 189,84 189,189z"/>
     <path class="fil21" d="M2673 2211c0,56 -46,102 -103,102 -56,0 -102,-46 -102,-102 0,-57 46,-103 102,-103 57,0 103,46 103,103z"/>
    </g>
    <g>
     <path class="fil22" d="M3616 2616c-169,0 -307,138 -307,307l0 296 614 0 0 -296c0,-169 -137,-307 -307,-307zm-206 501l0 0 0 -194c0,-113 93,-206 206,-206 113,0 206,93 206,206l0 194 -412 0z"/>
     <path class="fil23" d="M3616 2677c-135,0 -245,110 -245,245l0 236 490 0 0 -236c0,-135 -110,-245 -245,-245zm206 440l0 0 -412 0 0 -194c0,-113 93,-206 206,-206 113,0 206,93 206,206l0 194z"/>
     <path class="fil24" d="M3928 3657l-624 0c-42,0 -76,-33 -76,-75l0 -468c0,-42 34,-76 76,-76l624 0c42,0 76,34 76,76l0 468c0,42 -34,75 -76,75z"/>
     <path class="fil22" d="M3729 3305c0,-62 -51,-113 -113,-113 -62,0 -113,51 -113,113 0,44 25,81 61,100l0 122 104 0 0 -122c36,-19 61,-56 61,-100z"/>
     <path class="fil25" d="M3930 3038l-187 0c-40,127 -104,247 -184,351 -75,98 -193,221 -327,219 10,29 38,49 70,49l628 0c41,0 74,-33 74,-74l0 -470c0,-41 -33,-75 -74,-75z"/>
    </g>
    <g>
     <path class="fil26" d="M3691 2616c5,17 10,34 15,51 1,5 3,9 6,12 5,4 12,4 18,4 8,0 16,-1 22,-6 3,-3 5,-7 6,-12 3,-12 -1,-26 -7,-37 -7,-11 -16,-20 -25,-29l-35 17z"/>
     <path class="fil26" d="M4610 2027c6,-23 14,-47 24,-69 5,7 5,16 4,25 5,-13 15,-23 27,-29 1,-1 3,-1 5,-1 1,1 2,3 2,5 5,18 3,38 -6,55 -8,16 -23,30 -40,37l-16 -23z"/>
     <path class="fil2" d="M4108 3616c43,11 80,24 99,41l-167 0 3 -38 65 -3z"/>
     <path class="fil2" d="M3903 3616c-43,11 -80,24 -100,41l168 0 -3 -38 -65 -3z"/>
     <g>
      <g>
       <path class="fil27" d="M4196 2641l-79 982c0,0 -28,7 -37,7 -5,0 -14,-2 -22,-3 -9,-2 -17,-4 -17,-4l-30 -742 -37 0 -7 742c0,0 -19,6 -40,6 -20,0 -44,-6 -44,-6l-94 -1007 407 25z"/>
      </g>
     </g>
     <g>
      <path class="fil28" d="M4045 2632l-139 -9c-2,181 25,827 28,1006 18,-1 33,-6 33,-6l7 -742 37 0 30 742c0,0 8,2 17,4 3,0 6,1 8,1 0,-202 -18,-913 -21,-996z"/>
     </g>
     <g>
      <path class="fil29" d="M3930 1936c1,0 1,0 1,1 6,32 37,49 71,58 28,8 34,11 57,-5 46,-33 87,-78 74,-139 -1,-3 0,-5 1,-7 -13,-23 -37,-35 -64,-59 -91,-82 -199,32 -158,79 6,8 19,41 18,72z"/>
     </g>
     <path class="fil30" d="M4240 2329c0,-187 -77,-303 -225,-303 -148,0 -226,156 -226,343l-23 544c0,0 345,68 476,4l-2 -588z"/>
     <path class="fil31" d="M4240 2329c0,-52 -6,-99 -18,-139 -13,203 -31,744 -333,742 112,14 273,24 353,-15l-2 -588z"/>
     <path class="fil26" d="M4091 1914c-6,-37 -39,-74 -79,-55 -25,12 -52,14 -73,3 0,7 -1,17 -2,28 -4,-8 -12,-10 -14,1 -2,10 1,31 12,34 0,2 0,4 0,6 1,27 12,71 57,81 2,10 1,13 -2,26 3,9 37,14 49,4 -1,-12 -1,-17 -1,-28 26,-5 48,-31 58,-64 40,-22 12,-63 -5,-36z"/>
     <path class="fil32" d="M4091 1914c-3,-15 -9,-29 -18,-40 1,63 -26,123 -88,136 2,1 4,2 7,2 2,10 1,13 -2,26 3,9 37,14 49,4 -1,-12 -1,-17 -1,-28 26,-5 48,-31 58,-64 40,-22 12,-63 -5,-36z"/>
     <path class="fil30" d="M3920 2052c-174,83 -345,354 -326,413 19,60 67,129 99,176l63 -11c0,0 -75,-112 -72,-180 2,-42 167,-181 167,-181l69 -217z"/>
     <path class="fil30" d="M4134 2061c27,20 253,155 378,35 90,-86 99,-103 99,-103l31 55c0,0 -141,248 -311,220 -171,-29 -175,-38 -175,-38l-22 -169z"/>
    </g>
    <g>
     <path class="fil19" d="M1332 3125c-65,18 -120,61 -155,117l461 0c-35,-56 -90,-99 -155,-117l0 -1128 -151 0 0 18 -161 0 0 136 161 0 0 32 -161 0 0 136 161 0 0 806z"/>
     <g>
      <polygon class="fil24" points="1270,2151 1463,2151 1463,2015 1270,2015 "/>
      <polygon class="fil24" points="1270,2319 1463,2319 1463,2183 1270,2183 "/>
      <polygon class="fil33" points="1414,2151 1463,2151 1463,2015 1414,2015 "/>
      <polygon class="fil33" points="1414,2319 1463,2319 1463,2183 1414,2183 "/>
      <polygon class="fil24" points="1431,3177 1581,3177 1581,1997 1431,1997 "/>
      <path class="fil33" d="M1504 3218l4 0c5,0 10,-5 10,-10l0 -1161c0,-5 -5,-10 -10,-10l-4 0c-5,0 -9,5 -9,10l0 1161c0,5 4,10 9,10z"/>
      <g>
       <path class="fil24" d="M1234 3386c0,-150 122,-272 272,-272 150,0 272,122 272,272 0,150 -122,271 -272,271 -150,0 -272,-121 -272,-271zm140 0l0 0c0,72 59,131 132,131 73,0 132,-59 132,-131 0,-73 -59,-132 -132,-132 -73,0 -132,59 -132,132z"/>
      </g>
      <path class="fil33" d="M1362 3386c0,79 64,144 144,144 80,0 144,-65 144,-144 0,-80 -64,-145 -144,-145 -80,0 -144,65 -144,145zm12 0l0 0c0,-73 59,-132 132,-132 73,0 132,59 132,132 0,72 -59,131 -132,131 -73,0 -132,-59 -132,-131z"/>
     </g>
     <g>
      <path class="fil19" d="M2494 2250c-48,42 -219,222 -251,124 -25,-77 -77,-184 -108,-220 -20,-23 -46,-38 -74,-45l0 -13c30,0 76,-6 76,-113 0,-33 -3,-54 -8,-68 9,-9 8,-27 2,-37 -9,-14 -30,-26 -45,-32 -34,-15 -79,-22 -113,-1 -11,-16 -30,-30 -41,-36 -14,-8 -29,-15 -45,-15 -32,-1 -60,24 -75,52 -11,23 -17,49 -12,75 5,25 21,49 44,59 7,4 15,6 22,5 10,-2 19,-8 26,-16 17,-17 19,-38 32,-57 2,-3 4,-5 7,-7 -4,13 -6,26 -6,38 0,38 13,74 30,106 4,9 9,18 18,24 7,5 27,10 36,5l-4 26c-23,2 -47,9 -70,21 0,0 0,0 0,0 -129,29 -226,346 -399,325l0 1c-21,-6 -44,-8 -45,13 -3,40 22,45 45,42l0 1c72,0 168,-21 252,-114 -46,262 -28,604 -28,604 13,2 25,4 38,5l21 240 110 0 0 -229c22,1 44,2 66,2l3 227 127 0 25 -238c23,-4 45,-7 67,-12 -5,-144 -5,-332 -15,-495 7,6 15,11 24,13 15,4 80,78 126,22 47,-58 146,-176 182,-237 -8,-20 -29,-26 -40,-45z"/>
      <polygon class="fil34" points="2076,2068 2068,2124 2127,2130 2127,2072 "/>
      <path class="fil35" d="M1625 2475c0,0 -77,-38 -79,0 -5,72 79,31 79,31l0 -31z"/>
      <path class="fil26" d="M1636 2464c0,0 -77,-38 -80,0 -4,72 80,31 80,31l0 -31z"/>
      <g>
       <path class="fil26" d="M2023 1983c0,50 52,113 102,113 30,0 78,-4 78,-113 0,-115 -38,-92 -89,-92 -50,0 -91,41 -91,92z"/>
      </g>
      <path class="fil32" d="M2100 2025c0,-42 5,-93 21,-134 -2,0 -5,0 -7,0 -50,0 -91,41 -91,92 0,49 50,111 100,113 -17,-19 -23,-42 -23,-71z"/>
      <path class="fil24" d="M2184 1922c-8,1 -17,-3 -25,0 -12,5 -12,24 -24,30 -14,9 -35,-6 -47,5 -7,7 -6,18 -6,28 2,25 0,51 -8,75 -2,6 6,16 1,20 -7,7 -29,1 -37,-5 -8,-5 -13,-14 -17,-23 -18,-33 -31,-70 -30,-107 0,-37 15,-76 45,-98 34,-24 80,-16 116,0 14,6 36,18 44,32 9,14 7,40 -12,43z"/>
      <path class="fil33" d="M2174 1859c-12,10 -24,29 -33,36 -12,8 -27,10 -41,15 -65,20 -70,119 -41,173 6,1 13,0 16,-3 5,-4 -3,-14 -1,-20 8,-24 10,-50 8,-75 0,-10 -1,-21 6,-28 12,-11 33,4 47,-5 12,-6 12,-25 24,-30 8,-3 17,1 25,0 19,-3 21,-29 12,-43 -4,-8 -13,-15 -22,-20z"/>
      <path class="fil24" d="M1998 1809c-14,-8 -30,-15 -46,-15 -32,-1 -59,24 -74,53 -12,23 -17,50 -12,75 5,26 21,49 44,60 7,4 15,6 22,5 10,-2 18,-8 25,-16 17,-18 20,-39 33,-58 10,-16 32,-9 47,-19 37,-26 -16,-72 -39,-85z"/>
      <path class="fil33" d="M2015 1878c-7,-4 -13,-10 -19,-14 -10,-10 -59,-16 -70,53 -3,21 -19,42 -35,52 6,6 12,10 19,13 7,4 15,6 22,5 10,-2 18,-8 25,-16 17,-18 20,-39 33,-58 10,-16 32,-9 47,-19 5,-4 8,-8 10,-13 -10,4 -20,3 -32,-3z"/>
      <path class="fil22" d="M1982 3616c43,11 80,24 100,41l-168 0 3 -38 65 -3z"/>
      <path class="fil22" d="M2132 3616c43,11 80,24 100,41l-168 0 4 -38 64 -3z"/>
      <path class="fil35" d="M2566 2212c-1,0 -3,-1 -4,-1 -6,-2 -12,3 -17,6 -9,7 -26,21 -34,30 0,0 0,0 0,0 -2,2 -4,4 -6,7 -6,8 -8,20 -2,29 4,7 12,12 20,12 11,0 27,-7 35,-16 8,-9 7,-19 1,-29 -3,-8 -9,-12 -15,-13 7,-4 14,-9 20,-15 1,-1 3,-3 4,-4 0,-2 0,-5 -2,-6z"/>
      <g>
       <g>
        <path class="fil26" d="M2562 2237c6,10 6,20 -2,30 -7,9 -23,15 -35,15 -8,0 -15,-5 -20,-12 -5,-9 -4,-20 2,-29 12,-18 43,-27 55,-4z"/>
       </g>
       <g>
        <path class="fil26" d="M2542 2227c9,-5 17,-11 25,-18 1,-1 2,-2 3,-4 1,-2 0,-4 -2,-5 0,-1 -2,-2 -3,-2 -6,-2 -12,3 -17,7 -9,6 -27,20 -34,29 6,2 23,-4 28,-7z"/>
       </g>
      </g>
      <g>
       <path class="fil22" d="M2329 2380c62,-41 111,-85 168,-135 3,-3 9,-3 12,1 10,12 27,30 25,38 -1,4 -4,8 -7,11 -52,58 -105,116 -157,174 -11,12 -21,24 -34,32 -13,8 -29,13 -44,9 -26,-6 -40,-32 -53,-54 -68,-109 -57,-148 -49,-182 6,-23 13,-46 17,-70 2,-8 -16,-49 -6,-50 31,36 77,145 108,220 3,8 13,11 20,6z"/>
      </g>
      <g>
       <g>
        <path class="fil36" d="M1839 2729l79 895c0,0 28,6 37,6 5,0 14,-2 22,-3 9,-2 17,-3 17,-3l1 -677 65 0 8 677c0,0 20,5 40,5 20,0 44,-5 44,-5l94 -918 -407 23z"/>
       </g>
       <g>
        <path class="fil37" d="M2042 2796c1,30 -1,57 9,85 8,21 27,35 54,35 39,-1 66,-22 66,-62 0,-5 3,-58 5,-58 0,0 -134,0 -134,0z"/>
       </g>
       <g>
        <path class="fil37" d="M1857 2796c0,30 -1,57 7,85 5,22 19,36 37,35 27,0 43,-31 46,-61 1,-5 2,-59 3,-59 0,0 -93,0 -93,0z"/>
       </g>
       <g>
        <path class="fil38" d="M1995 2947c0,0 0,0 0,0 1,0 2,-1 1,-2 -10,-61 -3,-177 -3,-178 0,-1 0,-1 0,-2 -1,0 -1,0 -1,0 -2,0 -106,5 -150,-6 0,0 -1,0 -1,1 -1,1 0,2 1,2 41,10 134,7 148,6 -1,15 -7,121 3,178 0,0 1,1 2,1z"/>
       </g>
       <g>
        <path class="fil38" d="M2008 2947c0,0 0,0 0,0 1,0 2,-1 2,-2 -7,-71 -7,-127 -3,-176 63,-1 138,-9 225,-24 1,-1 1,-1 1,-2 0,-1 -1,-2 -2,-2 -87,16 -163,24 -225,25 -1,0 -2,0 -2,1 -5,50 -4,107 2,179 0,0 1,1 2,1z"/>
       </g>
       <g>
        <path class="fil39" d="M1977 3627c9,-2 17,-3 17,-3l1 -677 5 0c-1,-2 -3,-3 -5,-2 -13,6 -19,15 -27,25 -6,9 -10,19 -10,30 -5,208 7,367 19,627z"/>
       </g>
       <g>
        <path class="fil38" d="M2145 3605c-1,0 -2,-1 -1,-2l1 -13c0,-1 1,-2 2,-2 1,0 1,1 1,2l-1 13c0,1 -1,2 -2,2 0,0 0,0 0,0zm4 -40l0 0c-1,0 -2,0 -1,-1l2 -26c0,-1 1,-2 2,-2 1,0 2,1 1,2l-2 26c0,1 -1,1 -2,1 0,0 0,0 0,0zm5 -52l0 0c-1,0 -1,0 -1,-1l3 -26c0,-1 0,-2 1,-2 1,0 2,1 2,2l-3 26c0,1 -1,1 -2,1 0,0 0,0 0,0zm6 -52l0 0c-1,0 -2,0 -2,-1l3 -26c0,-1 1,-2 2,-2 0,0 1,1 1,2l-3 26c0,1 0,1 -1,1 0,0 0,0 0,0zm5 -52l0 0c-1,0 -2,0 -2,-1l3 -26c0,-1 1,-2 2,-2 1,0 1,1 1,2l-2 26c0,1 -1,1 -2,1 0,0 0,0 0,0zm5 -52l0 0c-1,0 -1,0 -1,-1l2 -26c1,-1 1,-2 2,-2 1,0 2,1 2,2l-3 26c0,1 -1,1 -2,1 0,0 0,0 0,0zm6 -52l0 0c-1,0 -2,0 -2,-1l3 -26c0,-1 1,-2 2,-2 0,0 1,1 1,2l-3 26c0,1 0,1 -1,1 0,0 0,0 0,0zm5 -52l0 0c-1,0 -2,0 -2,-1l3 -26c0,-1 1,-2 2,-2 1,0 1,1 1,2l-2 26c0,1 -1,1 -2,1 0,0 0,0 0,0zm5 -52l0 0c-1,0 -1,0 -1,-1l2 -26c0,-1 1,-2 2,-2 1,0 2,1 2,2l-3 26c0,1 -1,2 -2,2 0,0 0,0 0,-1zm5 -52l0 0c0,0 -1,0 -1,-1l3 -26c0,-1 0,-2 1,-2 0,0 0,0 0,0 1,0 2,1 2,2l-3 26c0,1 -1,2 -1,2 0,0 0,0 -1,-1zm6 -51l0 0c-1,-1 -2,-1 -2,-2l3 -26c0,-1 1,-2 2,-2 1,0 1,1 1,2l-2 26c0,1 -1,2 -2,2 0,0 0,0 0,0zm5 -52l0 0c-1,-1 -1,-1 -1,-2l2 -26c0,-1 1,-2 2,-2 1,0 2,1 2,2l-3 26c0,1 -1,2 -2,2 0,0 0,0 0,0zm5 -52l0 0c0,-1 -1,-1 -1,-2l3 -26c0,-1 1,-2 1,-2 1,0 2,1 2,2l-3 26c0,1 -1,2 -1,2 0,0 -1,0 -1,0zm6 -52l0 0c-1,-1 -2,-1 -2,-2l3 -26c0,-1 1,-2 2,-2 1,0 1,1 1,2l-2 26c-1,1 -1,2 -2,2 0,0 0,0 0,0zm5 -52l0 0c-1,-1 -2,-1 -1,-2l2 -26c0,-1 1,-2 2,-2 1,0 2,1 1,2l-2 26c0,1 -1,2 -2,2 0,0 0,0 0,0zm5 -52l0 0c-1,-1 -1,-1 -1,-2l3 -26c0,-1 0,-2 1,-2 1,0 2,1 2,2l-3 26c0,1 -1,2 -1,2 -1,0 -1,0 -1,0zm6 -52l0 0c-1,-1 -2,-1 -2,-2l3 -26c0,-1 1,-2 2,-2 1,0 1,1 1,2l-3 26c0,1 0,2 -1,2 0,0 0,0 0,0z"/>
       </g>
      </g>
      <path class="fil22" d="M2001 2125c-129,29 -227,346 -399,325l0 57c81,0 191,-26 281,-150 131,-180 118,-232 118,-232z"/>
      <path class="fil40" d="M2001 2125c-129,29 -227,346 -399,325l0 57c81,0 191,-26 281,-150 131,-180 118,-232 118,-232z"/>
      <path class="fil22" d="M2201 2154c79,91 73,552 82,838 -143,30 -296,29 -457,5 0,0 -25,-461 56,-722 54,-177 235,-217 319,-121z"/>
      <path class="fil40" d="M1936 2762c-30,-98 -43,-198 -43,-300 0,-85 2,-178 25,-263 -15,22 -27,47 -36,76 -81,261 -56,722 -56,722 81,12 161,18 238,18 -59,-74 -100,-161 -128,-253z"/>
     </g>
    </g>
    <g>
     <path class="fil11" d="M674 2010c12,0 91,-59 122,-79 8,-6 17,-11 23,-20 6,-8 9,-19 5,-29 -6,-11 -15,-23 -38,-23 -39,0 -53,13 -72,33 -64,66 -40,118 -40,118z"/>
     <path class="fil11" d="M1030 2248c35,15 72,31 109,26 15,-2 31,-9 36,-22 4,-12 -2,-26 -11,-34 -10,-9 -22,-13 -34,-16 -46,-11 -111,-5 -157,8 0,0 37,28 57,38z"/>
     <path class="fil11" d="M1258 1737c-15,-10 -32,-23 -32,-41 0,-19 19,-33 37,-33 18,0 35,10 49,22 58,51 51,110 51,110 0,0 -88,-47 -105,-58z"/>
     <path class="fil11" d="M1304 1581c-14,-6 -28,-13 -35,-25 -4,-6 -7,-14 -4,-21 4,-11 11,-21 39,-16 91,16 111,78 111,78 0,0 -87,-6 -111,-16z"/>
     <path class="fil11" d="M1569 1718c36,-3 73,-21 96,-50 9,-10 17,-22 20,-36 2,-13 -1,-29 -11,-37 -13,-11 -33,-10 -47,0 -14,9 -23,24 -30,39 -10,20 -28,84 -28,84z"/>
     <path class="fil8 str2" d="M922 3039c-88,-77 -176,-154 -264,-232 -47,-41 -94,-83 -124,-138 -64,-118 -27,-272 59,-374 86,-103 212,-164 339,-208 126,-44 258,-75 379,-134 75,-36 151,-91 172,-172 12,-49 2,-104 -28,-144 -30,-41 -78,-68 -129,-71"/>
     <path class="fil8 str2" d="M1630 1634c-24,73 -117,118 -160,182"/>
     <path class="fil8 str2" d="M1295 1718c18,20 40,36 56,57 34,45 37,119 -13,164"/>
     <path class="fil8 str2" d="M822 2130c77,60 179,100 277,104"/>
     <path class="fil8 str2" d="M645 2239c-36,-105 3,-231 92,-298"/>
    </g>
    <g>
     <path class="fil11" d="M3713 795c-4,-13 -4,-29 6,-39 7,-7 20,-11 30,-6 77,34 68,154 68,154 0,0 -72,-11 -104,-109z"/>
     <path class="fil11" d="M3711 1020c-49,90 127,83 191,30 0,0 -148,-107 -191,-30z"/>
     <path class="fil11" d="M3934 802c-12,-16 -16,-41 -3,-57 10,-11 27,-15 42,-12 15,3 37,17 46,28 58,73 31,144 31,144 0,0 -96,-76 -116,-103z"/>
     <path class="fil11" d="M4635 1025c-4,-14 -3,-31 8,-41 7,-6 16,-9 26,-8 9,1 18,4 26,8 18,8 32,23 41,41 22,45 7,101 7,101 0,0 -97,-66 -108,-101z"/>
     <path class="fil11" d="M4415 1190c-31,-27 -79,-36 -117,-19 -10,4 -19,10 -25,19 -14,19 -9,48 5,67 15,19 37,30 58,40 39,18 100,21 142,32 0,0 0,-83 -63,-139z"/>
     <path class="fil8 str2" d="M3768 814c26,86 100,150 181,185 82,35 172,44 261,50 89,5 178,8 264,32 84,22 167,70 203,149 43,96 5,211 -56,297 -62,86 -144,155 -204,243 -27,40 -50,87 -44,135 7,65 61,112 111,153"/>
     <path class="fil8 str2" d="M3973 783c58,65 105,167 117,255"/>
     <path class="fil8 str2" d="M3775 1035c34,9 68,18 102,18 35,0 75,-19 100,-43"/>
     <path class="fil8 str2" d="M4693 1030c31,31 50,74 52,117 2,44 -23,98 -52,130"/>
     <path class="fil8 str2" d="M4363 1229c63,58 118,105 188,155 32,22 95,51 123,44"/>
    </g>
   </g>
  </g>
 </g>
</svg>
