<?xml version="1.0" encoding="UTF-8"?>
<!DOCTYPE svg PUBLIC "-//W3C//DTD SVG 1.1//EN" "http://www.w3.org/Graphics/SVG/1.1/DTD/svg11.dtd">
<!-- Creator: CorelDRAW X7 -->
<svg xmlns="http://www.w3.org/2000/svg" xml:space="preserve" width="3.82in" height="3.831in" version="1.1" style="shape-rendering:geometricPrecision; text-rendering:geometricPrecision; image-rendering:optimizeQuality; fill-rule:evenodd; clip-rule:evenodd"
viewBox="0 0 3820 3831"
 xmlns:xlink="http://www.w3.org/1999/xlink">
 <defs>
  <style type="text/css">
   <![CDATA[
    .str0 {stroke:#ED3237;stroke-width:3}
    .fil1 {fill:#FEFEFE;fill-rule:nonzero}
    .fil3 {fill:#F26836;fill-rule:nonzero}
    .fil17 {fill:#F16438;fill-rule:nonzero}
    .fil2 {fill:#FBF38F;fill-rule:nonzero}
    .fil22 {fill:#F7F7F8;fill-rule:nonzero}
    .fil23 {fill:#F7F5F5;fill-rule:nonzero}
    .fil20 {fill:#ECF7F9;fill-rule:nonzero}
    .fil18 {fill:#E9F0F6;fill-rule:nonzero}
    .fil25 {fill:#E9ECF1;fill-rule:nonzero}
    .fil11 {fill:#E8F5F7;fill-rule:nonzero}
    .fil26 {fill:#E2F3F6;fill-rule:nonzero}
    .fil31 {fill:#E2E3E3;fill-rule:nonzero}
    .fil12 {fill:#E2DBD5;fill-rule:nonzero}
    .fil32 {fill:#D85E38;fill-rule:nonzero}
    .fil24 {fill:#E0E1E2;fill-rule:nonzero}
    .fil21 {fill:#CCEAEF;fill-rule:nonzero}
    .fil15 {fill:#BDB8B2;fill-rule:nonzero}
    .fil14 {fill:#BEC859;fill-rule:nonzero}
    .fil9 {fill:#ACADAC;fill-rule:nonzero}
    .fil13 {fill:#ADCB6A;fill-rule:nonzero}
    .fil19 {fill:#70BFC9;fill-rule:nonzero}
    .fil30 {fill:#5CAEB7;fill-rule:nonzero}
    .fil16 {fill:#55B2C1;fill-rule:nonzero}
    .fil27 {fill:#5E9CA2;fill-rule:nonzero}
    .fil6 {fill:#4B4B4B;fill-rule:nonzero}
    .fil29 {fill:#50A6B0;fill-rule:nonzero}
    .fil10 {fill:#3B3C3C;fill-rule:nonzero}
    .fil28 {fill:#4B939F;fill-rule:nonzero}
    .fil33 {fill:#536473;fill-rule:nonzero}
    .fil0 {fill:#506373;fill-rule:nonzero}
    .fil4 {fill:#47525A;fill-rule:nonzero}
    .fil5 {fill:#3D4549;fill-rule:nonzero}
    .fil7 {fill:#45515A;fill-rule:nonzero}
    .fil8 {fill:#3E4952;fill-rule:nonzero}
    .fil34 {fill:#2E414E;fill-rule:nonzero}
   ]]>
  </style>
 </defs>
 <g id="Layer_x0020_1">
  <metadata id="CorelCorpID_0Corel-Layer"/>
  <path class="fil0" d="M2001 852c3,1 5,1 8,2 24,9 41,-4 44,-22 15,-20 18,-8 24,4 4,9 9,18 22,14 29,-11 71,-38 105,-53 35,-16 -41,-9 -102,-18 -62,-9 -147,7 -172,22 -22,14 35,42 71,51z"/>
  <path class="fil1 str0" d="M1871 377l0 -9c13,0 26,0 39,0l2 0 0 9 -2 0c-13,0 -26,0 -39,0zm122 2c-13,-1 -27,-1 -41,-2l1 -9c13,1 27,1 41,2l-1 9zm-203 2l-1 -9c14,-1 28,-2 41,-2l1 9c-14,0 -28,1 -41,2zm284 4c-13,-1 -27,-2 -40,-4l0 -9c14,2 28,3 41,4l-1 9zm-365 4l-1 -9c13,-1 27,-3 41,-4l0 9c-13,1 -27,3 -40,4zm446 7c-14,-3 -27,-4 -40,-6l1 -9c13,2 27,3 40,6l-1 9zm-526 6l-2 -9c13,-3 27,-5 40,-7l2 9c-13,2 -27,4 -40,7zm606 8c-13,-3 -27,-5 -40,-8l1 -9c14,3 27,5 41,8l-2 9zm-686 8l-2 -9c13,-3 27,-6 40,-8l2 9c-13,2 -27,5 -40,8zm765 11c-13,-4 -26,-7 -40,-10l3 -9c13,3 26,7 39,10l-2 9zm-844 10l-2 -9c13,-4 26,-7 39,-11l3 9c-13,3 -27,7 -40,11zm922 13c-13,-5 -26,-9 -39,-12l3 -9c13,4 26,8 39,12l-3 9zm-999 11l-3 -8c13,-5 26,-9 39,-13l3 9c-13,4 -26,8 -39,12zm1076 15c-13,-4 -26,-9 -38,-14l3 -8c12,4 25,9 38,14l-3 8zm-1152 14l-3 -8c12,-5 25,-10 38,-15l3 8c-13,5 -26,10 -38,15zm1227 17c-12,-5 -25,-11 -37,-16l3 -8c13,5 26,10 38,16l-4 8zm-1301 16l-4 -9c12,-5 25,-11 37,-16l4 8c-13,5 -25,11 -37,17zm1375 19c-12,-6 -24,-12 -37,-18l4 -8c13,6 25,12 37,18l-4 8zm-1448 17l-4 -8c12,-7 24,-13 36,-19l4 8c-12,6 -24,12 -36,19zm1520 21c-12,-6 -24,-13 -36,-19l5 -8c12,6 24,13 35,20l-4 7zm-1590 19l-5 -8c11,-7 23,-14 35,-21l5 8c-12,7 -24,14 -35,21zm1660 23c-12,-7 -23,-14 -35,-21l5 -8c11,7 23,15 35,22l-5 7zm-1729 20l-5 -7c11,-8 23,-15 34,-23l5 8c-11,7 -23,15 -34,22zm1796 26c-11,-8 -22,-16 -33,-23l5 -8c11,8 22,16 33,24l-5 7zm-1862 21l-6 -7c11,-8 22,-16 33,-24l6 7c-11,8 -22,16 -33,24zm1927 28c-11,-8 -21,-17 -32,-25l5 -7c11,8 22,17 33,25l-6 7zm-1991 23l-6 -7c11,-9 21,-18 32,-26l6 7c-11,8 -22,17 -32,26zm2053 29c-10,-9 -20,-18 -31,-26l6 -7c11,9 21,18 31,27l-6 6zm-2114 24l-6 -7c10,-9 20,-18 30,-27l6 7c-10,9 -20,18 -30,27zm2174 32c-10,-10 -20,-19 -30,-28l7 -7c10,9 20,19 29,28l-6 7zm-2232 25l-7 -7c10,-9 19,-19 29,-28l7 6c-10,9 -20,19 -29,29zm2289 33c-10,-10 -19,-20 -28,-30l6 -6c10,10 19,20 28,30l-6 6zm-2345 26l-6 -6c9,-10 18,-20 27,-30l7 6c-9,10 -19,20 -28,30zm2398 35c-9,-10 -17,-21 -26,-31l7 -6c8,10 17,21 26,31l-7 6zm-2450 28l-7 -6c9,-11 17,-21 26,-32l7 6c-9,11 -17,21 -26,32zm2500 36c-8,-11 -16,-22 -24,-32l7 -6c8,11 17,22 25,32l-8 6zm-2549 29l-7 -6c8,-11 16,-22 24,-33l7 6c-8,11 -16,22 -24,33zm2596 37c-7,-11 -15,-22 -23,-33l8 -6c8,11 15,23 23,34l-8 5zm-2641 30l-8 -5c7,-11 15,-23 22,-34l8 5c-8,11 -15,23 -22,34zm2685 39c-7,-12 -14,-24 -21,-35l7 -5c8,12 15,23 22,35l-8 5zm-2727 31l-8 -5c6,-11 13,-23 20,-35l8 5c-7,11 -14,23 -20,35zm2767 39c-6,-12 -13,-24 -20,-35l8 -5c7,12 13,24 20,36l-8 4zm-2806 33l-8 -4c6,-13 12,-25 19,-37l8 4c-7,12 -13,25 -19,37zm2842 40c-6,-12 -12,-25 -18,-37l8 -4c7,12 13,25 18,37l-8 4zm-2877 33l-8 -3c6,-13 11,-25 17,-38l8 4c-5,13 -11,25 -17,37zm2909 41c-5,-12 -10,-25 -15,-37l8 -4c5,12 11,25 16,38l-9 3zm-2939 35l-9 -3c5,-13 10,-26 15,-39l9 4c-6,12 -11,25 -15,38zm2968 41c-4,-13 -9,-25 -14,-38l9 -3c4,12 9,25 14,38l-9 3zm-2995 36l-9 -3c4,-13 9,-26 13,-39l9 3c-5,13 -9,26 -13,39zm3020 42c-4,-13 -8,-26 -12,-39l8 -3c5,13 9,26 12,39l-8 3zm-3043 36l-9 -2c4,-14 7,-27 11,-40l9 3c-4,13 -8,26 -11,39zm3063 42c-3,-13 -6,-26 -10,-39l9 -3c4,14 7,27 10,40l-9 2zm-3082 37l-8 -2c2,-13 5,-27 8,-40l9 2c-3,13 -6,27 -9,40zm3099 43c-3,-13 -5,-27 -8,-40l9 -2c3,13 5,27 8,40l-9 2zm-3113 37l-9 -1c2,-14 4,-27 7,-41l9 2c-3,13 -5,27 -7,40zm3125 43c-2,-13 -4,-27 -6,-40l9 -1c2,13 4,27 6,40l-9 1zm-3136 38l-9 -1c2,-14 3,-27 5,-41l9 1c-2,14 -3,27 -5,41zm3144 43c-1,-13 -2,-27 -3,-40l9 -1c1,13 2,27 3,40l-9 1zm-3150 38l-9 -1c1,-13 2,-27 3,-41l9 1c-1,14 -2,27 -3,41zm3154 43c0,-13 -1,-27 -1,-40l9 -1c0,14 1,27 1,41l-9 0zm-3156 38l-9 0c0,-14 0,-27 1,-41l9 0c-1,14 -1,27 -1,41zm3165 42l-9 0c0,-14 1,-28 1,-41l9 0c0,14 -1,27 -1,41zm-3172 40c-1,-14 -1,-28 -1,-41l9 0c0,13 0,27 1,40l-9 1zm3168 41l-9 0c1,-14 2,-27 3,-41l9 1c-1,13 -2,27 -3,40zm-3162 40c-1,-13 -2,-27 -3,-40l9 -1c1,13 2,27 3,40l-9 1zm3154 42l-9 -1c1,-14 3,-27 4,-41l9 1c-1,14 -3,27 -4,41zm-3143 39c-2,-13 -4,-27 -6,-40l9 -1c2,13 3,27 6,40l-9 1zm3130 42l-9 -2c3,-13 5,-27 7,-40l9 1c-2,14 -4,27 -7,41zm-3116 39c-3,-13 -5,-27 -8,-40l9 -2c3,13 5,27 8,40l-9 2zm3100 41l-9 -2c3,-14 6,-27 9,-40l8 2c-2,13 -5,26 -8,40zm-3081 38c-4,-13 -7,-26 -10,-39l9 -2c3,13 6,26 10,39l-9 2zm3060 41l-9 -3c4,-13 7,-26 11,-39l9 2c-4,13 -7,27 -11,40zm-3037 38c-5,-13 -9,-26 -12,-39l8 -3c4,13 8,26 12,39l-8 3zm3012 40l-9 -3c5,-13 9,-26 13,-39l9 3c-4,13 -9,26 -13,39zm-2986 37c-4,-13 -9,-25 -14,-38l9 -3c4,13 9,25 14,38l-9 3zm2957 40l-8 -4c5,-12 10,-25 14,-38l9 3c-5,13 -10,26 -15,39zm-2926 36c-5,-13 -11,-25 -16,-38l9 -3c5,12 10,25 15,37l-8 4zm2893 39l-8 -4c6,-12 11,-25 17,-37l8 3c-6,13 -11,25 -17,38zm-2858 35c-6,-12 -12,-25 -18,-37l8 -4c6,12 12,25 18,37l-8 4zm2821 38l-8 -4c7,-12 13,-24 19,-37l8 4c-6,13 -12,25 -19,37zm-2783 34c-7,-12 -13,-24 -20,-36l8 -4c7,11 13,23 20,35l-8 5zm2743 37l-8 -5c7,-11 14,-23 21,-35l8 5c-7,12 -14,23 -21,35zm-2701 33c-7,-12 -15,-24 -21,-35l7 -5c7,12 14,23 22,35l-8 5zm2657 36l-8 -5c8,-11 15,-23 23,-34l7 5c-7,11 -15,23 -22,34zm-2611 31c-8,-11 -16,-22 -24,-33l8 -5c7,11 15,22 23,33l-7 5zm2563 36l-7 -6c8,-10 16,-22 24,-33l7 6c-7,11 -16,22 -24,33zm-2514 30c-9,-11 -17,-22 -25,-33l7 -5c8,11 16,21 25,32l-7 6zm2463 34l-7 -6c9,-10 18,-21 26,-32l7 6c-8,11 -17,21 -26,32zm-2411 28c-9,-10 -18,-20 -27,-31l7 -5c9,10 18,20 27,30l-7 6zm2357 33l-6 -6c9,-10 18,-20 27,-30l7 6c-9,10 -18,20 -28,30zm-2302 27c-9,-9 -19,-19 -28,-29l7 -6c9,10 18,20 28,29l-7 6zm2245 32l-6 -7c10,-9 19,-19 29,-29l6 7c-9,9 -19,19 -29,29zm-2186 26c-10,-10 -20,-19 -30,-29l6 -6c10,9 20,19 30,28l-6 7zm2126 29l-6 -7c10,-9 21,-18 30,-27l7 7c-10,9 -21,18 -31,27zm-2065 25c-10,-9 -21,-18 -31,-27l6 -7c10,9 21,18 31,27l-6 7zm2002 27l-5 -7c10,-8 21,-17 31,-25l6 7c-10,8 -21,17 -32,25zm-1938 24c-11,-9 -22,-17 -32,-25l5 -8c11,9 22,17 33,25l-6 8zm1873 25l-5 -7c11,-8 22,-16 33,-24l5 7c-11,9 -22,17 -33,24zm-1806 22c-11,-7 -23,-15 -34,-23l5 -8c11,8 23,16 34,24l-5 7zm1738 24l-4 -8c11,-7 22,-14 33,-22l6 8c-12,7 -23,15 -35,22zm-1669 20c-12,-7 -24,-14 -35,-21l5 -8c11,7 23,14 34,21l-4 8zm1599 22l-4 -8c12,-6 23,-13 35,-20l5 8c-12,7 -24,13 -36,20zm-1528 19c-12,-7 -24,-13 -36,-20l5 -8c11,7 23,13 35,20l-4 8zm1456 19l-4 -8c12,-6 25,-12 36,-18l5 8c-12,6 -24,12 -37,18zm-1383 17c-12,-5 -24,-11 -37,-17l4 -9c13,6 25,12 37,18l-4 8zm1310 18l-4 -8c12,-6 25,-11 37,-17l4 8c-13,6 -25,12 -37,17zm-1235 15c-12,-5 -25,-10 -37,-16l3 -8c13,5 25,11 38,16l-4 8zm1159 16l-3 -9c12,-4 25,-9 38,-15l3 9c-13,5 -25,10 -38,15zm-1082 13c-13,-4 -26,-9 -39,-14l4 -8c12,5 25,9 38,14l-3 8zm1005 14l-3 -9c13,-4 26,-8 39,-13l3 9c-13,4 -26,9 -39,13zm-927 11c-13,-4 -26,-8 -39,-12l3 -8c13,4 26,8 39,12l-3 8zm848 11l-2 -8c13,-4 26,-7 39,-11l3 9c-13,3 -27,7 -40,10zm-769 10c-13,-3 -26,-6 -40,-10l3 -9c13,4 26,7 39,10l-2 9zm690 9l-2 -9c13,-3 26,-5 40,-9l2 9c-14,3 -27,6 -40,9zm-610 8c-13,-3 -27,-5 -40,-8l2 -9c13,3 27,5 40,8l-2 9zm529 7l-1 -9c13,-2 27,-5 40,-7l2 9c-14,2 -27,5 -41,7zm-448 5c-13,-1 -27,-3 -41,-5l2 -9c13,2 27,4 40,5l-1 9zm367 5l-1 -9c14,-1 27,-3 41,-5l1 9c-14,2 -27,4 -41,5zm-286 4c-13,-1 -27,-3 -40,-4l1 -9c13,1 27,3 40,4l-1 9zm205 2l-1 -9c14,0 27,-1 41,-2l0 9c-13,1 -27,2 -40,2zm-123 2c-14,-1 -27,-1 -41,-2l1 -9c13,1 27,1 40,2l0 9zm41 0l0 0 0 -9 0 0c14,0 27,0 40,0l1 9c-14,0 -27,0 -41,0z"/>
  <path class="fil1 str0" d="M1866 166l0 -10c14,-1 30,-1 44,-1l2 0 0 10 -2 0c-14,0 -29,1 -44,1zm138 2c-15,-1 -31,-2 -46,-2l0 -10c16,0 31,1 47,2l-1 10zm-230 3l-1 -11c15,-1 31,-2 46,-3l1 11c-15,0 -31,1 -46,3zm322 4c-15,-2 -31,-3 -46,-4l1 -10c15,1 31,2 46,4l-1 10zm-414 5l-1 -10c15,-2 31,-4 46,-6l1 11c-15,1 -31,3 -46,5zm505 7c-15,-3 -30,-5 -45,-7l1 -10c15,2 31,4 46,7l-2 10zm-596 7l-2 -10c15,-3 31,-6 46,-8l2 10c-16,3 -31,5 -46,8zm687 9c-15,-3 -30,-6 -45,-9l2 -10c15,3 30,6 45,9l-2 10zm-777 10l-3 -10c15,-4 31,-7 46,-10l2 10c-15,3 -30,6 -45,10zm867 11c-15,-3 -30,-7 -45,-11l3 -10c15,4 30,8 45,12l-3 9zm-956 12l-3 -10c15,-4 30,-8 44,-12l3 10c-15,3 -30,8 -44,12zm1044 14c-14,-4 -29,-9 -44,-13l3 -10c15,4 30,9 45,14l-4 9zm-1132 14l-4 -10c15,-5 30,-10 44,-15l4 10c-15,5 -30,10 -44,15zm1220 17c-15,-6 -29,-11 -44,-16l4 -10c14,5 29,11 43,16l-3 10zm-1307 15l-3 -9c14,-6 28,-12 43,-17l3 9c-14,6 -28,12 -43,17zm1392 20c-14,-6 -28,-13 -42,-18l4 -10c14,6 28,12 42,18l-4 10zm-1476 17l-4 -9c14,-7 28,-13 42,-19l4 9c-14,6 -28,13 -42,19zm1560 22c-14,-7 -28,-14 -42,-20l5 -9c14,6 28,13 41,20l-4 9zm-1642 19l-5 -9c14,-7 28,-14 41,-21l5 9c-14,7 -27,14 -41,21zm1723 25c-13,-8 -27,-15 -40,-23l5 -9c13,8 27,15 40,23l-5 9zm-1803 20l-5 -8c13,-8 26,-16 40,-24l5 9c-14,8 -27,16 -40,23zm1882 27c-13,-8 -26,-16 -39,-24l5 -9c14,8 27,16 40,25l-6 8zm-1960 23l-5 -9c12,-8 25,-17 38,-25l6 9c-13,8 -26,16 -39,25zm2037 29c-13,-9 -25,-18 -38,-26l6 -9c12,9 25,18 38,27l-6 8zm-2112 24l-6 -8c12,-9 25,-19 37,-28l6 9c-12,9 -25,18 -37,27zm2185 32c-12,-10 -24,-19 -36,-29l6 -8c12,9 25,19 37,29l-7 8zm-2257 25l-7 -8c12,-10 24,-19 36,-29l7 8c-12,10 -24,19 -36,29zm2328 34c-11,-10 -23,-20 -35,-30l7 -8c12,10 23,20 35,30l-7 8zm-2397 27l-7 -8c11,-10 23,-21 34,-31l7 8c-12,10 -23,20 -34,31zm2465 36c-11,-11 -23,-22 -34,-32l7 -8c12,11 23,22 34,32l-7 8zm-2531 28l-8 -7c11,-11 22,-22 33,-33l7 8c-11,10 -22,21 -32,32zm2595 38c-11,-11 -21,-23 -32,-34l8 -7c10,11 21,23 31,34l-7 7zm-2658 30l-8 -7c10,-12 21,-23 31,-35l8 7c-11,12 -21,23 -31,35zm2719 39c-10,-12 -20,-23 -30,-35l7 -7c10,12 21,24 30,35l-7 7zm-2778 31l-8 -6c9,-12 19,-24 29,-36l8 7c-10,11 -20,23 -29,35zm2835 41c-10,-12 -19,-24 -28,-36l8 -7c9,13 19,25 28,37l-8 6zm-2891 33l-8 -6c9,-13 18,-25 27,-37l8 6c-9,12 -18,25 -27,37zm2944 42c-9,-12 -17,-25 -26,-37l8 -6c9,12 18,25 26,38l-8 5zm-2996 34l-8 -5c8,-13 17,-26 25,-39l9 6c-9,13 -17,26 -26,38zm3045 44c-8,-13 -16,-26 -24,-39l9 -6c8,13 16,27 24,40l-9 5zm-3092 36l-9 -6c7,-13 15,-26 23,-40l9 6c-8,13 -16,26 -23,40zm3137 44c-7,-13 -14,-27 -22,-40l9 -5c8,13 15,27 23,40l-10 5zm-3181 37l-9 -5c7,-13 14,-27 21,-41l9 5c-7,13 -14,27 -21,41zm3223 45c-7,-13 -14,-27 -20,-41l9 -5c7,14 13,28 20,42l-9 4zm-3262 39l-10 -5c7,-14 13,-28 20,-42l9 4c-7,14 -13,29 -19,43zm3298 46c-5,-14 -11,-29 -18,-43l10 -4c6,14 12,29 18,43l-10 4zm-3333 39l-10 -4c6,-14 12,-28 17,-43l10 4c-6,14 -12,29 -17,43zm3366 47c-5,-15 -11,-29 -16,-43l10 -4c5,14 10,29 15,44l-9 3zm-3397 40l-9 -3c4,-14 9,-29 14,-44l10 4c-5,14 -10,29 -15,43zm3425 48c-5,-15 -9,-30 -14,-44l10 -3c5,14 9,29 13,44l-9 3zm-3450 41l-10 -3c4,-15 8,-30 12,-44l10 3c-4,14 -8,29 -12,44zm3473 48c-4,-15 -7,-30 -11,-45l10 -2c4,14 7,30 11,45l-10 2zm-3494 42l-11 -2c4,-16 7,-31 11,-46l10 3c-4,15 -7,30 -10,45zm3513 48c-3,-15 -6,-30 -9,-45l10 -2c3,15 6,30 9,45l-10 2zm-3530 42l-10 -1c2,-15 5,-31 8,-46l10 2c-3,15 -6,30 -8,45zm3544 49c-2,-15 -5,-30 -7,-45l10 -2c3,15 5,31 7,46l-10 1zm-3556 43l-10 -1c2,-16 3,-31 5,-46l11 1c-2,15 -4,31 -6,46zm3565 49c-1,-15 -3,-31 -4,-46l10 -1c2,15 3,31 4,46l-10 1zm-3572 43l-10 -1c1,-15 2,-31 3,-46l10 1c-1,15 -2,30 -3,46zm3576 49c0,-15 -1,-31 -1,-46l10 0c1,15 1,30 2,46l-11 0zm-3578 43l-10 0c0,-16 0,-31 0,-47l10 1c0,15 0,31 0,46zm3589 47l-11 0c1,-15 1,-31 1,-46l10 0c0,15 0,31 0,46zm-3597 46c-1,-16 -2,-31 -2,-47l10 0c1,15 1,31 2,46l-10 1zm3592 47l-10 -1c1,-15 2,-31 3,-46l10 1c-1,15 -2,31 -3,46zm-3585 45c-2,-15 -3,-31 -4,-46l10 -1c1,15 3,31 4,46l-10 1zm3575 47l-10 -1c2,-15 4,-31 6,-46l10 1c-2,15 -4,31 -6,46zm-3563 45c-3,-15 -5,-31 -7,-46l10 -1c2,15 4,30 7,45l-10 2zm3549 47l-10 -2c3,-15 5,-30 8,-46l10 2c-2,15 -5,31 -8,46zm-3533 44c-3,-15 -6,-30 -9,-45l10 -2c3,15 6,30 9,45l-10 2zm3514 47l-10 -3c4,-15 7,-30 10,-45l10 2c-3,15 -6,31 -10,46zm-3493 43c-4,-14 -7,-30 -11,-45l10 -2c4,15 7,30 11,45l-10 2zm3470 46l-10 -3c4,-14 8,-29 12,-44l10 2c-4,15 -8,30 -12,45zm-3444 43c-5,-14 -9,-29 -13,-44l9 -3c5,15 9,30 14,44l-10 3zm3416 46l-10 -4c5,-14 10,-29 15,-44l9 4c-4,14 -9,29 -14,44zm-3386 42c-5,-14 -10,-29 -15,-44l9 -3c5,15 11,29 16,43l-10 4zm3353 45l-10 -4c6,-14 12,-29 17,-43l10 3c-6,15 -11,29 -17,44zm-3318 41c-6,-14 -12,-29 -18,-43l10 -4c6,14 12,29 18,43l-10 4zm3280 44l-9 -5c7,-13 13,-28 19,-42l10 4c-6,15 -13,29 -20,43zm-3241 40c-6,-14 -13,-28 -20,-42l10 -4c6,13 13,27 20,41l-10 5zm3200 43l-9 -5c7,-13 14,-27 21,-41l9 5c-7,13 -14,27 -21,41zm-3156 38c-8,-13 -15,-27 -22,-40l9 -5c7,13 14,27 22,40l-9 5zm3110 43l-9 -6c8,-13 16,-26 23,-40l9 6c-7,13 -15,26 -23,40zm-3062 36c-9,-12 -17,-26 -25,-39l9 -5c8,13 16,26 24,39l-8 5zm3012 42l-9 -6c9,-13 18,-26 26,-38l8 5c-8,13 -16,26 -25,39zm-2961 35c-9,-12 -18,-25 -26,-38l8 -6c9,13 18,26 27,38l-9 6zm2907 40l-8 -6c9,-12 18,-25 27,-37l9 6c-9,13 -19,25 -28,37zm-2851 34c-10,-12 -19,-24 -29,-36l9 -6c9,12 18,24 28,36l-8 6zm2793 39l-7 -7c9,-11 19,-23 29,-35l8 6c-10,12 -20,24 -30,36zm-2734 33c-10,-12 -20,-24 -30,-36l8 -6c10,11 20,23 30,35l-8 7zm2673 37l-7 -7c10,-12 20,-23 31,-35l7 7c-10,12 -20,23 -31,35zm-2610 31c-11,-11 -21,-23 -32,-34l8 -7c10,11 21,23 31,33l-7 8zm2545 35l-7 -7c11,-11 22,-22 33,-33l7 7c-11,11 -22,22 -33,33zm-2479 29c-11,-10 -22,-21 -33,-32l7 -7c11,11 22,21 33,32l-7 7zm2411 34l-6 -8c11,-10 23,-20 34,-31l7 8c-12,10 -23,21 -35,31zm-2341 28c-12,-10 -24,-20 -35,-31l6 -7c12,10 24,20 35,30l-6 8zm2270 31l-6 -8c12,-9 24,-19 36,-29l6 8c-12,10 -24,20 -36,29zm-2198 26c-12,-9 -24,-18 -36,-28l6 -8c12,10 24,19 37,28l-7 8zm2124 30l-6 -9c13,-8 25,-18 37,-27l6 8c-12,10 -24,19 -37,28zm-2048 24c-13,-8 -26,-17 -38,-26l6 -9c12,9 25,18 38,27l-6 8zm1971 27l-5 -8c13,-8 26,-17 38,-25l6 8c-13,9 -26,17 -39,25zm-1893 23c-13,-8 -26,-16 -39,-24l5 -9c13,8 26,17 40,25l-6 8zm1814 25l-5 -9c13,-7 27,-15 40,-23l5 9c-13,8 -27,16 -40,23zm-1733 21c-14,-7 -27,-15 -41,-22l5 -9c14,7 27,15 41,22l-5 9zm1651 23l-4 -10c13,-6 27,-13 41,-21l4 9c-13,8 -27,15 -41,22zm-1568 19c-14,-7 -28,-14 -42,-20l5 -10c13,7 27,14 41,21l-4 9zm1485 20l-4 -10c13,-6 28,-12 41,-19l5 10c-14,6 -28,13 -42,19zm-1400 17c-14,-6 -29,-12 -43,-18l4 -9c14,6 29,12 43,18l-4 9zm1314 18l-4 -10c15,-5 29,-11 43,-17l4 10c-14,6 -29,11 -43,17zm-1227 15c-14,-5 -29,-10 -44,-16l4 -9c14,5 29,10 43,15l-3 10zm1139 15l-3 -10c15,-4 30,-9 44,-14l3 9c-14,6 -29,10 -44,15zm-1050 13c-15,-4 -30,-9 -45,-13l3 -10c15,5 30,9 44,13l-2 10zm961 13l-2 -10c15,-4 29,-8 44,-12l3 10c-15,4 -30,8 -45,12zm-872 11c-15,-4 -30,-7 -45,-11l3 -10c15,4 30,7 45,11l-3 10zm782 10l-2 -10c15,-3 30,-6 45,-10l2 10c-15,4 -30,7 -45,10zm-691 9c-15,-3 -30,-6 -45,-9l2 -10c15,3 30,6 45,9l-2 10zm600 8l-2 -10c15,-3 31,-5 46,-8l2 10c-16,3 -31,5 -46,8zm-508 6c-16,-2 -31,-4 -46,-7l1 -10c15,3 31,5 46,7l-1 10zm416 5l-1 -10c15,-1 30,-3 46,-5l1 10c-15,2 -31,4 -46,5zm-324 4c-16,-1 -31,-2 -46,-4l1 -10c15,2 30,3 46,4l-1 10zm231 3l0 -10c15,-1 31,-2 46,-3l1 11c-16,1 -31,2 -47,2zm-139 2c-15,0 -31,-1 -46,-2l1 -10c15,1 30,1 46,2l-1 10zm47 1l0 0 0 -11 0 0c15,0 31,0 46,0l0 10c-15,1 -30,1 -46,1z"/>
  <path class="fil2" d="M1433 2568l2 -226c0,0 -32,-414 -44,-644 0,0 -6,-94 14,-173 0,0 40,-189 38,-201 0,0 21,-100 22,-158 0,0 9,-28 -9,-88 0,0 -23,-75 8,-109 0,0 33,-32 85,1 0,0 45,21 76,94 0,0 86,195 50,366 0,0 2,144 9,166l662 -992c0,0 48,-48 110,-21 0,0 54,21 55,93 0,0 6,26 -52,98l-462 701 396 577c0,0 -48,107 -210,222 0,0 -105,83 -189,98l5 202 -566 -6z"/>
  <polygon class="fil3" points="2060,2678 2060,2523 1372,2522 1372,2677 "/>
  <polygon class="fil4" points="2137,3386 2138,2600 1294,2599 1293,3384 "/>
  <polygon class="fil5" points="1715,3385 1716,2600 1293,2599 1292,3385 "/>
  <path class="fil6" d="M2361 2228l-672 0c-49,0 -89,-40 -89,-89l0 -1322c0,-49 40,-89 89,-89l672 0c49,0 89,40 89,89l0 1322c0,49 -40,89 -89,89z"/>
  <path class="fil7" d="M2451 1921c0,0 -1,0 -1,0l0 -132c0,0 1,0 1,0l0 132zm0 -465c0,0 -1,0 -1,0l0 -44c0,0 1,0 1,1l0 43zm-1 -507l0 -132c0,-9 -1,-17 -3,-25l0 -1c2,8 4,17 4,26l0 132c0,0 -1,0 -1,0l0 0z"/>
  <path class="fil8" d="M2430 2196c13,-15 20,-35 20,-57l0 -218c0,0 1,0 1,0l0 218c0,22 -8,42 -21,57zm21 -407c0,0 -1,0 -1,0l0 -333c0,0 1,0 1,0l0 333zm0 -376c0,-1 -1,-1 -1,-1l0 -463c0,0 1,0 1,0l0 464z"/>
  <path class="fil9" d="M2447 792c-7,-23 -23,-43 -44,-54 21,11 37,30 44,53l0 1z"/>
  <path class="fil10" d="M2361 2228l-91 0 -305 -1500 396 0c15,0 30,4 42,10 21,11 37,31 44,54 2,8 3,16 3,25l0 1322c0,22 -7,42 -20,57 -17,20 -41,32 -69,32z"/>
  <polygon class="fil11" points="1625,2059 2426,2059 2426,891 1625,891 "/>
  <polygon class="fil11" points="1626,2059 2427,2059 2427,891 1626,891 "/>
  <path class="fil11" d="M2138 825l-224 0c-7,0 -12,-6 -12,-13 0,-7 5,-13 12,-13l224 0c7,0 12,6 12,13 0,7 -5,13 -12,13z"/>
  <path class="fil11" d="M2112 2176l-173 0c-10,0 -17,-8 -17,-17l0 -29c0,-9 7,-17 17,-17l173 0c10,0 18,8 18,17l0 29c0,9 -8,17 -18,17z"/>
  <path class="fil12" d="M1876 891c0,0 0,1 0,1l112 0c0,0 0,-1 0,-1l-112 0z"/>
  <polygon class="fil12" points="1626,2059 2427,2059 2427,891 1626,891 "/>
  <path class="fil1" d="M2388 1351l39 -14 0 -24 -63 24c-11,4 -20,11 -26,21 -2,2 -3,5 -4,6l-78 410 -156 56c0,0 -8,3 -14,2l151 -863 136 -49c9,-3 14,-13 11,-22 0,-1 -1,-3 -1,-4l-1 -2 -18 0 1 3 -128 51 10 -54 -19 0 -63 327 -4 24 -97 590 -1 4 0 0 -3 21 -2 10c0,0 5,13 19,6l4 -14c0,0 22,-6 47,-15l125 -45 -43 260 22 0 91 -519 104 -37 0 -23 -100 36 0 2 23 -134c0,0 1,-21 38,-34z"/>
  <path class="fil13" d="M2427 1354l0 113 -77 28 0 2 18 -105c0,0 1,-17 29,-27l30 -11z"/>
  <polygon class="fil14" points="2341,891 2251,927 2257,891 "/>
  <polygon class="fil15" points="2266,1264 2221,1258 2146,1687 2187,1694 "/>
  <polygon class="fil15" points="2427,923 2427,986 2304,1031 2266,1247 2215,1232 2258,987 "/>
  <polygon class="fil14" points="2427,1014 2427,1189 2294,1235 2333,1045 "/>
  <polygon class="fil14" points="2321,1362 2266,1353 2201,1696 2261,1705 "/>
  <polygon class="fil14" points="2427,1528 2427,1770 2419,1812 2294,1788 2336,1562 "/>
  <polygon class="fil14" points="2055,1826 2150,1258 2038,1291 1951,1812 "/>
  <polygon class="fil15" points="1967,1681 1928,1676 1909,1780 1947,1785 "/>
  <polygon class="fil15" points="2026,1297 1993,1302 1932,1658 1967,1666 "/>
  <path class="fil1" d="M1984 1294l-93 518 173 25 0 0 -3 22 -1 -1 -169 -26 -33 172c-1,6 -6,11 -13,11 -3,0 -7,-1 -9,-6 -1,-2 -1,-5 -1,-8l32 -174 -31 -5 3 -22 33 6 112 -632 48 -283 23 0 -66 377 176 -49 -4 24 -177 51z"/>
  <polygon class="fil15" points="2215,891 2158,1205 2015,1244 2050,1038 2141,1024 2166,891 "/>
  <polygon class="fil14" points="2151,891 2130,1007 2058,1017 2080,891 "/>
  <polygon class="fil15" points="2427,1208 2427,1298 2330,1334 2288,1320 2301,1252 "/>
  <polygon class="fil15" points="2255,1712 2126,1694 2106,1804 2247,1758 "/>
  <path class="fil16" d="M1988 893c0,0 0,-1 0,0 -29,80 -71,155 -124,222 -41,51 -90,125 -121,214 0,0 -4,7 -10,22 0,1 0,2 -1,2 0,1 0,2 -1,3 0,0 0,1 0,2 -1,3 -2,5 -3,8 0,1 0,1 -1,2 0,2 -1,5 -1,7 -1,3 -2,6 -3,10 -1,2 -1,5 -2,7 0,1 0,3 -1,4 0,2 -1,5 -1,8 -2,8 -4,17 -5,26 -1,3 -1,6 -2,10 -1,8 -2,17 -3,26 0,4 -1,7 -1,11 -1,6 -1,12 -1,18 -1,4 -1,8 -1,13 -1,12 -1,26 -1,40 0,27 1,57 4,90 1,6 1,12 2,18 1,15 3,31 6,47 1,9 2,19 4,29 1,4 1,9 2,14 2,9 4,18 5,28 1,1 1,2 1,3 1,7 3,14 4,21 2,7 3,14 5,22 1,6 3,12 4,17 1,6 3,12 4,18 0,0 1,2 3,7 0,2 1,6 3,10 9,29 30,92 55,163 0,1 1,3 1,5 3,6 5,13 7,19l-119 0c-20,-58 -38,-124 -54,-194 0,0 -7,-32 -16,-83l0 -450c0,-5 3,-10 4,-15 2,-4 3,-9 4,-13 25,-73 62,-142 110,-204 10,-12 20,-25 30,-39 2,-2 3,-4 5,-6 11,-16 23,-32 35,-49 5,-9 11,-17 16,-26 0,0 1,-1 1,-2 14,-22 26,-44 37,-68 2,-6 5,-11 8,-17 0,-1 0,0 0,0l112 0z"/>
  <path class="fil1" d="M1988 892c-29,80 -71,156 -124,223 -41,51 -90,124 -121,214 0,0 -4,7 -10,22 0,1 0,2 -1,2 0,1 0,2 -1,3 0,0 0,1 0,2 -1,3 -2,5 -3,8 0,1 0,1 -1,2 0,2 -1,5 -1,7 -1,3 -2,6 -3,10 -1,2 -1,5 -2,7 0,1 0,3 -1,4 0,2 -1,5 -1,8 -2,8 -4,17 -5,26 -1,3 -1,6 -2,10 -1,8 -2,17 -3,26 0,4 -1,7 -1,11 -1,6 -1,12 -1,18 -1,4 -1,8 -1,13 -1,12 -1,26 -1,40 0,27 1,57 4,90 1,6 1,12 2,18 1,15 3,31 6,47 1,9 2,19 4,29 1,4 1,9 2,14 2,9 4,18 5,28 1,1 1,2 1,3 1,7 3,14 4,21 2,7 3,14 5,22 1,6 3,12 4,17 1,6 3,12 4,18 0,0 1,2 3,7 0,2 1,6 3,10 9,29 30,92 55,163 0,1 1,3 1,5 3,6 5,13 7,20l0 0 27 0c-37,-105 -69,-202 -72,-212 -27,-109 -40,-210 -40,-300 0,-74 9,-127 17,-158 8,-32 17,-48 17,-50l1 -1 1 -2c32,-89 81,-161 117,-206 37,-47 69,-97 94,-150 15,-29 27,-59 37,-89l-26 0zm-139 0c-16,35 -34,68 -56,100 -21,30 -44,62 -68,93 -41,52 -75,110 -100,171l0 76c2,-5 3,-10 5,-15 1,-4 3,-9 4,-13 25,-73 62,-142 110,-204 10,-12 20,-25 30,-39 2,-2 3,-4 5,-6 11,-16 23,-32 34,-49 6,-9 12,-17 17,-26 0,0 1,-1 1,-2 14,-22 26,-45 37,-68 2,-6 5,-12 8,-18l-27 0zm-207 973c0,0 -8,-32 -17,-83l0 122c13,52 28,104 45,156l26 0c-20,-60 -38,-125 -54,-195z"/>
  <path class="fil14" d="M1987 1064l-126 695 -70 53c0,0 -86,-253 0,-471 0,0 43,-160 196,-277z"/>
  <polygon class="fil15" points="2230,1828 2194,2059 2060,2059 2091,1877 "/>
  <polygon class="fil15" points="2072,1893 2045,2059 2021,2059 2050,1890 "/>
  <path class="fil14" d="M2037 1871l-32 188 -136 0c0,-5 1,-11 2,-17l38 -190 128 19z"/>
  <path class="fil2" d="M2382 1844l-1 -1c-37,-36 -38,-97 -1,-134l74 -77c37,-37 97,-38 134,-1l1 0c37,37 38,97 2,134l-75 77c-36,37 -97,38 -134,2z"/>
  <path class="fil2" d="M2363 1320l-1 0c-37,-37 -38,-97 -1,-134l74 -77c37,-37 97,-38 134,-2l1 1c37,36 38,96 2,134l-75 76c-36,38 -97,39 -134,2z"/>
  <path class="fil2" d="M2371 1583l0 0c-38,-37 -38,-97 -2,-135l74 -76c37,-38 97,-38 135,-2l0 1c38,36 38,96 2,134l-75 76c-36,38 -96,39 -134,2z"/>
  <path class="fil17" d="M1953 1147c-16,0 -30,-13 -30,-29 -1,-1 -1,-1 -1,-2 0,0 0,-1 1,-1 0,-16 14,-29 30,-29 16,0 30,13 30,29 0,0 0,1 0,1 0,1 0,1 0,2 0,16 -14,29 -30,29zm54 -35c-4,-22 -21,-39 -43,-44 -3,-1 -3,-1 -6,-1 -4,0 -6,0 -9,0 -2,0 -3,0 -4,1 -19,3 -33,13 -41,30 -6,12 -7,25 -2,38 3,10 8,19 14,27 9,15 20,29 31,42 2,2 4,5 6,7 1,0 1,-1 1,-1 10,-11 19,-23 28,-35 7,-11 15,-22 20,-35 4,-9 7,-19 5,-29z"/>
  <path class="fil1" d="M1983 1116c0,17 -13,31 -30,31 -17,0 -31,-14 -31,-31 0,-16 14,-30 31,-30 17,0 30,14 30,30z"/>
  <path class="fil17" d="M2229 1653c-16,0 -29,-13 -30,-29 0,0 0,-1 0,-1 0,-1 0,-2 0,-2 1,-16 14,-29 30,-29 17,0 30,13 31,29 0,0 0,1 0,2 0,0 0,1 0,1 -1,16 -14,29 -31,29zm54 -35c-4,-22 -21,-39 -43,-44 -2,0 -2,-1 -6,-1 -4,0 -6,0 -8,0 -3,0 -4,0 -5,1 -19,3 -32,13 -41,30 -6,12 -7,25 -2,38 4,10 9,19 14,28 9,14 20,28 31,41 2,3 4,5 6,7 1,0 1,-1 2,-1 9,-11 18,-23 27,-35 8,-11 15,-22 21,-34 4,-10 6,-19 4,-30z"/>
  <path class="fil1" d="M2260 1623c0,16 -14,30 -31,30 -17,0 -30,-14 -30,-30 0,-17 13,-31 30,-31 17,0 31,14 31,31z"/>
  <path class="fil17" d="M1845 1892c-17,0 -30,-12 -31,-29 0,0 0,-1 0,-1 0,-1 0,-1 0,-2 1,-16 14,-28 31,-28 16,0 29,12 30,28 0,1 0,1 0,2 0,0 0,1 0,1 -1,17 -14,29 -30,29zm54 -34c-4,-22 -22,-40 -43,-44 -3,-1 -3,-1 -7,-1 -3,-1 -5,-1 -8,-1 -2,1 -3,1 -5,1 -18,3 -32,13 -40,30 -6,13 -8,25 -3,39 4,9 9,18 15,27 9,15 20,28 31,42 2,2 4,4 6,7 0,-1 1,-1 1,-2 10,-11 19,-22 27,-34 8,-11 15,-23 21,-35 4,-9 6,-19 5,-29z"/>
  <path class="fil1" d="M1875 1862c0,17 -13,30 -30,30 -17,0 -31,-13 -31,-30 0,-17 14,-30 31,-30 17,0 30,13 30,30z"/>
  <polygon class="fil14" points="1167,3352 1259,3352 1259,3324 1167,3324 "/>
  <polygon class="fil14" points="1251,3259 1175,3259 1182,3331 1245,3331 "/>
  <path class="fil3" d="M508 2115l-402 0 -60 53 5 -53 -29 0c-12,0 -22,-10 -22,-22l0 -292c0,-12 10,-22 22,-22l486 0c13,0 23,10 23,22l0 292c0,12 -10,22 -23,22z"/>
  <path class="fil18" d="M331 2213l327 0 48 43 -4 -43 24 0c10,0 18,-8 18,-18l0 -233c0,-9 -8,-17 -18,-17l-395 0c-10,0 -18,8 -18,17l0 233c0,10 8,18 18,18z"/>
  <path class="fil1" d="M313 2195c0,10 8,18 18,18l327 0 48 42 -4 -42 23 0c10,0 18,-8 18,-18l0 -113 -430 0 0 113z"/>
  <path class="fil4" d="M472 2082c0,11 -9,20 -20,20 -11,0 -20,-9 -20,-20 0,-11 9,-20 20,-20 11,0 20,9 20,20z"/>
  <path class="fil4" d="M549 2082c0,11 -9,20 -20,20 -11,0 -20,-9 -20,-20 0,-11 9,-20 20,-20 11,0 20,9 20,20z"/>
  <path class="fil4" d="M622 2082c0,11 -9,20 -20,20 -11,0 -20,-9 -20,-20 0,-11 9,-20 20,-20 11,0 20,9 20,20z"/>
  <polygon class="fil16" points="264,922 544,668 823,919 821,1266 271,1266 "/>
  <polygon class="fil1" points="314,1244 778,1244 778,792 314,792 "/>
  <polygon class="fil16" points="264,1317 823,1317 626,1131 463,1131 "/>
  <polygon class="fil19" points="264,1317 264,932 463,1131 "/>
  <polygon class="fil19" points="824,1317 824,932 626,1131 "/>
  <path class="fil2" d="M1782 244c0,135 -109,245 -244,245 -135,0 -244,-110 -244,-245 0,-134 109,-244 244,-244 135,0 244,110 244,244z"/>
  <path class="fil19" d="M3584 991c0,149 -120,269 -268,269 -149,0 -269,-120 -269,-269 0,-148 120,-268 269,-268 148,0 268,120 268,268z"/>
  <path class="fil3" d="M1664 234c-2,1 -3,1 -5,2 -2,1 -3,4 -1,5 3,3 4,6 5,10 1,6 -1,12 -6,16 -2,2 -4,3 -7,4 -3,1 -3,5 -1,7 5,4 6,10 4,16 -2,5 -6,9 -10,12 -1,0 -2,0 -3,1 -1,0 -2,1 -2,3 0,1 0,2 1,3 3,2 5,5 5,9 1,3 0,5 -1,8 -2,3 -4,6 -8,9 -1,1 -5,3 -8,5 -1,0 -6,1 -8,2 -72,14 -123,-5 -129,-7 -1,-1 -6,-3 -7,-3 0,0 -2,-1 -2,-1l0 -108c3,-2 6,-4 8,-6 0,0 1,0 1,0l0 -1c14,-18 24,-37 34,-57 7,-14 9,-43 9,-54 0,-4 4,-11 12,-11 2,0 7,0 9,1 4,1 6,5 9,11 4,7 6,15 9,23 0,3 1,6 2,9 0,2 0,5 0,7 0,3 -1,5 -1,8 0,5 -1,10 -2,15 -1,5 -2,11 -3,16l0 1c0,0 0,0 0,1 -2,7 5,11 9,13 2,0 6,1 7,1 23,0 62,0 67,0 3,0 6,0 9,0 5,0 11,3 13,10 1,8 -2,15 -9,20z"/>
  <path class="fil3" d="M1484 342c0,5 -4,10 -10,10l-37 0c-5,0 -10,-5 -10,-10l0 -124c0,-5 5,-10 10,-10l37 0c6,0 10,5 10,10l0 124z"/>
  <path class="fil20" d="M3191 939l0 203 228 0 0 -305 -125 0 -103 102zm107 5l0 -93 107 0 0 277 -200 0 0 -184 93 0z"/>
  <polygon class="fil20" points="3265,968 3420,968 3420,956 3265,956 "/>
  <polygon class="fil20" points="3265,1017 3420,1017 3420,1005 3265,1005 "/>
  <polygon class="fil20" points="3265,1067 3420,1067 3420,1054 3265,1054 "/>
  <path class="fil14" d="M3521 1885c0,-1 -1,-2 -1,-2 -1,-3 -2,-5 -3,-7 0,-2 -1,-3 -1,-4 -1,-1 -1,-3 -1,-4 0,0 -1,-1 -1,-2 -1,-3 -1,-7 -2,-11 0,-3 0,-7 0,-11 0,-1 0,-3 0,-4 1,-5 1,-9 3,-14 2,-10 7,-20 14,-28 15,-19 36,-29 58,-31 2,0 3,0 5,0 1,0 2,0 2,0 2,0 3,0 4,0 4,0 8,1 12,2 1,0 2,0 3,1 11,2 20,7 29,14 10,8 18,18 23,30 1,1 1,2 2,3 1,2 1,4 2,6 0,1 1,2 1,3 0,1 0,2 0,2 1,1 1,3 1,4 1,2 1,4 1,6 0,1 0,2 0,4 1,3 1,6 1,9 -1,1 -1,3 -1,4 0,1 0,3 0,4 0,2 -1,4 -1,6 -3,11 -8,22 -16,32 -4,5 -9,10 -14,14 -1,1 -2,2 -3,2 -2,2 -3,3 -5,4 -1,0 -2,1 -4,2 0,0 -1,0 -2,1 -1,0 -3,1 -5,2 -1,0 -2,1 -3,1 -1,1 -2,1 -3,1 -1,0 -2,1 -3,1 0,0 -1,0 -2,0 -1,1 -2,1 -3,1 -1,0 -2,0 -2,1 -2,0 -3,0 -4,0 -1,0 -1,0 -2,0 -3,1 -5,1 -8,1 0,0 -1,0 -2,0 -1,0 -2,0 -4,-1 -1,0 -2,0 -3,0 -1,0 -2,0 -2,0 -2,0 -3,-1 -4,-1 -12,-2 -24,-7 -34,-16 -9,-6 -15,-14 -20,-23 -1,0 -1,-1 -2,-2zm254 56l-25 -20c9,-19 13,-35 15,-53l0 0 32 -4c7,-1 12,-8 11,-15l-6 -55c-1,-7 -7,-13 -14,-12l-34 3c-7,-18 -10,-29 -29,-49l0 0 22 -24c5,-5 4,-12 -2,-17l-43 -34c-6,-4 -11,-2 -15,4l-20 25c-18,-9 -35,-13 -53,-15l-1 -1 -4 -32c-1,-7 -7,-12 -14,-11l-56 6c-7,1 -12,8 -11,15l2 33c-17,7 -28,10 -48,29l-1 0 -24 -21c-5,-5 -11,-4 -15,1l-34 44c-5,5 -5,12 1,16l25 20c-9,19 -12,35 -14,52l-1 1 -31 3c-7,1 -13,8 -12,15l7 55c1,7 7,12 14,12l33 -3c7,17 15,32 28,48l0 0 -20 25c-4,6 -6,12 0,17l44 34c5,5 14,3 18,-2l19 -27c18,9 34,12 50,13l0 0 6 34c0,7 8,12 15,11l55 -6c7,-1 13,-7 12,-14l-3 -33c17,-7 28,-9 48,-28l0 0 25 21c5,4 14,5 19,0l34 -44c4,-5 0,-13 -5,-17z"/>
  <path class="fil4" d="M3592 1916c0,0 -1,0 -1,0 -2,0 -3,0 -4,0 -1,0 -2,0 -3,0 -1,0 -1,-1 -2,-1 -1,0 -2,0 -3,0 -11,-2 -21,-7 -29,-14 -7,-5 -13,-12 -17,-19 -1,-1 -1,-2 -2,-2 0,-1 0,-2 -1,-2 0,-2 -1,-4 -2,-7 -1,-1 -1,-2 -1,-3 -1,-1 -1,-2 -1,-3 0,0 0,-1 -1,-1 0,-3 -1,-7 -1,-10 -1,-3 -1,-6 0,-9 0,-2 0,-3 0,-4 0,-4 1,-8 2,-12 2,-9 6,-17 12,-24 12,-15 30,-25 49,-26 2,0 4,-1 5,-1 1,0 1,0 2,0 1,1 2,1 3,1 4,0 7,0 10,1 1,0 2,1 3,1 9,2 18,6 25,12 8,7 15,16 20,25 0,1 1,2 1,4 1,1 1,3 2,4 0,1 0,2 1,3 0,1 0,1 0,2 0,1 1,2 1,3 0,2 0,3 1,5 0,1 0,2 0,3 0,3 0,6 0,9 0,1 0,2 0,3 0,1 0,2 -1,3 0,2 0,4 -1,5 -2,10 -6,20 -13,28 -3,4 -7,8 -12,12 -1,1 -2,1 -3,2 -1,1 -3,2 -4,3 -1,0 -2,1 -3,1 -1,1 -1,1 -2,1 -1,1 -3,2 -4,2 -1,1 -2,1 -3,1 -1,1 -2,1 -3,1 0,0 -1,1 -2,1 0,0 -1,0 -1,0 -1,0 -3,1 -4,1 0,0 -1,0 -1,0 -1,0 -2,0 -4,1 0,0 -1,0 -1,0 -2,0 -5,0 -7,0l0 0zm4 -297c-1,0 -2,0 -3,0l-55 7c-14,2 -23,14 -22,27l2 25c-12,4 -22,9 -37,21l-16 -15 0 0 -1 0c-4,-4 -9,-6 -14,-6 -5,0 -11,2 -17,9l-34 44c-4,5 -6,11 -6,16 0,6 4,12 9,16l18 14c-6,15 -9,28 -11,39l-23 3c-13,2 -23,14 -21,27l6 56c2,12 12,21 25,21 1,0 2,0 2,0l25 -2c5,13 12,25 20,36l-14 18c-9,11 -8,25 2,33l43 34c5,4 10,5 16,5 7,0 15,-3 20,-9l0 0 0 -1 13 -18c14,5 25,8 36,9l4 24c2,12 13,22 25,22 1,0 2,0 3,0l56 -6c6,-1 12,-4 16,-9 4,-5 6,-12 5,-18l-2 -24c12,-5 22,-9 36,-21l17 15 0 0 1 0c5,4 11,6 17,6 7,0 13,-3 18,-8l34 -44c4,-5 5,-13 3,-20 -2,-5 -5,-10 -10,-13l-18 -15c5,-12 9,-25 11,-39l24 -3c6,-1 12,-4 16,-9 4,-5 6,-12 5,-18l-7 -56c-1,-12 -12,-21 -24,-21 -1,0 -2,0 -2,0l-25 1c-5,-11 -10,-22 -21,-36l15 -16 0 0 0 -1c4,-5 6,-11 5,-17 0,-6 -4,-12 -9,-16l-43 -34c-5,-4 -10,-5 -13,-5 -7,0 -13,4 -18,11l-14 18c-13,-5 -26,-9 -40,-11l-3 -24c-2,-12 -12,-22 -25,-22l0 0zm-4 148l0 0c-2,0 -4,0 -5,0 -22,2 -43,12 -58,31 -7,8 -12,18 -14,28 -2,5 -2,9 -3,14 0,1 0,3 0,4 0,4 0,8 0,11 1,4 1,8 2,11 0,1 1,2 1,2 0,1 0,3 1,4 0,1 1,2 1,4 1,2 2,4 3,7 0,0 1,1 1,2 1,1 1,2 2,2 5,9 11,17 20,23 10,9 22,14 34,16 1,0 2,1 4,1 0,0 1,0 2,0 1,0 2,0 3,0 2,1 3,1 4,1 1,0 2,0 2,0l0 0c3,0 5,0 8,-1 1,0 1,0 2,0 1,0 2,0 4,0 0,-1 1,-1 2,-1 1,0 2,0 3,-1 1,0 2,0 2,0 1,0 2,-1 3,-1 1,0 2,0 3,-1 1,0 2,-1 3,-1 2,-1 4,-2 5,-2 1,-1 2,-1 2,-1 2,-1 3,-2 4,-2 2,-1 3,-2 5,-4 1,0 2,-1 3,-2 5,-4 10,-9 14,-14 8,-10 13,-21 16,-32 0,-2 1,-4 1,-6 0,-1 0,-3 0,-4 0,-1 0,-3 1,-4 0,-3 0,-6 -1,-9 0,-2 0,-3 0,-4 0,-2 0,-4 -1,-6 0,-1 0,-3 -1,-4 0,0 0,-1 0,-2 0,-1 -1,-2 -1,-3 -1,-2 -1,-4 -2,-6 -1,-1 -1,-2 -2,-3 -5,-12 -13,-22 -23,-30 -9,-7 -18,-12 -29,-14 -1,-1 -2,-1 -3,-1 -4,-1 -8,-2 -12,-2 -1,0 -2,0 -4,0 0,0 -1,0 -2,0l0 0zm4 -136c7,0 12,5 13,11l4 32 1 1c18,2 35,6 53,15l20 -25c3,-4 6,-6 9,-6 2,0 4,1 6,2l43 34c6,5 7,12 2,17l-22 24 0 0c19,20 22,31 29,49l34 -3c0,0 1,0 1,0 6,0 12,5 13,12l6 55c1,7 -4,14 -11,15l-32 4 0 0c-2,18 -6,34 -15,53l25 20c5,4 9,12 5,17l-34 44c-3,2 -6,4 -9,4 -4,0 -7,-2 -10,-4l-25 -21 0 0c-20,19 -31,21 -48,28l3 33c1,7 -5,13 -12,14l-55 6c-1,0 -1,1 -2,1 -6,0 -13,-6 -13,-12l-6 -34 0 0c-16,-1 -32,-4 -50,-13l-19 27c-2,3 -6,5 -10,5 -3,0 -6,-1 -8,-3l-44 -34c-6,-5 -4,-11 0,-17l20 -25 0 0c-13,-16 -21,-31 -28,-48l-33 3c0,0 -1,0 -1,0 -7,0 -12,-5 -13,-12l-7 -55c-1,-7 5,-14 12,-15l31 -3 1 -1c2,-17 5,-33 14,-52l-25 -20c-6,-4 -6,-11 -1,-16l34 -44c2,-3 5,-4 8,-4 2,0 5,1 7,3l24 21 1 0c20,-19 31,-22 48,-29l-2 -33c-1,-7 4,-14 11,-15l56 -6c0,0 1,0 1,0z"/>
  <path class="fil21" d="M3260 2021c0,0 0,0 0,-1 -1,-1 -2,-2 -3,-3 0,0 0,-1 -1,-1 0,-1 0,-1 -1,-2 0,0 0,0 0,-1 -1,-1 -2,-3 -2,-4 -1,-2 -2,-4 -2,-6 0,0 0,-1 0,-2 -1,-2 -1,-4 -1,-6 0,-5 1,-10 3,-15 5,-11 13,-18 23,-22 1,0 2,0 3,0 0,-1 0,-1 1,-1 0,0 1,0 2,0 1,0 3,-1 5,-1 1,0 1,0 2,0 5,0 10,1 15,3 6,3 11,7 15,11 0,1 0,1 1,2 0,0 1,1 1,2 1,1 1,1 1,2 0,0 1,0 1,0 0,1 0,2 1,2 0,1 0,2 1,3 0,0 0,1 0,1 1,2 1,3 2,5 0,0 0,1 0,2 0,0 0,1 0,2 0,0 0,1 0,2 1,6 0,12 -3,17 -1,3 -3,6 -5,9 0,0 0,1 -1,1 0,1 -1,2 -2,2 0,1 -1,1 -1,1 0,1 -1,1 -1,1 -1,1 -1,1 -2,2 0,0 -1,1 -1,1 -1,0 -1,1 -2,1 0,0 0,0 -1,0 0,1 0,1 -1,1 0,0 -1,0 -1,1 -1,0 -1,0 -1,0 -1,0 -1,1 -2,1 0,0 0,0 -1,0 -1,1 -2,1 -3,1 -1,0 -1,0 -1,1 -1,0 -1,0 -2,0 -1,0 -1,0 -2,0 0,0 0,0 -1,0 0,0 -1,0 -2,1 -6,0 -12,-1 -17,-4 -5,-2 -9,-4 -13,-8 0,0 0,0 -1,-1zm125 -5l-14 -6c2,-10 2,-18 1,-27l0 0 14 -6c3,-1 5,-5 4,-8l-10 -25c-2,-3 -5,-5 -8,-3l-16 5c-5,-7 -8,-12 -19,-19l0 0 7 -14c2,-3 0,-6 -3,-8l-24 -10c-3,-2 -5,0 -7,3l-6 15c-10,-2 -18,-2 -27,-1l0 0 -6 -14c-1,-4 -5,-5 -8,-4l-25 10c-3,1 -5,5 -3,8l5 15c-7,6 -12,8 -19,20l0 0 -14 -7c-3,-1 -6,-1 -7,2l-11 25c-1,3 0,6 3,7l14 6c-2,10 -1,18 0,27l0 0 -14 5c-4,2 -5,5 -4,9l10 25c1,3 5,4 8,3l15 -5c5,7 11,13 19,18l0 0 -6 15c-2,3 -1,6 2,8l24 10c4,1 8,0 9,-3l5 -15c10,2 17,1 25,0l0 0 7 15c1,3 5,5 8,3l25 -10c4,-1 5,-4 4,-8l-5 -15c7,-5 11,-7 19,-19l0 1 14 6c3,2 7,1 8,-2l11 -25c1,-3 -2,-6 -5,-7z"/>
  <path class="fil22" d="M3059 3289l0 255c0,19 -16,34 -34,34l-237 0 -165 0c-12,0 -22,-6 -28,-15 -4,-5 -6,-12 -6,-19l0 -255c0,-19 15,-34 34,-34l402 0c18,0 34,15 34,34z"/>
  <polygon class="fil4" points="2861,3446 2661,3446 2661,3417 2861,3417 "/>
  <polygon class="fil4" points="2861,3478 2661,3478 2661,3470 2861,3470 "/>
  <polygon class="fil4" points="2861,3500 2661,3500 2661,3492 2861,3492 "/>
  <polygon class="fil16" points="2589,3391 3059,3391 3059,3311 2589,3311 "/>
  <polygon class="fil4" points="2304,534 2859,534 2859,117 2304,117 "/>
  <polygon class="fil1" points="2316,479 2846,479 2846,157 2316,157 "/>
  <path class="fil16" d="M2719 315c0,74 -60,134 -134,134 -75,0 -135,-60 -135,-134 0,-75 60,-135 135,-135 74,0 134,60 134,135z"/>
  <polygon class="fil23" points="2315,523 2326,523 2326,494 2315,494 "/>
  <polygon class="fil23" points="2331,523 2341,523 2341,494 2331,494 "/>
  <polygon class="fil23" points="2347,513 2841,513 2841,503 2347,503 "/>
  <polygon class="fil23" points="2705,523 2718,523 2718,494 2705,494 "/>
  <polygon class="fil17" points="2670,318 2544,391 2544,245 "/>
  <polygon class="fil16" points="911,3688 1486,3688 1486,3338 911,3338 "/>
  <polygon class="fil21" points="911,3648 1486,3648 1486,3383 911,3383 "/>
  <polygon class="fil14" points="933,3338 989,3338 989,3313 933,3313 "/>
  <polygon class="fil16" points="1395,3434 1452,3434 1452,3405 1395,3405 "/>
  <path class="fil24" d="M941 3614l0 0c-8,0 -14,-6 -14,-14l0 -169c0,-8 6,-14 14,-14 8,0 14,6 14,14l0 169c0,8 -6,14 -14,14z"/>
  <path class="fil4" d="M1343 3515c0,81 -64,146 -145,146 -80,0 -145,-65 -145,-146 0,-80 65,-145 145,-145 81,0 145,65 145,145z"/>
  <path class="fil25" d="M1291 3515c0,52 -41,93 -93,93 -51,0 -92,-41 -92,-93 0,-51 41,-92 92,-92 52,0 93,41 93,92z"/>
  <path class="fil16" d="M1172 3475c0,12 -10,22 -23,22 -12,0 -22,-10 -22,-22 0,-13 10,-23 22,-23 13,0 23,10 23,23z"/>
  <path class="fil16" d="M1140 3509c0,7 -6,13 -13,13 -8,0 -14,-6 -14,-13 0,-8 6,-14 14,-14 7,0 13,6 13,14z"/>
  <path class="fil26" d="M692 3050c-113,125 -305,134 -430,21 -124,-112 -134,-305 -21,-429 113,-125 305,-134 430,-22 124,113 134,306 21,430z"/>
  <path class="fil19" d="M374 2951c0,-3 3,-14 1,-16 -4,-3 -6,-7 -13,-6 -6,0 -10,0 -15,0 4,-10 3,-18 8,-27 5,-8 -14,-4 -16,-3 -4,1 -3,3 -4,7 -1,2 -4,5 -4,8 -2,-1 -4,-1 -6,0 -3,0 -6,0 -8,-1 -4,-3 -7,1 -9,-4 -2,-3 -2,-7 -3,-10 -4,-6 -6,-19 -2,-25 4,-6 -2,-11 4,-16 2,-2 5,-10 5,-14 5,0 15,5 19,6 1,2 8,5 8,1 2,1 3,4 5,2 0,-2 -1,-3 -2,-3 1,-1 1,-3 0,-4 4,-2 7,0 9,1 2,-2 4,-1 6,-1 2,1 6,-2 7,-2 0,3 2,6 4,5 4,-3 4,1 7,3 4,4 -1,13 6,17 0,3 5,12 6,12 14,-2 -4,-32 -2,-40 2,-5 4,-8 8,-10 4,-2 0,-11 4,-13 4,-1 10,1 14,0 3,-1 4,-3 1,-4 1,-1 6,-4 6,-4 0,-3 -5,-8 -4,-10 0,0 2,-1 2,-1 0,2 4,-4 4,-4 2,-5 -4,-7 -3,-10 2,0 8,2 9,-1 1,-3 -2,-18 -4,-18 5,-6 18,10 22,6 4,0 6,0 6,-4 -1,-2 -4,0 -5,-2 1,-5 4,-6 8,-8 2,-1 2,-3 3,-5 3,0 4,-2 7,-3 7,-2 2,-2 4,-3 0,0 11,-1 11,-2 1,2 -8,5 -7,9 0,6 8,-2 11,-3 4,-7 12,-3 19,-4 1,-2 -2,-1 -1,-3 3,0 6,-1 7,-3 1,-1 0,-3 -3,-2 0,-2 -3,-15 -8,-9 -2,3 2,9 2,12 -2,0 -4,0 -7,0 -1,0 -2,0 -4,0 -1,-2 -2,-2 -5,-3 -1,-1 -3,-6 -4,-6 1,-1 2,-3 2,-4 0,-1 -6,-2 -7,-2 3,0 13,-2 8,-6 -3,-4 -9,0 -13,1 -4,2 -7,4 -11,6 -1,1 -5,1 -7,1 0,-2 7,-7 9,-8 3,-2 6,-1 8,-5 1,-3 2,-4 5,-4 4,0 11,-2 15,-2 7,0 13,4 20,2 3,-1 5,-4 7,-7 3,0 6,0 9,0 4,-1 7,-4 6,-7 -1,-3 0,-12 -7,-8 -1,-1 -1,-5 -6,-4 1,-1 3,-2 4,-3 -2,-2 -15,-3 -18,-2 0,-2 2,-5 -1,-8 -2,-1 -8,-1 -7,-5 3,4 7,-2 0,-4 0,-1 5,0 0,-4 -1,0 -5,-3 -4,-4 1,-3 -11,-14 -14,-2 0,2 -13,6 -14,4 -2,-3 -3,-2 -5,-1 -1,0 -3,-1 -5,-2 0,-2 4,-1 3,-6 -1,-5 -2,-3 0,-7 2,-2 -13,0 -11,-5 -4,-2 -8,-6 -13,-5 -4,2 -6,5 -10,4 -3,-1 -7,-5 -10,-2 -1,2 -2,4 1,5 -1,2 -2,4 -3,6 1,0 2,1 3,0 0,2 0,3 1,5 -1,1 -1,3 -2,3 -1,5 -8,5 -1,8 5,3 13,9 10,15 -2,4 -16,7 -21,8 -1,5 2,5 3,9 0,3 1,5 1,8 0,5 -3,3 -5,5 -3,3 -5,-2 -8,-4 -4,-2 -5,-4 -4,-8 0,-4 1,-11 -3,-12 -8,-1 -17,1 -23,-3 -4,-3 -6,-7 -11,-8 -2,0 -5,2 -7,3 -1,1 -4,0 -5,1 2,-2 0,-11 -5,-11 -5,1 -6,-6 -5,-8 2,-3 10,-5 11,-8 0,-1 9,-8 6,-8 9,-3 7,-3 -1,-5 1,-1 3,-3 6,-3 4,1 8,3 6,-2 6,2 12,-2 14,-7 -1,-1 -13,-1 -12,-3 4,1 9,3 14,0 3,-3 6,-4 2,-6 4,-1 9,-1 13,-1 -1,-2 -2,-3 -4,-3 2,-2 4,1 6,1 4,1 6,-1 9,-3 5,-7 -7,-4 -5,-9 1,-1 3,-1 4,0 2,0 3,1 3,-2 1,-3 -2,-2 -5,-3 -5,-1 -19,3 -10,5 -1,1 -3,1 -4,2 -1,2 -3,4 -4,5 -3,4 -6,5 -9,0 0,0 6,-8 -1,-6 -3,1 -5,4 -7,6 1,-2 -2,-4 1,-5 -1,-2 -3,-1 -5,0 -1,0 -2,0 -2,0 -1,-3 3,-1 3,-3 -1,-3 -4,-1 -3,-4 0,-4 -7,-1 -8,-1 -3,2 -5,5 -8,7 0,1 1,1 1,1 0,1 -4,3 1,4 1,0 3,0 5,-1 2,0 3,0 5,0 0,1 -7,3 -7,3 0,1 1,1 2,1 1,0 1,-1 2,0 -2,2 -6,3 -8,5 -4,2 -1,2 -2,5 -4,0 -2,-3 -1,-5 -3,0 -10,0 -10,4 -2,1 -14,7 -17,5 -6,-3 -13,5 -17,10l0 -1c-8,0 -12,7 -19,8 1,-1 2,-2 4,-4 -3,-2 -16,9 -18,12 -9,10 -3,-2 -13,-3 -1,1 2,2 2,4 -2,0 -7,2 -8,3 -2,0 -6,1 -9,3 0,1 -1,2 -2,3 0,0 0,0 0,0 -13,17 -24,34 -33,52 4,0 8,0 9,1 -1,5 11,3 10,6 2,-1 0,6 0,6 -1,2 -2,4 -2,6 2,-1 1,-5 3,-6 0,1 0,8 -1,9 1,3 -2,14 -1,15 1,1 4,6 3,7 -1,2 0,10 0,13 -1,4 -2,8 -2,12 -2,6 -3,13 -2,20 1,8 4,15 6,23 2,6 4,2 6,7 3,5 4,13 7,19 1,2 9,13 3,12 -1,6 9,6 9,12 1,7 7,9 9,16 5,0 -1,-8 -1,-9 -3,0 -5,-9 -5,-13 -3,-1 -5,-8 -6,-11 -3,-5 -6,-9 -5,-15 6,2 7,8 10,14 1,3 2,8 4,9 3,3 4,5 4,9 7,4 12,15 15,22 2,4 -1,7 1,10 3,4 7,5 9,9 7,2 13,7 20,11 3,2 7,4 11,5 3,1 5,-2 9,-2 6,0 11,10 16,13 2,0 18,7 18,5 1,0 9,12 11,13 1,3 -2,3 1,5 0,0 1,1 2,2 3,-2 7,-3 10,-5 -2,-2 -3,-5 -2,-8z"/>
  <path class="fil19" d="M607 3053c-2,-6 -11,-1 -15,-3 -3,-2 -6,-7 -11,-6 -5,0 -9,-1 -14,-2 -4,-1 -5,4 -8,4 0,-5 -5,-7 -11,-6 -2,-3 -6,-2 -9,0 0,-1 1,-2 1,-3 -3,-3 -6,0 -9,0 -2,2 -5,5 -10,5 2,-6 8,-7 11,-12 2,-2 -4,-5 -4,-8 -3,-7 -3,-6 -9,-10 -4,-3 -9,-5 -14,-5 -5,0 -5,2 -10,0 -2,-1 -8,-3 -12,-2 2,-9 -8,-11 -13,-10 1,-2 2,-3 4,-4 -1,-1 -3,-2 -4,-2 2,-1 1,-5 2,-6 -5,-1 -7,6 -9,3 1,-1 3,0 3,-2 -4,-2 -11,-1 -14,1 -4,3 -9,-2 -13,-2 -4,1 -6,2 -8,-2 -1,-2 -4,-3 -7,-2 -1,-1 -1,-6 -4,-4 -1,1 -1,3 1,3 -2,2 -6,1 -8,3 -1,0 -2,-3 0,-4 8,-2 -3,-4 -4,-7 -2,-1 -3,-3 -5,-3 -6,-3 -15,0 -21,1 -2,-3 -5,-6 -7,-9 -3,2 -7,3 -10,5 2,0 3,1 3,-1 1,5 5,1 5,7 1,2 6,2 7,2 1,0 2,1 3,1 2,1 3,2 5,3 2,2 2,1 6,1 0,-1 -1,-3 -2,-5 5,0 4,-2 9,-1 0,2 3,6 2,7 -4,1 -8,0 -11,3 -1,2 -1,7 -3,7 -3,0 -5,3 -5,5 -1,-1 -2,-1 -3,-2 -2,2 3,3 1,4 -1,1 -2,1 -3,3 0,2 3,5 4,7 0,3 1,10 0,13 -1,1 -7,5 -5,5 -3,0 -1,3 -5,4 -2,-1 -3,0 -2,3 -1,2 -7,11 -2,12 1,1 5,1 5,1 0,4 -5,3 -7,6 0,3 6,6 2,6 1,3 4,3 6,4 1,3 3,5 5,7 3,4 7,7 9,12 5,4 6,10 11,13 3,4 8,6 13,8 5,2 9,4 14,7 1,2 4,10 2,13 -1,0 -2,15 -1,16 0,3 -4,-2 0,3 0,1 0,2 0,3 0,0 -3,5 -5,4 0,1 1,1 2,2 22,3 44,3 66,2 -2,-1 -2,-3 -5,-2 8,-2 14,2 22,-2 2,-1 4,-4 7,-5l-1 0c5,0 15,-8 15,-11 1,-9 14,-10 18,-16 10,-2 14,2 20,-4 6,-5 7,-9 11,-14 2,-4 -4,-11 -2,-15 4,-1 12,-2 13,-6 9,-3 20,-12 17,-21z"/>
  <path class="fil19" d="M256 2635c5,1 4,3 7,6 1,-1 11,-13 12,-12 -1,1 -1,2 -2,2 0,0 1,0 1,0 -1,1 -2,3 -3,4 3,0 8,-2 10,-3 4,-2 9,-5 12,-8 4,1 7,-4 10,-4 5,0 10,-2 13,-6 -2,-2 -4,2 -5,1 2,-2 10,-3 9,-6 -3,-1 -7,2 -10,0 3,-2 1,-4 1,-6 -6,-1 -7,4 -9,8 -2,0 -1,-2 -1,-2 -4,0 -5,3 -8,5 0,0 -11,6 -15,5 -4,0 -5,-3 -9,-2 -1,0 -2,0 -3,0 -2,2 -4,4 -6,5 0,1 0,2 -1,3 -2,4 -2,2 -3,7 0,1 -5,3 0,3z"/>
  <path class="fil19" d="M242 2641c-1,1 -3,3 -4,4 3,-1 6,-2 6,-3 0,-1 -1,-1 -2,-1z"/>
  <path class="fil19" d="M755 2761c1,-3 0,-6 -1,-8 -2,2 -1,6 1,8z"/>
  <path class="fil19" d="M705 2677c-1,-1 0,-4 1,-3 -4,4 9,10 8,15 -1,-1 -2,-1 -3,0 1,1 1,2 2,4 -1,0 -2,0 -3,0 1,4 6,3 7,6 -1,0 -2,0 -3,-1 -3,9 -3,2 4,7 0,-1 0,-2 0,-2 4,1 6,3 10,4 1,-1 0,-6 0,-7 -2,-4 -6,-9 -8,-12 -3,-4 -6,-8 -9,-12 -1,-7 -3,-5 -6,-10 1,0 1,-1 2,-2 -3,-1 -5,-2 -7,-3 0,1 1,2 1,3 0,0 -1,0 -1,0 0,2 3,12 5,13z"/>
  <path class="fil19" d="M768 2804c-1,-3 -3,-6 -5,-6 -4,-1 3,-18 -5,-18 -2,1 -6,-1 -9,-1 -4,-1 -7,0 -10,2 1,2 -12,4 -14,-2 -2,-3 5,-3 6,-3 6,1 5,-4 7,-8 2,-2 0,-3 -1,-5 1,-2 2,-4 2,-7 8,1 1,-7 5,-9 1,1 3,2 5,3 1,-1 2,-2 3,-4 4,6 5,12 8,17l0 1c-6,-22 -15,-43 -25,-63 -1,1 -3,3 -2,6 -4,-2 -3,3 -5,4 -2,1 -2,0 -3,-1 -1,-1 -1,-1 -2,-1 0,1 1,3 1,5 -3,-3 -4,-2 -8,-3 -1,4 9,11 11,15 2,3 5,12 3,15 -5,-3 -19,-8 -23,-5 0,3 3,12 3,15 1,2 0,9 -1,11 7,4 -2,12 10,10 5,6 5,13 -1,18 -6,3 -3,6 -6,10 -4,4 2,9 -2,14 -3,4 -8,5 -9,9 -2,6 -8,8 -8,15 -5,3 -4,7 -7,11 -3,2 -1,7 -1,10 0,0 1,0 2,1 1,2 1,11 1,13 0,4 -1,12 -3,15 -4,5 1,6 -1,11 -1,4 1,9 6,8 -3,6 8,9 7,17 1,5 9,10 14,13 4,4 7,1 10,-1 3,-2 6,-5 10,-2 2,1 15,-10 17,-12 2,2 2,6 2,8 3,0 4,-1 6,-3 1,9 -5,17 -5,25 0,1 0,1 0,1 18,-47 24,-99 17,-149z"/>
  <path class="fil19" d="M693 2687c5,8 20,7 12,-4 4,0 -5,-10 -7,-10 -1,1 -2,2 -3,3 1,0 2,0 2,1 -1,0 -3,-1 -5,-1 -1,2 7,12 1,11z"/>
  <path class="fil19" d="M489 2542c-3,1 -5,1 -8,0 -5,0 -10,0 -14,3 2,-1 4,0 6,1 -1,0 -1,0 -2,0 -2,0 -4,0 -5,1 1,0 2,0 2,0 1,0 5,3 4,4 13,2 21,-5 32,4 0,0 -5,4 -4,4 4,-1 5,-1 8,0 -1,0 -2,0 -2,0 1,1 3,1 4,2 0,0 -5,0 -4,1 1,0 2,0 2,0 -1,1 -1,1 -2,2 1,0 1,0 2,0 -1,0 -2,0 -3,0 -2,1 6,2 10,2 0,-1 1,-1 1,-1 0,1 0,1 -1,1 0,0 0,0 0,0 3,1 9,1 11,4 -2,-1 -1,0 -1,0 0,1 1,1 -3,0 -3,-1 -9,-3 -12,0 1,0 1,0 2,1 -3,0 -5,7 -5,7 2,2 15,1 17,-3 -2,-1 -3,-2 -5,-2 3,0 5,0 7,1 -1,0 -1,0 -1,1 0,1 1,0 1,0 1,0 1,0 1,0 2,7 -8,5 -11,7 3,0 -1,2 -2,3 -1,2 0,3 1,2 0,1 -1,1 -1,1 2,2 6,0 7,2 -8,0 -3,5 4,6 0,4 -2,5 2,6 -3,0 -3,1 -1,3 1,2 3,4 3,3 1,3 0,2 2,3 1,1 5,1 5,2 -1,3 0,6 0,9 4,1 7,-3 8,0 1,1 2,2 3,2l0 0 0 0c-3,3 6,3 7,3 0,1 1,2 2,2 2,0 2,1 0,2 4,0 7,0 10,-1 0,0 0,1 0,2 3,0 2,-3 3,-3 0,0 5,1 5,1 -1,1 -2,2 -3,3 3,0 5,1 8,1 -3,4 1,2 4,4 2,-1 3,-1 5,-1 1,0 3,0 4,0 1,-3 0,-3 0,-2 -1,0 -1,0 0,0 0,-1 1,-2 2,-3 -1,-2 -3,-1 -2,-6 2,-5 -2,-4 -4,-8 1,0 2,-1 3,-1 0,-1 0,-2 -1,-2 2,-1 5,0 6,-4 -2,-1 -3,-2 -5,-4 1,1 3,1 4,0 -1,-1 -3,-2 -4,-3 1,0 3,0 4,-1 -1,-1 -1,-2 -2,-3 6,2 10,6 16,6 0,-1 0,-9 0,-10 1,1 2,2 4,2 1,-4 -2,-7 1,-9 3,1 6,2 8,1 0,0 5,-1 7,-2 -43,-27 -91,-42 -140,-46z"/>
  <path class="fil19" d="M764 2778c-1,0 -1,0 -1,1 0,2 1,4 2,5 -1,-2 -1,-4 -1,-6z"/>
  <path class="fil19" d="M758 2772c0,-6 -1,-8 -4,-10 1,3 1,7 3,10 0,-1 0,-1 1,0z"/>
  <path class="fil19" d="M404 2552c3,-1 6,-2 9,-2 -2,1 -6,1 -9,2 -2,0 -4,1 -6,1 -1,1 -3,1 -4,2 1,0 1,1 0,2 1,0 4,-1 2,-2 1,0 9,-1 10,0 -2,0 -17,2 -17,5 3,0 10,-2 12,0 -3,1 -26,2 -25,9 4,-1 10,-3 14,-4 4,0 9,-2 14,-3 5,-1 16,1 19,-5 -5,0 -11,3 -16,1 4,-1 9,0 13,-1 3,-1 3,-3 6,-3 3,0 10,-2 12,-5 -3,0 -7,1 -9,0 5,-1 10,0 15,-2 -1,0 -2,0 -3,0 4,0 22,-4 31,-5 0,0 -1,0 -1,-1 -9,0 -18,1 -26,1 -8,1 -16,3 -24,5 -8,1 -18,2 -25,6 1,0 2,0 2,0 2,0 4,-1 6,-1z"/>
  <path class="fil19" d="M393 2554c1,0 1,0 2,-1 -1,0 -3,1 -2,1z"/>
  <path class="fil19" d="M365 2566c0,0 1,0 1,0l0 0c0,0 0,0 0,-1 5,-1 12,-2 15,-2 3,-3 8,-5 12,-6 -1,0 -3,-1 -3,-1 0,0 0,-1 1,-1 -1,0 -2,1 -2,1 -2,0 -4,1 -6,1l1 0 -1 1 1 -1c0,0 -2,1 -1,1 -1,0 1,-1 1,-1 -9,3 -23,7 -23,11 1,-1 2,-2 4,-2z"/>
  <path class="fil19" d="M658 2616c0,-2 -5,-5 -6,-6 -1,-1 -1,-1 -2,0 0,0 0,1 -3,-1 -1,0 -9,-3 -10,-3 1,1 1,2 1,2 0,-1 -8,-6 -10,-7 -1,2 1,2 1,2 -2,0 -5,-2 -5,1 1,3 8,0 9,4 -1,0 -1,0 -2,0 -2,0 -3,-1 -4,1 3,1 7,1 8,4 -1,-1 -2,0 -2,1 3,1 31,12 30,6 0,0 0,-1 -1,-2 -1,-1 -2,-2 -4,-2z"/>
  <path class="fil19" d="M425 2908c0,-4 -5,-4 -8,-4 -1,-1 1,-2 0,-3 -3,-1 -7,-2 -10,-3 -1,-2 -4,-3 -6,-4 -4,-1 -8,-5 -12,-4 -5,0 -9,-3 -15,-1 -2,0 -10,5 -8,9 3,0 11,-5 14,-6 1,4 7,3 11,6 4,1 7,-1 9,3 1,4 4,2 7,4 -1,2 -3,2 -3,4 7,-1 14,0 21,-1z"/>
  <path class="fil19" d="M404 2920c0,0 10,2 9,-1 -2,-4 -18,-4 -9,1z"/>
  <path class="fil19" d="M431 2919c2,0 4,1 6,0 1,2 2,3 4,3 1,-9 17,1 17,-6 -4,-4 -12,-8 -17,-7 -3,0 -12,-3 -13,1 0,0 6,6 6,6 -4,2 -8,-2 -11,-1 -1,6 5,4 8,4z"/>
  <path class="fil19" d="M464 2918c0,5 11,3 10,0 -1,0 -10,-4 -10,0z"/>
  <path class="fil19" d="M289 2607c-2,0 -7,-1 -8,3 4,3 17,-1 15,-6 -1,-1 -2,-1 -3,-2 -3,0 -5,0 -8,2 -1,0 3,3 4,3z"/>
  <path class="fil19" d="M362 2578c10,-1 18,-6 27,-6 3,0 7,-1 9,-3 2,2 6,0 9,0 3,-1 4,-2 8,-4 -9,-3 -18,0 -26,3 -4,1 -6,1 -10,2 -2,1 -8,0 -10,2 1,-2 4,-1 5,-3 -4,0 -8,2 -12,3 0,3 2,1 2,2 -1,2 -2,1 -2,4z"/>
  <path class="fil19" d="M429 2598c-5,-2 -12,-1 -12,5 5,2 12,1 12,-5z"/>
  <path class="fil19" d="M463 2584c-2,1 -5,2 -7,1 2,0 4,-1 5,-2 0,-2 -4,-2 -7,-1 -3,0 -8,3 -9,1 3,0 -4,-8 -6,-2 -1,-3 -3,-3 -5,-2 -1,0 -2,0 -3,0 1,0 3,-1 4,-2 -3,-3 -21,-5 -21,2 -2,-1 -4,-1 -5,0 -2,1 -3,1 -4,0 1,-1 2,-3 3,-4 -5,-5 -15,-1 -19,2 0,0 1,0 2,1 -2,0 -6,0 -6,3 0,0 1,0 2,1 -2,0 -3,1 -3,2 0,2 3,0 4,2 -2,2 -4,2 -6,1 1,0 2,0 3,-1 -1,-2 -4,-3 -5,-5 3,-3 6,-3 8,-6 -6,1 -23,5 -20,12 -2,0 -3,1 -4,3 2,0 3,0 4,0 2,-1 4,-1 6,0 -2,2 -7,0 -7,3 2,2 6,1 8,0 3,-1 2,0 3,0 0,1 1,1 5,1 6,-1 13,-2 20,-2 0,-3 2,-2 4,-2 1,1 3,1 4,0 5,-2 -1,-2 -1,-3 2,-1 14,4 16,5 -2,1 -4,1 -5,1 -1,5 4,2 6,1 5,-1 4,2 8,3 11,2 2,10 -5,12 0,2 5,3 4,4 -6,1 -10,2 -15,2 -3,0 -9,2 -8,6 3,1 17,-2 17,-4 0,-2 15,6 16,8 -1,0 -1,1 -1,2 4,3 10,2 13,7 6,-1 12,1 17,1 0,-7 -5,-7 -15,-10 6,2 15,0 16,1 2,2 2,5 6,5 0,-1 0,-5 -1,-5 1,0 2,0 2,0 1,-4 -2,-4 -4,-7 0,0 1,0 1,-1 -2,0 -16,-8 -15,-9 1,1 3,1 4,1 1,-3 -2,-2 -2,-4 5,-1 10,-2 14,1 3,2 4,8 8,8 0,-2 -2,-3 -1,-4 2,-1 5,-1 7,-1 2,-1 -2,-2 0,-3 4,1 7,-2 2,-4 -4,-1 -5,0 -7,-2 -2,0 -5,1 -8,0 2,0 3,0 4,-1 -4,-6 -17,-4 -23,-7 1,-1 2,-1 3,-1 0,-1 -3,-2 -2,-2 3,1 5,1 8,1 0,-3 -1,-3 -3,-3 -2,0 -3,0 -4,-1 10,0 3,-3 0,-3z"/>
  <path class="fil19" d="M384 2629c2,0 15,7 15,0 -3,-1 -5,-1 -8,-1 1,-5 -5,-2 -9,-3 -6,-3 0,-2 -5,-2 0,-2 -1,-3 -3,-4 -1,3 -3,5 -4,8 -2,5 -4,3 -6,8 3,0 6,-2 8,-2 0,1 0,2 0,3 4,0 7,-4 11,-4 1,-1 -1,-3 1,-3z"/>
  <path class="fil19" d="M339 2609c-2,0 -6,-3 -9,-3 -1,2 -6,5 -7,7 6,-1 12,1 16,-4z"/>
  <path class="fil19" d="M391 2555c0,0 0,0 1,0 -1,0 -1,0 -1,0z"/>
  <path class="fil19" d="M360 2579c-4,-1 -32,4 -33,7 8,-1 30,6 33,-7z"/>
  <path class="fil19" d="M529 2707c0,0 -1,0 -1,0 -4,1 -6,4 -8,8 -1,3 -3,7 -4,8 -1,1 -1,1 -1,1 -1,1 -1,2 0,4 -2,0 -4,1 -4,3 -1,0 -1,1 -1,1 1,1 2,2 4,2 0,0 1,0 1,0 1,0 1,0 2,0 0,0 1,0 1,0 0,0 1,0 1,0 0,0 0,0 1,0 1,0 3,0 4,0 2,0 4,0 5,0 2,0 3,0 3,0 1,0 2,0 2,0 0,0 0,0 -1,0 -1,1 -3,3 -4,4 1,0 2,1 3,1 1,0 2,-1 4,-2l0 -1c1,-1 2,-1 4,-1 0,0 0,0 0,0 0,4 -1,4 4,5 1,0 1,1 2,1 1,0 2,-2 2,-4 1,-5 -5,-4 -6,-5 0,-2 1,-2 2,-2 1,-1 2,-1 2,-3 -1,0 -1,0 -1,0 -1,0 -1,0 -2,0 0,0 -1,0 -1,0l-1 0c0,-2 4,-5 0,-6 -1,0 -2,0 -2,0 -1,0 -2,0 -3,0 0,0 -1,0 -2,0 -1,0 -2,0 -4,-1 6,-2 -1,-2 -4,-2 0,0 0,0 0,0 1,-2 4,-6 6,-8 0,-1 1,-2 1,-3 -2,0 -3,0 -4,0z"/>
  <path class="fil0" d="M1092 1551l0 167 188 0 0 -251 -103 0 -85 84zm88 4l0 -76 88 0 0 228 -165 0 0 -152 77 0z"/>
  <polygon class="fil0" points="1120,1600 1247,1600 1247,1589 1120,1589 "/>
  <polygon class="fil0" points="1120,1635 1247,1635 1247,1625 1120,1625 "/>
  <polygon class="fil0" points="1120,1670 1247,1670 1247,1660 1120,1660 "/>
  <polygon class="fil19" points="1909,3831 2265,3831 2265,3632 1909,3632 "/>
  <polygon class="fil16" points="2085,3651 1909,3831 2265,3831 "/>
  <polygon class="fil27" points="2018,3719 1909,3632 2260,3632 2152,3719 2085,3651 "/>
  <polygon class="fil28" points="2086,3773 2018,3719 2085,3651 2152,3719 "/>
  <polygon class="fil29" points="2260,3632 1909,3632 2085,3754 "/>
  <path class="fil26" d="M1350 503l-16 0c-2,-9 -6,-17 -11,-25l0 0 12 -11c2,-3 2,-7 0,-9l-20 -20c-3,-3 -7,-3 -9,0l-12 11c-8,-5 -16,-8 -25,-10l0 -16c0,-4 -3,-7 -6,-7l-28 0c-4,0 -7,3 -7,7l0 16c-9,2 -17,6 -25,10l0 0 -11 -11c-3,-3 -7,-3 -9,0l-20 20c-3,2 -3,6 0,9l11 11c-4,8 -8,17 -10,25l-16 0c-4,0 -7,3 -7,7l0 28c0,3 3,6 7,6l16 0c2,9 6,18 11,25l-1 0 -11 12c-2,2 -2,6 0,9l20 20c2,2 6,2 9,0l11 -12c8,5 17,8 25,11l0 16c0,3 3,6 7,6l28 0c4,0 6,-3 6,-6l0 -16c9,-3 18,-6 25,-11l0 0 12 12c2,2 6,2 9,0l20 -20c2,-3 2,-7 0,-9l-12 -12c5,-8 9,-16 11,-25l16 0c3,0 6,-3 6,-6l0 -28c0,-4 -3,-7 -6,-7z"/>
  <path class="fil30" d="M1249 549c-14,0 -25,-11 -25,-25 0,-14 11,-25 25,-25 14,0 25,11 25,25 0,14 -11,25 -25,25zm0 -78c-29,0 -53,23 -53,53 0,29 24,53 53,53 29,0 53,-24 53,-53 0,-30 -24,-53 -53,-53z"/>
  <path class="fil30" d="M1249 597c-40,0 -72,-32 -72,-72 0,-40 32,-72 72,-72 40,0 72,32 72,72 0,40 -32,72 -72,72zm0 -147c-42,0 -75,33 -75,75 0,41 33,75 75,75 41,0 75,-34 75,-75 0,-42 -34,-75 -75,-75z"/>
  <path class="fil3" d="M3670 2751c0,1 0,3 0,4 0,3 0,7 0,10 -6,112 -78,205 -177,243 -1,1 -2,1 -3,1 -3,1 -7,3 -10,4 -1,0 -2,0 -3,1 -7,2 -13,3 -20,5 -2,0 -4,1 -6,1 -6,2 -12,3 -17,3 -1,0 -3,1 -4,1 -2,0 -4,0 -7,1 -1,0 -2,0 -3,0 -2,0 -5,0 -7,0 -6,1 -12,1 -18,1 -6,0 -12,0 -17,-1 -3,0 -5,0 -7,0 -2,0 -3,0 -4,0 -2,-1 -4,-1 -7,-1 -1,0 -2,-1 -3,-1 -6,0 -12,-1 -17,-3 -2,0 -5,-1 -7,-1 -6,-2 -13,-3 -19,-5 -2,-1 -3,-1 -4,-1 -3,-1 -6,-3 -9,-4 -1,0 -2,0 -3,-1 -100,-38 -171,-131 -177,-243 0,-3 0,-5 0,-8 0,-1 0,-2 0,-2 0,-1 0,-1 0,-1 0,-1 0,-2 0,-3 0,-3 0,-6 0,-9 0,-1 0,-2 0,-4 0,0 0,0 0,-1 0,-2 0,-5 0,-7 0,-1 1,-2 1,-3 0,-3 0,-5 0,-7 1,-3 1,-5 1,-7 1,-4 1,-7 2,-10 5,-30 15,-59 30,-84 0,-1 1,-2 1,-3 6,-10 12,-19 19,-28 0,-1 0,-1 1,-2 6,-8 13,-16 20,-24l0 0c10,-11 21,-20 32,-29 5,-4 11,-8 16,-11 6,-4 12,-7 17,-11 2,-1 4,-2 6,-3 2,-1 4,-2 6,-3 1,-1 3,-1 4,-2 3,-1 5,-2 7,-3 1,0 2,-1 2,-1 2,-1 4,-1 5,-2 2,-1 5,-2 7,-3 1,0 2,0 3,-1 1,0 2,-1 4,-1 2,-1 3,-1 5,-2 1,0 2,-1 4,-1 2,-1 4,-1 6,-2 5,-2 11,-3 17,-4 2,-1 4,-1 6,-1 2,-1 5,-1 7,-2 3,0 7,-1 10,-1 3,0 5,-1 7,-1 1,0 2,0 4,0 2,-1 4,-1 7,-1 5,0 11,0 17,0 6,0 12,0 18,0 2,0 5,0 7,1 1,0 2,0 3,0 3,0 5,1 7,1 4,0 7,1 10,1 3,1 5,1 7,2 2,0 5,0 7,1 6,1 11,2 16,4 3,1 5,1 7,2 1,0 2,1 3,1 2,1 4,1 6,2 1,0 2,1 4,1 1,1 2,1 3,1 2,1 4,2 6,3 2,1 4,1 5,2 1,0 2,1 2,1 3,1 5,2 7,3 2,1 3,1 4,2 2,1 4,2 6,3 2,1 4,2 6,3 6,4 12,7 17,11 6,3 11,7 16,11 12,9 22,18 32,29l0 0c7,8 14,16 21,24 0,1 0,1 1,2 7,9 13,18 19,28 0,1 0,2 1,3 14,25 24,54 30,84 0,3 1,6 1,10 1,2 1,4 1,7 0,2 1,4 1,7 0,1 0,2 0,3 0,2 0,5 1,7 0,5 0,10 0,14z"/>
  <path class="fil1" d="M3167 2751c0,126 102,229 228,229 126,0 229,-103 229,-229 0,-126 -103,-228 -229,-228 -126,0 -228,102 -228,228z"/>
  <path class="fil3" d="M3214 2751c0,100 81,181 181,181 100,0 181,-81 181,-181 0,-100 -81,-181 -181,-181 -100,0 -181,81 -181,181z"/>
  <path class="fil1" d="M3258 2751c0,76 61,138 137,138 76,0 137,-62 137,-138 0,-76 -61,-137 -137,-137 -76,0 -137,61 -137,137z"/>
  <path class="fil3" d="M3299 2752c0,53 43,96 96,96 53,0 96,-43 96,-96 0,-53 -43,-96 -96,-96 -53,0 -96,43 -96,96z"/>
  <path class="fil1" d="M3349 2749c0,25 21,46 46,46 26,0 46,-21 46,-46 0,-25 -20,-46 -46,-46 -25,0 -46,21 -46,46z"/>
  <path class="fil31" d="M3436 2839l0 0c29,-14 50,-41 54,-74l0 0c-4,33 -25,60 -54,74z"/>
  <path class="fil32" d="M3436 2839l-69 -53 0 0c8,6 18,9 28,9 26,0 46,-20 46,-46 0,0 0,0 0,0 0,0 0,0 0,0 0,-13 -6,-26 -15,-34l64 50c-4,33 -25,60 -54,74z"/>
  <path class="fil31" d="M3441 2749c0,-14 -7,-28 -17,-36l0 0 2 2c9,8 15,21 15,34 0,0 0,0 0,0z"/>
  <path class="fil31" d="M3405 2932l-1 0c96,-5 172,-84 172,-181 0,-12 -1,-24 -3,-35l0 0c2,11 3,23 3,36 0,96 -76,176 -171,180z"/>
  <path class="fil32" d="M3404 2932l-91 -71c23,17 51,28 82,28 76,0 138,-62 138,-137 0,-38 -16,-72 -40,-97 -3,-3 -5,-5 -8,-8l88 69c2,11 3,23 3,35 0,97 -76,176 -172,181z"/>
  <path class="fil31" d="M3493 2655c-3,-3 -6,-5 -9,-8l1 0c3,3 5,5 8,8z"/>
  <path class="fil33" d="M3377 3025c0,0 -1,0 -2,0 1,0 2,0 2,0zm289 -322c0,-1 0,-1 0,-1 0,0 0,0 0,1zm-1 -1c0,0 0,-1 0,-1 0,0 0,1 0,1zm0 -1c0,0 0,0 0,0 0,0 0,0 0,0zm0 -1c0,0 0,0 0,0 0,0 0,0 0,0z"/>
  <path class="fil32" d="M3395 3026c-6,0 -12,0 -17,-1l0 0c-1,0 -1,0 -1,0 0,0 -1,0 -2,0 0,0 0,0 0,0l-125 -97 0 0c40,32 90,52 145,52 124,0 225,-99 229,-221 0,-3 0,-5 0,-8l0 0c0,0 0,0 0,0 0,0 0,0 0,0 0,0 0,0 0,-1 0,0 0,0 0,0 0,0 0,0 0,0 0,0 0,0 0,0 0,0 0,0 0,0 0,0 0,0 0,-1 0,0 0,0 0,0l0 0c0,0 0,0 0,0 0,0 0,0 0,0 0,-1 0,-1 0,-1 0,0 0,0 0,0 0,0 0,0 0,0 0,0 0,0 0,0 0,0 0,-1 0,-1 0,0 0,0 0,0 0,0 0,0 0,-1 0,0 0,0 0,0 0,0 0,0 0,0 0,0 0,0 0,0 0,0 0,0 0,0 0,0 0,0 0,-1 0,0 0,0 0,0 0,0 0,0 0,0 0,0 0,0 0,0 0,0 0,0 0,0 0,0 0,-1 0,-1 0,0 0,0 0,0 0,0 0,0 0,0 0,0 0,0 0,0 0,0 0,0 0,-1 0,0 0,0 0,0 0,0 0,0 0,0 0,0 0,0 0,0 0,0 0,0 0,0 0,-1 0,-1 0,-1 0,0 0,0 0,0 0,0 0,0 0,0 0,0 0,0 0,0 0,0 0,0 0,-1 0,0 0,0 0,0 0,0 0,0 0,0 0,0 0,0 0,0 0,0 0,0 0,0 0,0 0,-1 0,-1 0,0 0,0 0,0 0,0 0,0 0,0 -1,0 -1,0 -1,0 0,0 0,0 0,-1 0,0 0,0 0,0 0,0 0,0 0,0 0,0 0,0 0,0 0,0 0,0 0,0 0,0 0,0 0,-1 0,0 0,0 0,0 0,0 0,0 0,0 0,0 0,0 0,0 0,0 0,0 0,0 0,-1 0,-1 0,-1 0,0 0,0 0,0 0,0 0,0 0,0 0,0 0,0 0,0 0,0 0,0 0,-1 0,0 0,0 0,0 0,0 0,0 0,0 0,0 0,0 0,0 0,0 0,0 0,-1 0,0 0,0 0,0 0,0 0,0 0,0 0,0 0,0 0,0 0,0 0,0 0,0 0,0 0,0 0,0 0,-1 0,-1 0,-1 0,0 0,0 0,0 0,0 0,0 0,0 0,0 0,0 0,0 0,0 0,-1 0,-1 0,0 0,0 0,0 0,0 0,0 0,0 0,0 0,0 0,0 0,0 0,0 0,0 0,-1 0,-1 0,-1 0,0 0,0 0,0 0,0 0,0 0,0 0,0 0,0 0,0 0,0 0,0 0,0 0,-1 0,-1 0,-1 0,0 0,0 0,0 0,0 0,0 0,0 0,0 0,0 0,0 0,-1 0,-1 0,-1 0,0 0,0 0,0 0,0 0,0 0,0 0,0 0,0 0,0 0,0 0,0 0,-1 0,0 0,0 0,0 0,0 0,0 0,0 0,0 0,0 0,0 0,0 0,0 0,0 0,0 0,-1 0,-1 0,0 0,0 0,0 0,0 0,0 0,0 0,0 0,0 0,0 0,0 0,0 0,0 0,0 0,-1 0,-1 0,0 0,0 0,0 0,0 0,0 -1,0 0,0 0,0 0,0 0,0 0,0 0,-1 0,0 0,0 0,0 0,0 0,0 0,0 0,0 0,0 0,0 0,0 0,0 0,0 0,0 0,0 0,-1 0,0 0,0 0,0 0,0 0,0 0,0 0,0 0,0 0,0 0,0 0,0 0,0 0,-1 0,-1 0,-1 0,0 0,0 0,0 0,0 0,0 0,0 0,0 0,0 0,0 0,0 0,0 0,-1 0,0 0,0 0,0 0,0 0,0 0,0 0,0 0,0 0,0 0,0 0,0 0,0 0,-1 0,-1 0,-1 0,0 0,0 0,0 0,0 0,0 0,0 0,0 0,0 0,0 0,0 0,0 0,0 0,-1 0,-1 0,-1 0,0 0,0 0,0 0,0 0,0 0,0 0,0 0,0 0,0 0,0 0,0 0,-1 0,0 0,0 0,0 0,0 0,0 0,0 0,0 0,0 0,0 0,0 0,0 0,0 0,0 0,-1 0,-1 0,0 0,0 0,0 0,0 0,0 0,0 0,0 -1,0 -1,0 0,0 0,0 0,0 0,-1 0,-1 0,-1 0,0 0,0 0,0 0,0 0,0 0,0 0,0 0,0 0,0 0,0 0,0 0,-1 0,0 0,0 0,0 0,0 0,0 0,0 0,0 0,0 0,0 0,0 0,0 0,0 0,0 0,0 0,-1 0,0 0,0 0,0 0,0 0,0 0,0 0,0 0,0 0,0 0,0 0,0 0,0 0,0 0,-1 0,-1 0,0 0,0 0,0 0,0 0,0 0,0 0,0 0,0 0,0 0,0 0,0 0,-1 0,0 0,0 0,0 0,0 0,0 0,0 0,0 0,0 0,0 0,0 0,0 0,0 0,0 0,0 0,-1 0,0 0,0 0,0 0,0 0,0 0,0 0,0 0,0 0,0 0,0 0,0 0,0 0,0 -1,-1 -1,-1 0,0 0,0 0,0 0,0 0,0 0,0 0,0 0,0 0,0 0,0 0,0 0,-1 0,0 0,0 0,0 0,0 0,0 0,0 0,0 0,0 0,0 0,0 0,0 0,0 0,0 0,0 0,0 0,-1 0,-1 0,-1 0,0 0,0 0,0 0,0 0,0 0,0 0,0 0,0 0,0 0,0 0,-1 0,-1 0,0 0,0 0,0 0,0 0,0 0,0 0,0 0,0 0,0 0,0 0,0 0,0 0,0 0,-1 0,-1 0,0 0,0 0,0 0,0 0,0 0,0 0,0 0,0 0,0 0,0 0,0 0,0 0,-1 0,-1 0,-1 0,0 0,0 0,0 -1,0 -1,0 -1,0 0,0 0,0 0,0 0,0 0,0 0,0 0,-1 0,-1 0,-1 0,0 0,0 0,0 0,0 0,0 0,0 0,0 0,0 0,0 0,0 0,0 0,-1 0,0 0,0 0,0 0,0 0,0 0,0 0,0 0,0 0,0 0,0 0,0 0,0 0,0 0,-1 0,-1 0,0 0,0 0,0 0,0 0,0 0,0 0,0 0,0 0,0 0,0 0,0 0,0 0,-1 0,-1 0,-1 0,0 0,0 0,0 0,0 0,0 0,0 0,0 0,0 0,0 0,0 0,0 0,0 0,-1 0,-1 0,-1 0,0 -1,0 -1,0 0,0 0,0 0,0 0,0 0,0 0,0 0,0 0,0 0,0 0,-1 0,-1 0,-1 0,0 0,0 0,0 0,0 0,0 0,0 0,0 0,0 0,0 0,0 0,0 0,-1 0,0 0,0 0,0 0,0 0,0 0,0 0,0 0,0 0,0 0,0 0,0 0,0 0,0 0,0 0,-1 0,0 0,0 0,0 0,0 0,0 0,0 0,0 0,0 0,0 0,0 0,0 0,0 0,0 0,-1 0,-1 0,0 0,0 0,0 0,0 0,0 0,0 0,0 0,0 -1,0 0,0 0,0 0,0 0,0 0,0 0,-1 0,0 0,0 0,0 0,0 0,0 0,0 0,0 0,0 0,0 0,0 0,0 0,0 0,-1 0,-1 0,-1 0,0 0,0 0,0 0,0 0,0 0,0 0,0 0,0 0,0 0,0 0,0 0,0 0,0 0,-1 0,-1 0,0 0,0 0,0 0,0 0,0 0,0 0,0 0,0 0,0 0,0 0,0 0,-1 0,0 0,0 0,0 0,0 0,0 0,0 0,0 0,0 -1,0 0,0 0,0 0,0 0,0 0,0 0,-1 0,0 0,0 0,0 0,0 0,0 0,0 0,0 0,0 0,0 0,0 0,0 0,0 0,0 0,-1 0,-1 0,0 0,0 0,0 0,0 0,0 0,0 0,0 0,0 0,0 0,0 0,0 0,0 0,0 0,0 0,-1 0,0 0,0 0,0 0,0 0,0 0,0 0,0 0,0 0,0 0,0 0,0 0,0 0,-1 0,-1 0,-1 0,0 0,0 -1,0 0,0 0,0 0,0 0,0 0,0 0,0 0,0 0,0 0,0 0,0 0,0 0,-1 0,0 0,0 0,0 0,0 0,0 0,0 0,0 0,0 0,0 0,0 0,0 0,-1 0,0 0,0 0,0 0,0 0,0 0,0 0,0 0,0 0,0 0,0 0,0 0,0 0,0 0,0 0,0 0,0 0,-1 0,-1 0,0 0,0 0,0 0,0 0,0 0,0l0 0c-1,0 -1,0 -1,-1 0,0 0,0 0,0 0,0 0,0 0,0 0,0 0,0 0,0 0,0 0,0 0,0 0,0 0,0 0,0 0,-1 0,-1 0,-1 0,0 0,0 0,0 0,0 0,0 0,0 0,0 0,0 0,0 0,0 0,0 0,-1 0,0 0,0 0,0 0,0 0,0 0,0 0,0 0,0 0,0 0,0 0,0 0,0 0,0 0,0 0,0 0,0 0,-1 -1,-1 0,0 0,0 0,0 0,0 0,0 0,0 0,0 0,0 0,0 0,0 0,0 0,-1 0,0 0,0 0,0 0,0 0,0 0,0 0,0 0,0 0,0 0,0 0,0 0,0 0,0 0,0 0,0 0,0 0,-1 0,-1 0,0 0,0 0,0 0,0 0,0 0,0 0,0 0,0 0,0 0,0 0,-1 0,-1 0,0 0,0 0,0 -1,0 -1,0 -1,0 0,0 0,0 0,0 0,0 0,0 0,0 0,0 0,0 0,0 0,0 0,-1 0,-1 0,0 0,0 0,0 0,0 0,0 0,-1 0,0 0,0 0,0 0,0 0,0 0,0 0,0 0,0 0,0 0,0 0,0 0,0 0,0 0,0 0,0 0,0 0,-1 0,-1l0 0c-1,0 -1,0 -1,-1 0,0 0,0 0,0 0,0 0,0 0,0 0,0 0,0 0,0 0,0 0,0 0,0 0,0 0,0 0,0 0,0 0,-1 0,-1 0,0 0,0 0,0 0,0 0,0 -1,-1 0,0 0,0 0,0 0,0 0,0 0,0 0,0 0,0 0,0 0,0 0,0 0,0 0,0 0,0 0,0 0,-1 0,-1 0,-2 0,0 0,0 0,0 0,0 0,0 0,0 0,0 0,0 0,0 0,0 0,0 0,0 0,0 0,0 0,0 -1,0 -1,-1 -1,-1l0 0c0,0 0,0 0,-1 0,0 0,0 0,0 0,0 0,0 0,0 0,0 0,0 0,0 0,-1 -1,-1 -1,-2l0 0c0,0 0,0 0,0 0,0 0,0 0,0 0,0 0,0 0,0 0,0 0,0 0,0 0,-1 0,-1 0,-1 0,0 0,0 0,0 -1,-1 -1,-1 -1,-1 0,0 0,0 0,0 0,0 0,0 0,0 0,0 0,0 0,0 0,0 0,0 0,0l0 0c0,-1 0,-1 0,-2 0,0 0,0 0,0 0,0 0,0 -1,0 0,0 0,0 0,0 0,0 0,0 0,0l0 0c0,-1 0,-1 0,-2 0,0 0,0 0,0 0,0 0,0 0,0l0 0c-10,-22 -23,-43 -39,-61l0 0c0,0 0,0 0,0l0 0c0,-1 -1,-1 -1,-2 0,0 0,0 0,0 0,0 0,0 0,0 0,0 0,0 0,0 -1,0 -1,-1 -1,-1 0,0 0,0 0,0 0,0 -1,0 -1,0 0,0 0,0 0,0 0,0 0,-1 0,-1 0,0 0,0 0,0 0,0 0,0 -1,-1 0,0 0,0 0,0 0,0 0,0 0,0 0,0 0,0 0,0 0,0 0,0 0,0 0,0 0,0 0,0 0,0 -1,-1 -1,-1 0,0 0,0 0,0 0,0 0,0 0,0 0,0 0,0 0,0 0,0 0,0 0,0 0,0 0,0 0,0 -1,-1 -1,-1 -1,-1 0,0 0,0 0,0 0,0 0,0 0,0 0,0 0,0 0,0 0,0 0,0 0,0 0,0 0,0 0,0 0,0 0,-1 -1,-1 0,0 0,0 0,0 0,0 0,0 0,0 0,0 0,0 0,0 0,0 0,0 0,0 0,0 0,0 0,0 0,0 0,0 0,0 0,0 0,-1 -1,-1 0,0 0,0 0,0 0,0 0,0 0,0 0,0 0,0 0,0 0,0 0,0 0,0 0,0 0,0 0,0 0,0 0,0 0,0 0,0 0,-1 0,-1 -1,0 -1,0 -1,0 0,0 0,0 0,0 0,0 0,0 0,0 0,0 0,0 0,0 0,-1 0,-1 0,-1 0,0 -1,0 -1,0 0,0 0,0 0,0 0,0 0,0 0,0 0,0 0,0 0,0 0,0 0,0 0,0 0,0 0,-1 -1,-1 0,0 0,0 0,0 0,0 0,0 0,0 0,0 0,0 0,0 0,0 0,0 0,0 0,0 0,0 0,0 0,-1 0,-1 -1,-1 0,0 0,0 0,0 0,0 0,0 0,-1 0,0 0,0 0,0 -1,0 -1,0 -1,0 0,0 0,0 0,0 0,0 -1,-1 -1,-1l0 0c-7,-7 -15,-13 -23,-19l1 0 125 97c4,12 7,24 9,36 0,0 0,0 0,0 0,0 0,1 0,1 0,0 0,0 0,0 0,0 0,0 0,0 0,0 0,1 0,1 0,0 1,0 1,0 0,0 0,0 0,1l0 0c0,3 1,6 1,10 1,2 1,4 1,7 0,2 1,4 1,7 0,1 0,2 0,3 0,2 0,5 1,7 0,5 0,10 0,14 0,1 0,3 0,4 0,3 0,7 0,10 -6,112 -78,205 -177,243 -1,1 -2,1 -3,1 -3,1 -7,3 -10,4 -1,0 -2,0 -3,1 -7,2 -13,3 -20,5 -2,0 -4,1 -6,1 -6,2 -12,3 -17,3 -1,0 -3,1 -4,1 -2,0 -4,0 -7,1 -1,0 -2,0 -3,0 -2,0 -5,0 -7,0 -6,1 -12,1 -18,1z"/>
  <path class="fil31" d="M3395 2980c-55,0 -105,-20 -145,-52l0 0c40,32 90,52 145,52 124,0 225,-99 229,-221 -4,122 -105,221 -229,221zm229 -229c0,0 0,0 0,0 0,0 0,0 0,0l0 0zm0 0c0,0 0,0 0,-1 0,1 0,1 0,1zm0 -1c0,0 0,0 0,0 0,0 0,0 0,0zm0 0c0,0 0,0 0,0 0,0 0,0 0,0zm0 -1c0,0 0,0 0,0 0,0 0,0 0,0zm0 0c0,0 0,0 0,0 0,0 0,0 0,0zm0 0c0,-1 0,-1 0,-1 0,0 0,0 0,1zm0 -1c0,0 0,0 0,0 0,0 0,0 0,0zm0 0c0,0 0,-1 0,-1 0,0 0,1 0,1zm0 -1c0,0 0,0 0,-1 0,1 0,1 0,1zm0 -1c0,0 0,0 0,0 0,0 0,0 0,0zm0 0c0,0 0,0 0,0 0,0 0,0 0,0zm0 -1c0,0 0,0 0,0 0,0 0,0 0,0zm0 0c0,0 0,0 0,0 0,0 0,0 0,0zm0 0c0,0 0,-1 0,-1 0,0 0,1 0,1zm0 -1c0,0 0,0 0,0 0,0 0,0 0,0zm0 0c0,0 0,0 0,-1 0,1 0,1 0,1zm0 -1c0,0 0,0 0,0 0,0 0,0 0,0zm0 0c0,0 0,0 0,0 0,0 0,0 0,0zm0 -1c0,0 0,0 0,0 0,0 0,0 0,0zm0 0c0,0 0,0 0,0 0,0 0,0 0,0zm0 -1c0,0 0,0 0,0 0,0 0,0 0,0zm0 0c0,0 0,0 0,0 0,0 0,0 0,0zm0 0c0,0 0,-1 0,-1 0,0 0,1 0,1zm0 -1c0,0 0,0 0,0 0,0 0,0 0,0zm-1 0c0,0 0,0 0,-1 0,1 0,1 0,1zm0 -1c0,0 0,0 0,0 0,0 0,0 0,0zm0 0c0,0 0,0 0,0 0,0 0,0 0,0zm0 -1c0,0 0,0 0,0 0,0 0,0 0,0zm0 0c0,0 0,0 0,0 0,0 0,0 0,0zm0 0c0,-1 0,-1 0,-1 0,0 0,0 0,1zm0 -1c0,0 0,0 0,0 0,0 0,0 0,0zm0 0c0,0 0,0 0,-1 0,1 0,1 0,1zm0 -1c0,0 0,0 0,0 0,0 0,0 0,0zm0 0c0,0 0,0 0,-1 0,1 0,1 0,1zm0 -1c0,0 0,0 0,0 0,0 0,0 0,0zm0 0c0,0 0,0 0,0 0,0 0,0 0,0zm0 0c0,-1 0,-1 0,-1 0,0 0,0 0,1zm0 -1c0,0 0,0 0,0 0,0 0,0 0,0zm0 0c0,0 0,-1 0,-1 0,0 0,1 0,1zm0 -1c0,0 0,0 0,0 0,0 0,0 0,0zm0 0c0,0 0,0 0,0 0,0 0,0 0,0zm0 -1c0,0 0,0 0,0 0,0 0,0 0,0zm0 0c0,0 0,0 0,0 0,0 0,0 0,0zm0 0c0,-1 0,-1 0,-1 0,0 0,0 0,1zm0 -1c0,0 0,0 0,0 0,0 0,0 0,0zm0 0c0,-1 0,-1 0,-1 0,0 0,0 0,1zm0 -1c0,0 0,0 0,0 0,0 0,0 0,0zm0 0c0,0 0,0 0,-1 0,1 0,1 0,1zm0 -1c0,0 0,0 0,0 0,0 0,0 0,0zm0 0c0,0 0,0 0,0 0,0 0,0 0,0zm0 -1c0,0 0,0 0,0 0,0 0,0 0,0zm0 0c0,0 0,0 0,0 0,0 0,0 0,0zm0 0c0,0 0,-1 0,-1 0,0 0,1 0,1zm0 -1c0,0 0,0 -1,0 1,0 1,0 1,0zm-1 0c0,0 0,0 0,-1 0,1 0,1 0,1zm0 -1c0,0 0,0 0,0 0,0 0,0 0,0zm0 0c0,0 0,0 0,0 0,0 0,0 0,0zm0 -1c0,0 0,0 0,0 0,0 0,0 0,0zm0 0c0,0 0,0 0,0 0,0 0,0 0,0zm0 0c0,-1 0,-1 0,-1 0,0 0,0 0,1zm0 -1c0,0 0,0 0,0 0,0 0,0 0,0zm0 0c0,0 0,0 0,-1 0,1 0,1 0,1zm0 -1c0,0 0,0 0,0 0,0 0,0 0,0zm0 0c0,0 0,0 0,0 0,0 0,0 0,0zm0 -1c0,0 0,0 0,0 0,0 0,0 0,0zm0 0c0,0 0,0 0,0 0,0 0,0 0,0zm0 0c0,-1 0,-1 0,-1 0,0 0,0 0,1zm0 -1c0,0 0,0 0,0 0,0 0,0 0,0zm0 0c0,0 0,0 0,-1 0,1 0,1 0,1zm0 -1c0,0 0,0 0,0 0,0 0,0 0,0zm0 0c0,0 0,0 0,0 0,0 0,0 0,0zm0 -1c0,0 0,0 0,0 0,0 0,0 0,0zm0 0c0,0 -1,0 -1,0 0,0 1,0 1,0zm-1 0c0,-1 0,-1 0,-1 0,0 0,0 0,1zm0 -1c0,0 0,0 0,0 0,0 0,0 0,0zm0 0c0,0 0,0 0,-1 0,1 0,1 0,1zm0 -1c0,0 0,0 0,0 0,0 0,0 0,0zm0 0c0,0 0,0 0,0 0,0 0,0 0,0zm0 -1c0,0 0,0 0,0 0,0 0,0 0,0zm0 0c0,0 0,0 0,0 0,0 0,0 0,0zm0 0c0,0 0,-1 0,-1 0,0 0,1 0,1zm0 -1c0,0 0,0 0,0 0,0 0,0 0,0zm0 0c0,0 0,0 0,-1 0,1 0,1 0,1zm0 -1c0,0 0,0 0,0 0,0 0,0 0,0zm0 0c0,0 0,0 0,0 0,0 0,0 0,0zm0 -1c0,0 0,0 0,0 0,0 0,0 0,0zm0 0c0,0 0,0 0,0 0,0 0,0 0,0zm0 0c0,0 -1,-1 -1,-1 0,0 1,1 1,1zm-1 -1c0,0 0,0 0,0 0,0 0,0 0,0zm0 0c0,0 0,0 0,-1 0,1 0,1 0,1zm0 -1c0,0 0,0 0,0 0,0 0,0 0,0zm0 0c0,0 0,0 0,0 0,0 0,0 0,0zm0 0c0,-1 0,-1 0,-1 0,0 0,0 0,1zm0 -1c0,0 0,0 0,0 0,0 0,0 0,0zm0 0c0,0 0,-1 0,-1 0,0 0,1 0,1zm0 -1c0,0 0,0 0,0 0,0 0,0 0,0zm0 0c0,0 0,0 0,0 0,0 0,0 0,0zm0 -1c0,0 0,0 0,0 0,0 0,0 0,0zm0 0c0,0 0,0 0,0 0,0 0,0 0,0zm0 0c0,-1 0,-1 0,-1 0,0 0,0 0,1zm0 -1c-1,0 -1,0 -1,0 0,0 0,0 1,0zm-1 0c0,0 0,0 0,0 0,0 0,0 0,0zm0 -1c0,0 0,0 0,0 0,0 0,0 0,0zm0 0c0,0 0,0 0,0 0,0 0,0 0,0zm0 -1c0,0 0,0 0,0 0,0 0,0 0,0zm0 0c0,0 0,0 0,0 0,0 0,0 0,0zm0 0c0,0 0,-1 0,-1 0,0 0,1 0,1zm0 -1c0,0 0,0 0,0 0,0 0,0 0,0zm0 0c0,0 0,0 0,0 0,0 0,0 0,0zm0 -1c0,0 0,0 0,0 0,0 0,0 0,0zm0 0c0,0 0,0 0,0 0,0 0,0 0,0zm0 0c0,-1 0,-1 0,-1 0,0 0,0 0,1zm-1 -1c0,0 0,0 0,0 0,0 0,0 0,0zm0 0c0,0 0,0 0,0 0,0 0,0 0,0zm0 -1c0,0 0,0 0,0 0,0 0,0 0,0zm0 0c0,0 0,0 0,0 0,0 0,0 0,0zm0 -1c0,0 0,0 0,0 0,0 0,0 0,0zm0 0c0,0 0,0 0,0 0,0 0,0 0,0zm0 0c0,0 0,0 0,-1 0,1 0,1 0,1zm0 -1c0,0 0,0 0,0 0,0 0,0 0,0zm0 0c0,0 0,0 0,0 0,0 0,0 0,0zm0 -1c0,0 0,0 0,0 0,0 0,0 0,0zm0 0c0,0 0,0 -1,0 1,0 1,0 1,0zm-1 0c0,0 0,0 0,-1 0,1 0,1 0,1zm0 -1c0,0 0,0 0,0 0,0 0,0 0,0zm0 0c0,0 0,0 0,0 0,0 0,0 0,0zm0 -1c0,0 0,0 0,0 0,0 0,0 0,0zm0 0c0,0 0,0 0,0 0,0 0,0 0,0zm0 0c0,0 0,0 0,-1 0,0 0,1 0,1zm0 -1c0,0 0,0 0,0 0,0 0,0 0,0zm0 0c0,0 0,0 0,-1 0,1 0,1 0,1zm0 -1c0,0 0,0 0,0 0,0 0,0 0,0zm-1 0c0,0 0,0 0,0 0,0 0,0 0,0zm0 -1c0,0 0,0 0,0 0,0 0,0 0,0zm0 0c0,0 0,0 0,0 0,0 0,0 0,0zm0 0c0,0 0,-1 0,-1 0,0 0,1 0,1zm0 -1c0,0 0,0 0,0 0,0 0,0 0,0zm0 0c0,0 0,0 0,0 0,0 0,0 0,0zm0 -1c0,0 0,0 0,0 0,0 0,0 0,0zm0 0c0,0 0,0 0,0 0,0 0,0 0,0zm0 0c0,-1 0,-1 0,-1 0,0 0,0 0,1zm-1 -1c0,0 0,0 0,0 0,0 0,0 0,0zm0 0c0,0 0,0 0,0 0,0 0,0 0,0zm0 -1c0,0 0,0 0,0 0,0 0,0 0,0zm0 0c0,0 0,0 0,0 0,0 0,0 0,0zm0 -1c0,0 0,0 0,0 0,0 0,0 0,0zm0 0c0,0 0,0 0,0 0,0 0,0 0,0zm0 0c0,0 0,0 0,0 0,0 0,0 0,0zm0 -1c0,0 0,0 0,0 0,0 0,0 0,0zm0 0l0 0zm-1 -1c0,0 0,0 0,0 0,0 0,0 0,0zm0 0c0,0 0,0 0,0 0,0 0,0 0,0zm0 0c0,0 0,0 0,0 0,0 0,0 0,0zm0 -1c0,0 0,0 0,0 0,0 0,0 0,0zm0 0c0,0 0,0 0,0 0,0 0,0 0,0zm0 -1c0,0 0,0 0,0 0,0 0,0 0,0zm0 0c0,0 0,0 0,0 0,0 0,0 0,0zm0 0c0,0 0,0 0,0 0,0 0,0 0,0zm-1 -1c0,0 0,0 0,0 0,0 0,0 0,0zm0 0c0,0 0,0 0,0 0,0 0,0 0,0zm0 -1c0,0 0,0 0,0 0,0 0,0 0,0zm0 0c0,0 0,0 0,0 0,0 0,0 0,0zm0 0c0,0 0,0 0,0 0,0 0,0 0,0zm0 -1c0,0 0,0 0,0 0,0 0,0 0,0zm0 0c0,0 0,0 0,0 0,0 0,0 0,0zm0 -1c0,0 0,0 0,0 0,0 0,0 0,0zm-1 0c0,0 0,0 0,0 0,0 0,0 0,0zm0 0c0,0 0,0 0,0 0,0 0,0 0,0zm0 -1c0,0 0,0 0,0 0,0 0,0 0,0zm0 -1c0,0 0,0 0,0 0,0 0,0 0,0zm0 0c0,0 0,0 0,0 0,0 0,0 0,0zm0 0c0,0 0,0 0,0 0,0 0,0 0,0zm0 -1l0 0 0 0zm-1 -1c0,0 0,0 0,0 0,0 0,0 0,0zm0 0c0,0 0,0 0,0 0,0 0,0 0,0zm0 0c0,0 0,0 0,0 0,0 0,0 0,0zm0 -1c0,0 0,0 0,0 0,0 0,0 0,0zm-1 -1c0,0 0,0 0,0 0,0 0,0 0,0zm0 0c0,0 0,0 0,0 0,0 0,0 0,0zm0 0c0,0 0,0 0,0 0,0 0,0 0,0zm0 -2c0,0 0,0 0,0 0,0 0,0 0,0zm0 0c0,0 0,0 0,0 0,0 0,0 0,0zm0 0c0,0 0,0 0,0 0,0 0,0 0,0zm-1 -1l0 0zm0 -1c0,0 0,0 0,0 0,0 0,0 0,0zm0 0c0,0 0,0 0,0 0,0 0,0 0,0zm-1 -2c0,0 0,0 0,0l0 0zm0 0c0,0 0,0 0,0 0,0 0,0 0,0zm0 0c0,0 0,0 0,0 0,0 0,0 0,0zm0 -1c0,0 0,0 0,0 0,0 0,0 0,0zm-1 -1c0,0 0,0 0,0 0,0 0,0 0,0zm0 0c0,0 0,0 0,0 0,0 0,0 0,0zm0 0l0 0 0 0zm0 -2c0,0 0,0 0,0 0,0 0,0 0,0zm-1 0c0,0 0,0 0,0 0,0 0,0 0,0zm0 0l0 0zm0 -2c0,0 0,0 0,0 0,0 0,0 0,0zm0 0l0 0 0 0zm-39 -61l0 0zm0 0c0,0 0,0 0,0l0 0zm-1 -2c0,0 0,0 0,0 0,0 0,0 0,0zm0 0l0 0c0,0 0,0 0,0zm-1 -1c0,0 0,0 0,0 0,0 0,0 0,0zm-1 0c0,0 0,0 0,0 0,0 0,0 0,0zm0 -1c0,0 0,0 0,0 0,0 0,0 0,0zm-1 -1c0,0 0,0 0,0 0,0 0,0 0,0zm0 0c0,0 0,0 0,0 0,0 0,0 0,0zm0 0c0,0 0,0 0,0 0,0 0,0 0,0zm-1 -1c0,0 0,0 0,0 0,0 0,0 0,0zm0 0c0,0 0,0 0,0 0,0 0,0 0,0zm0 0c0,0 0,0 0,0 0,0 0,0 0,0zm-1 -1c0,0 0,0 0,0 0,0 0,0 0,0zm0 0c0,0 0,0 0,0 0,0 0,0 0,0zm0 0c0,0 0,0 0,0 0,0 0,0 0,0zm-1 -1c0,0 0,0 0,0 0,0 0,0 0,0zm0 0c0,0 0,0 0,0 0,0 0,0 0,0zm0 0c0,0 0,0 0,0 0,0 0,0 0,0zm0 0c0,0 0,-1 -1,-1 1,0 1,1 1,1zm-1 -1c0,0 0,0 0,0 0,0 0,0 0,0zm0 0c0,0 0,0 0,0 0,0 0,0 0,0zm0 0c0,0 0,0 0,0 0,0 0,0 0,0zm0 -1c-1,0 -1,0 -1,0 0,0 0,0 1,0zm-1 0c0,0 0,0 0,0 0,0 0,0 0,0zm0 0c0,-1 0,-1 0,-1 0,0 0,0 0,1zm-1 -1c0,0 0,0 0,0 0,0 0,0 0,0zm0 0c0,0 0,0 0,0 0,0 0,0 0,0zm0 0c0,0 0,-1 -1,-1 1,0 1,1 1,1zm-1 -1c0,0 0,0 0,0 0,0 0,0 0,0zm0 0c0,0 0,0 0,0 0,0 0,0 0,0zm0 0c0,-1 0,-1 -1,-1 1,0 1,0 1,1zm-1 -1c0,0 0,0 0,-1 0,1 0,1 0,1zm0 -1c-1,0 -1,0 -1,0 0,0 0,0 1,0zm-1 0c0,0 -1,-1 -1,-1 0,0 1,1 1,1zm-1 -1c-7,-7 -15,-13 -23,-19l0 0c8,6 16,12 23,19z"/>
  <path class="fil19" d="M3750 2297l2 66 66 -3 -97 106 -51 0 -266 288c-3,4 -9,4 -13,1l0 -1c-4,-3 -4,-9 -1,-12l266 -289 -4 -51 98 -105z"/>
  <path class="fil16" d="M3752 2363l66 -3 -97 106 -51 0 -266 288c-3,4 -9,4 -13,1l0 0 361 -392 0 0z"/>
  <path class="fil34" d="M-1934 29383c-56,17 -167,45 -297,45 -146,0 -267,-31 -362,-107 -83,-68 -134,-177 -134,-304 1,-243 199,-420 523,-420 112,0 199,20 241,37l-30 86c-52,-19 -116,-35 -214,-35 -235,0 -389,123 -389,327 0,207 148,329 373,329 82,0 138,-10 167,-22l0 -243 -197 0 0 -84 319 0 0 391z"/>
  <path class="fil34" d="M-1619 29008c28,6 62,8 103,8 151,0 243,-61 243,-174 0,-108 -90,-159 -228,-159 -55,0 -96,3 -118,8l0 317zm-125 -393c61,-9 140,-16 240,-16 123,0 214,24 271,68 53,38 85,98 85,170 0,74 -26,132 -75,174 -66,59 -174,90 -295,90 -38,0 -72,-1 -101,-8l0 327 -125 0 0 -805z"/>
  <path class="fil34" d="M-998 29292c56,29 138,53 224,53 128,0 202,-57 202,-139 0,-76 -51,-120 -182,-162 -158,-47 -255,-116 -255,-231 0,-127 125,-221 313,-221 99,0 170,19 213,40l-34 86c-32,-15 -96,-39 -184,-39 -132,0 -182,66 -182,122 0,76 59,114 192,157 164,53 247,120 247,239 0,126 -111,235 -339,235 -93,0 -195,-23 -246,-52l31 -88z"/>
  <polygon class="fil34" points="31,28605 155,28605 155,29331 569,29331 569,29420 31,29420 "/>
  <path class="fil34" d="M728 29017c0,174 112,330 308,330 198,0 310,-153 310,-338 0,-162 -100,-331 -308,-331 -207,0 -310,160 -310,339zm750 -13c0,280 -202,429 -449,429 -255,0 -435,-167 -435,-413 0,-259 191,-428 449,-428 264,0 435,170 435,412z"/>
  <path class="fil34" d="M2316 29393c-46,19 -138,39 -256,39 -272,0 -477,-145 -477,-412 0,-255 205,-428 505,-428 120,0 196,22 229,36l-30 86c-47,-19 -115,-34 -195,-34 -227,0 -377,122 -377,336 0,199 136,328 371,328 76,0 154,-14 204,-34l26 83z"/>
  <path class="fil34" d="M2951 29081l-95 -234c-21,-53 -36,-102 -50,-149l-3 0c-14,49 -30,98 -49,148l-94 235 291 0zm-317 83l-100 256 -130 0 329 -815 150 0 330 815 -133 0 -103 -256 -343 0z"/>
  <polygon class="fil34" points="3429,28695 3134,28695 3134,28605 3850,28605 3850,28695 3555,28695 3555,29420 3429,29420 "/>
  <polygon class="fil34" points="3958,29420 4083,29420 4083,28605 3958,28605 "/>
  <path class="fil34" d="M4377 29017c0,174 112,330 308,330 198,0 310,-153 310,-338 0,-162 -101,-331 -309,-331 -206,0 -309,160 -309,339zm750 -13c0,280 -202,429 -449,429 -255,0 -435,-167 -435,-413 0,-259 191,-428 449,-428 264,0 435,170 435,412z"/>
  <path class="fil34" d="M5289 29420l0 -815 136 0 310 412c72,96 128,182 174,265l2 -1c-11,-109 -14,-208 -14,-335l0 -341 118 0 0 815 -127 0 -307 -414c-67,-90 -132,-183 -180,-272l-5 2c8,102 10,200 10,336l0 348 -117 0z"/>
 </g>
</svg>
