<?xml version="1.0" encoding="UTF-8"?>
<!DOCTYPE svg PUBLIC "-//W3C//DTD SVG 1.1//EN" "http://www.w3.org/Graphics/SVG/1.1/DTD/svg11.dtd">
<!-- Creator: CorelDRAW X7 -->
<svg xmlns="http://www.w3.org/2000/svg" xml:space="preserve" width="0.608in" height="0.591in" version="1.1" style="shape-rendering:geometricPrecision; text-rendering:geometricPrecision; image-rendering:optimizeQuality; fill-rule:evenodd; clip-rule:evenodd"
viewBox="0 0 608 591"
 xmlns:xlink="http://www.w3.org/1999/xlink">
 <defs>
  <style type="text/css">
   <![CDATA[
    .fil0 {fill:#FEFEFE}
   ]]>
  </style>
 </defs>
 <g id="Layer_x0020_1">
  <metadata id="CorelCorpID_0Corel-Layer"/>
  <g id="_975003504">
   <path class="fil0" d="M511 532c-8,12 -15,22 -30,27 -15,5 -29,4 -42,-3 -7,-5 -12,-10 -19,-15 -7,10 -27,22 -41,22 -21,0 -44,-16 -48,-32 -16,0 -32,7 -53,-14 -28,-28 -12,-69 14,-80 15,-6 22,-4 36,-3 10,-40 38,-72 79,-77 46,-6 80,17 100,54 23,0 37,3 50,15 38,36 21,88 -17,102 -11,4 -15,4 -29,4zm8 -155c-4,-3 -14,-17 -32,-29 -57,-38 -132,-19 -167,34 -6,9 -9,20 -14,23 -1,0 -46,5 -63,43 -3,8 -2,12 -26,12 -19,0 -37,-7 -49,-15 -11,-7 -27,-25 -30,-35 -9,1 -10,2 -24,2 -46,0 -86,-39 -86,-85 0,-30 10,-51 32,-70 16,-15 39,-21 61,-20 4,0 8,0 12,0 4,-18 10,-30 18,-45 41,-74 139,-101 215,-56 29,17 45,36 61,66 33,0 57,4 81,27 35,32 46,76 27,120 -4,11 -11,19 -16,28zm-519 -59c0,30 5,54 24,77 26,33 57,45 101,45 3,10 27,28 36,34 17,10 39,14 60,14 7,0 8,-1 14,-1 4,39 32,66 65,72 5,1 11,0 15,1 5,2 39,49 96,23 3,-1 8,-5 9,-5 3,0 48,31 92,-4 10,-8 9,-12 18,-15 25,-5 45,-14 61,-37 22,-34 20,-72 -3,-104 -8,-11 -31,-28 -43,-29 1,-5 27,-35 27,-74 0,-26 -1,-41 -13,-65 -22,-43 -65,-76 -116,-76 -2,-5 -9,-13 -12,-18 -12,-16 -32,-33 -49,-43 -72,-43 -150,-35 -214,15 -6,5 -11,11 -17,17 -12,12 -25,32 -33,48 -11,24 1,11 -29,18 -19,5 -31,11 -44,22 -21,15 -45,49 -45,85z"/>
   <path class="fil0" d="M537 33c21,2 65,48 30,92 -5,7 -20,19 -30,20 5,-21 10,-25 10,-56 0,-30 -9,-48 -10,-56zm0 0l0 0zm-18 50c0,51 -9,54 -31,95 45,0 80,-2 107,-45 24,-37 13,-84 -23,-113 -25,-20 -51,-20 -83,-20 2,8 6,13 10,19 3,6 6,12 9,19 5,11 11,29 11,45z"/>
  </g>
 </g>
</svg>
