<?xml version="1.0" encoding="UTF-8"?>
<!DOCTYPE svg PUBLIC "-//W3C//DTD SVG 1.1//EN" "http://www.w3.org/Graphics/SVG/1.1/DTD/svg11.dtd">
<!-- Creator: CorelDRAW X7 -->
<svg xmlns="http://www.w3.org/2000/svg" xml:space="preserve" width="0.558in" height="0.507in" version="1.1" style="shape-rendering:geometricPrecision; text-rendering:geometricPrecision; image-rendering:optimizeQuality; fill-rule:evenodd; clip-rule:evenodd"
viewBox="0 0 558 507"
 xmlns:xlink="http://www.w3.org/1999/xlink">
 <defs>
  <style type="text/css">
   <![CDATA[
    .fil0 {fill:#FEFEFE}
   ]]>
  </style>
 </defs>
 <g id="Layer_x0020_1">
  <metadata id="CorelCorpID_0Corel-Layer"/>
  <g id="_916472544">
   <path class="fil0" d="M0 469l151 0c-3,-12 -13,-20 -15,-31l-105 0 0 -408 135 0 0 134c10,-2 34,-25 40,-24 10,6 18,13 29,18 32,-17 23,-24 38,-12l30 18 0 -134 136 0 0 239c2,0 30,-13 30,-19l0 -250 -469 0 0 469z"/>
   <path class="fil0" d="M236 274c2,9 60,102 63,111l-49 28c-7,-5 -15,-12 -23,-17 -33,-25 -12,-20 -76,14l34 59c16,28 30,38 66,38 16,0 32,-10 44,-17l79 -46c14,-8 26,-15 40,-23 26,-15 52,-30 78,-45 12,-7 50,-27 56,-36 25,-35 -3,-72 -30,-72 -24,0 -33,8 -57,22 -8,5 -15,9 -22,13 -4,2 -7,5 -12,7 -4,3 -7,4 -11,7l-105 -66c-3,-2 -5,-3 -8,-5l-7 -5 -60 33z"/>
   <path class="fil0" d="M390 469l79 0 0 -46c-7,1 -77,43 -79,46z"/>
  </g>
 </g>
</svg>
