<?xml version="1.0" encoding="UTF-8"?>
<!DOCTYPE svg PUBLIC "-//W3C//DTD SVG 1.1//EN" "http://www.w3.org/Graphics/SVG/1.1/DTD/svg11.dtd">
<!-- Creator: CorelDRAW X7 -->
<svg xmlns="http://www.w3.org/2000/svg" xml:space="preserve" width="0.703in" height="0.506in" version="1.1" style="shape-rendering:geometricPrecision; text-rendering:geometricPrecision; image-rendering:optimizeQuality; fill-rule:evenodd; clip-rule:evenodd"
viewBox="0 0 703 506"
 xmlns:xlink="http://www.w3.org/1999/xlink">
 <defs>
  <style type="text/css">
   <![CDATA[
    .fil0 {fill:none}
    .fil1 {fill:#3A315C}
   ]]>
  </style>
 </defs>
 <g id="Layer_x0020_1">
  <metadata id="CorelCorpID_0Corel-Layer"/>
  <rect class="fil0" y="-31" width="703" height="568"/>
  <g id="_975469248">
   <path class="fil1" d="M686 435l0 -28c-1,-2 -1,-8 -11,-8 -5,0 -15,1 -19,0 0,-15 0,-31 0,-46l0 -70c0,-23 -8,-34 -20,-50l-44 -66c-1,-1 -1,-3 -2,-4 -4,-4 -7,-7 -12,-11 -8,-7 -21,-13 -32,-15 -13,-2 -32,-1 -46,-1 -15,0 -31,0 -46,0 -10,1 -17,8 -17,18 0,66 0,132 0,198 0,16 0,32 0,47l-133 0c1,2 5,6 8,9 2,3 5,6 7,10 4,6 7,14 8,21 0,1 0,2 0,2 1,2 0,1 1,2l139 0c1,-1 2,-5 2,-7 1,-2 1,-4 2,-6 3,-8 10,-20 15,-25 4,-4 4,-5 9,-8 6,-4 8,-6 15,-9 23,-9 44,-7 65,5 7,5 16,13 21,20 5,9 10,19 11,30l64 0c5,0 10,1 13,-4 1,-1 1,-2 1,-3 0,0 0,0 1,0l0 -1zm-210 -244l0 60c0,12 16,9 26,9 24,0 47,0 71,0 7,0 20,1 24,-3 6,-5 1,-11 -2,-16l-31 -43c-2,-3 -4,-6 -6,-9 -2,-2 -4,-6 -9,-6l-64 0c-5,0 -9,4 -9,8z"/>
   <path class="fil1" d="M105 270l0 90c0,10 1,14 12,14l284 0c12,0 11,-7 11,-15l0 -246c0,-8 0,-13 -5,-20 -4,-5 -10,-9 -17,-10 -8,0 -97,0 -103,0 0,2 7,21 7,42 1,16 -2,32 -5,44 -4,13 -9,24 -15,35l-5 7c-8,13 -27,33 -40,41 -2,0 -2,1 -4,2 -6,4 -10,6 -16,9 -13,6 -35,12 -49,13 -14,0 -21,1 -35,-1 -3,-1 -7,-1 -10,-2 -2,-1 -9,-3 -10,-3z"/>
   <path class="fil1" d="M17 124l0 10c1,2 1,4 1,6 2,15 4,28 11,43 1,3 2,5 4,8 3,6 5,9 9,15 8,11 19,21 30,29l5 4c0,0 1,0 1,0 12,8 20,12 34,16 27,7 58,6 82,-4 12,-5 21,-9 31,-17 3,-3 8,-6 10,-8 7,-7 8,-8 15,-16 4,-6 5,-7 9,-14 1,-2 2,-3 2,-4 2,-4 4,-7 6,-12 11,-26 13,-55 6,-82 -1,-8 -5,-19 -9,-26 -10,-20 -21,-33 -38,-46 -32,-25 -69,-26 -70,-26l-17 0c-1,0 0,0 -1,0l-6 0c-6,1 -14,2 -20,4 -19,6 -35,14 -50,27 -3,3 -5,5 -8,7 -1,2 -2,3 -3,4 -9,10 -19,27 -24,38 -4,10 -7,20 -8,31 -1,1 -2,13 -2,13zm129 106c15,0 29,-3 43,-9 11,-6 20,-12 28,-20 4,-4 8,-8 11,-13 4,-5 6,-9 9,-15 5,-8 8,-18 9,-27 0,-2 1,-4 1,-6 1,-7 1,-17 0,-25 -3,-14 -8,-28 -15,-40 -23,-35 -67,-53 -109,-43 -14,4 -30,12 -40,21l-3 2c0,1 -1,2 -2,2l-5 5c-1,1 -1,1 -2,3 -4,4 -8,11 -11,16 -5,7 -8,17 -10,27 -3,10 -3,23 -2,34 1,5 2,11 3,15 2,7 3,8 5,14 3,7 9,16 14,23 14,17 37,30 59,34 3,0 5,1 8,1 2,0 3,0 4,0 2,0 3,1 5,1z"/>
   <path class="fil1" d="M256 399c-3,1 -5,0 -12,2 -6,2 -13,5 -18,9 -8,6 -6,5 -8,8 -4,3 -8,11 -10,14 -8,21 -3,45 13,60 2,1 2,1 4,3 5,3 5,4 12,7 8,4 14,4 23,4 16,0 30,-8 37,-16 16,-17 19,-40 9,-61l-5 -8c-6,-8 -13,-14 -23,-18 -3,-1 -6,-2 -10,-3 -3,0 -9,-1 -12,-1zm0 80c5,0 8,0 13,-2 8,-4 15,-14 15,-22 0,-9 -1,-15 -7,-21 -7,-7 -17,-9 -26,-7 -2,1 -3,1 -5,2 -1,1 -3,2 -4,2 -1,1 -3,3 -3,4 -10,11 -10,24 -1,36 4,4 12,8 18,8z"/>
   <path class="fil1" d="M484 452c0,23 12,41 33,50 11,5 25,6 36,2 17,-5 31,-19 36,-37 4,-12 2,-26 -3,-38 -4,-6 -7,-10 -11,-15 -7,-7 -16,-11 -26,-13 -28,-8 -60,12 -65,45 0,1 0,4 0,6zm27 -1c0,7 1,11 5,17 1,2 1,2 3,4 3,3 11,7 17,7 7,0 10,0 17,-5l3 -2c3,-3 4,-4 6,-8 4,-10 2,-23 -5,-29 -21,-20 -46,-1 -46,16z"/>
   <path class="fil1" d="M83 433c0,5 3,10 8,10l97 0c1,-1 1,-5 2,-7 0,-2 1,-4 2,-7 2,-7 7,-15 12,-21l8 -9 -102 0c-11,0 -21,-2 -25,5 -3,3 -2,25 -2,29z"/>
   <path class="fil1" d="M131 61l0 66c0,3 1,6 2,7 4,6 13,7 21,9l23 6c4,1 4,2 10,2 5,0 12,-6 12,-11 0,-5 -1,-10 -6,-13 -5,-3 -33,-9 -36,-11 0,-8 0,-17 0,-26 0,-9 0,-17 0,-26 0,-4 -1,-7 -3,-10 -1,-2 -5,-5 -9,-5 -9,0 -14,6 -14,12z"/>
  </g>
 </g>
</svg>
