<?xml version="1.0" encoding="UTF-8"?>
<!DOCTYPE svg PUBLIC "-//W3C//DTD SVG 1.1//EN" "http://www.w3.org/Graphics/SVG/1.1/DTD/svg11.dtd">
<!-- Creator: CorelDRAW X7 -->
<svg xmlns="http://www.w3.org/2000/svg" xml:space="preserve" width="0.703in" height="0.568in" version="1.1" style="shape-rendering:geometricPrecision; text-rendering:geometricPrecision; image-rendering:optimizeQuality; fill-rule:evenodd; clip-rule:evenodd"
viewBox="0 0 703 568"
 xmlns:xlink="http://www.w3.org/1999/xlink">
 <defs>
  <style type="text/css">
   <![CDATA[
    .fil0 {fill:none}
    .fil1 {fill:#FEFEFE}
   ]]>
  </style>
 </defs>
 <g id="Layer_x0020_1">
  <metadata id="CorelCorpID_0Corel-Layer"/>
  <rect class="fil0" width="703" height="568"/>
  <g id="_973426720">
   <path class="fil1" d="M103 161c0,19 -2,11 20,37 8,10 21,23 27,33 -34,51 -74,65 -23,76 10,3 22,5 30,8l0 151c7,5 184,98 195,98 10,0 82,-40 97,-47 29,-15 71,-33 97,-51l0 -151c8,-3 20,-5 30,-8 51,-11 11,-25 -23,-76l38 -47c10,-10 9,-5 9,-23 -11,-2 -22,-6 -32,-8 -15,-3 -22,-5 -36,-9 -25,-6 -47,-12 -70,-17 -2,12 -3,8 -4,22 25,0 89,24 114,25 -9,13 -16,20 -25,32 -13,17 -12,15 -37,10 -33,-6 -68,-10 -99,-17l-16 18c24,3 52,12 76,14 -1,0 -2,0 -2,0l-117 21 -113 -19c-1,0 -2,0 -2,-1 -1,0 -2,0 -3,-1 0,0 -1,0 -2,0 24,-2 52,-11 76,-13l-17 -18c-29,6 -63,10 -96,16 -25,4 -26,13 -63,-42 24,-1 88,-25 113,-25 -1,-14 -2,-10 -3,-22 -23,5 -44,11 -68,17l-71 17z"/>
   <path class="fil1" d="M308 114c0,33 -86,-26 -17,51 15,18 42,53 61,62 19,-10 17,-14 30,-29 5,-5 56,-60 56,-66 2,-21 -42,5 -42,-18l0 -110 -88 0 0 110z"/>
  </g>
 </g>
</svg>
