<?xml version="1.0" encoding="UTF-8"?>
<!DOCTYPE svg PUBLIC "-//W3C//DTD SVG 1.1//EN" "http://www.w3.org/Graphics/SVG/1.1/DTD/svg11.dtd">
<!-- Creator: CorelDRAW X7 -->
<svg xmlns="http://www.w3.org/2000/svg" xml:space="preserve" width="0.703in" height="0.568in" version="1.1" style="shape-rendering:geometricPrecision; text-rendering:geometricPrecision; image-rendering:optimizeQuality; fill-rule:evenodd; clip-rule:evenodd"
viewBox="0 0 703 568"
 xmlns:xlink="http://www.w3.org/1999/xlink">
 <defs>
  <style type="text/css">
   <![CDATA[
    .fil0 {fill:#FEFEFE}
   ]]>
  </style>
 </defs>
 <g id="Layer_x0020_1">
  <metadata id="CorelCorpID_0Corel-Layer"/>
  <g id="_916472288">
   <path class="fil0" d="M81 464c63,-8 76,-12 140,0 174,34 157,-3 273,-18 51,-7 100,6 143,17l39 -130c5,-23 -5,-27 -26,-27l-585 0c-58,0 -1,74 16,158z"/>
   <path class="fil0" d="M0 528l0 18c20,35 22,21 71,8 164,-45 172,44 376,-12 78,-21 104,-23 183,4 11,4 30,12 40,14 24,6 25,-6 33,-20l0 -16c-9,-15 -12,-18 -32,-25 -14,-5 -27,-9 -40,-13 -144,-43 -168,2 -269,14 -137,17 -149,-56 -330,5 -18,6 -24,11 -32,23z"/>
   <polygon class="fil0" points="558,79 455,81 453,134 427,134 427,160 453,163 453,223 508,224 509,287 638,287 638,163 664,162 664,134 638,133 637,80 585,81 585,0 558,0 "/>
   <polygon class="fil0" points="198,287 281,287 284,287 284,235 197,235 "/>
   <polygon class="fil0" points="304,287 391,287 390,235 303,235 "/>
   <polygon class="fil0" points="92,239 92,287 178,287 178,235 100,235 92,235 "/>
   <polygon class="fil0" points="410,286 497,287 496,236 410,235 "/>
   <polygon class="fil0" points="92,144 103,146 178,145 178,94 92,95 "/>
   <polygon class="fil0" points="198,144 284,145 284,94 198,95 "/>
   <polygon class="fil0" points="92,215 178,216 178,165 93,165 "/>
   <polygon class="fil0" points="198,215 284,216 284,165 199,165 "/>
   <polygon class="fil0" points="304,215 390,216 390,165 305,165 "/>
   <path class="fil0" d="M594 126c32,10 28,-10 26,-25 -7,-1 -24,-10 -28,4 -3,7 0,16 2,21z"/>
   <path class="fil0" d="M532 113l1 14c10,1 21,1 29,-2l-1 -25c-22,-4 -29,-6 -29,13z"/>
   <polygon class="fil0" points="474,126 503,127 503,99 476,98 "/>
  </g>
 </g>
</svg>
