<?xml version="1.0" encoding="UTF-8"?>
<!DOCTYPE svg PUBLIC "-//W3C//DTD SVG 1.1//EN" "http://www.w3.org/Graphics/SVG/1.1/DTD/svg11.dtd">
<!-- Creator: CorelDRAW X7 -->
<svg xmlns="http://www.w3.org/2000/svg" xml:space="preserve" width="0.0533307in" height="0.0533307in" version="1.1" style="shape-rendering:geometricPrecision; text-rendering:geometricPrecision; image-rendering:optimizeQuality; fill-rule:evenodd; clip-rule:evenodd"
viewBox="0 0 53 53"
 xmlns:xlink="http://www.w3.org/1999/xlink">
 <defs>
  <style type="text/css">
   <![CDATA[
    .fil0 {fill:#ED3237}
    .fil1 {fill:#006636}
   ]]>
  </style>
 </defs>
 <g id="Layer_x0020_1">
  <metadata id="CorelCorpID_0Corel-Layer"/>
  <g id="_962418544">
   <path class="fil0" d="M21 24l4 -6c2,1 3,5 3,9 -3,5 -7,9 -12,13 -6,3 -8,8 -8,13 -5,-14 8,-20 13,-29z"/>
   <path class="fil0" d="M28 29l-4 5c0,0 0,2 1,3 7,11 15,2 21,16 1,-20 -16,-10 -18,-24z"/>
   <path class="fil1" d="M21 8c0,-3 0,-5 0,-7 2,6 5,8 10,12 4,4 6,9 5,14 -1,3 -2,5 -4,7 -1,-1 -4,-4 -3,-8 1,-8 -6,-9 -8,-18z"/>
   <path class="fil1" d="M21 44l-4 -5c2,0 4,-2 6,-4 2,4 1,4 5,7 -1,2 -3,5 -6,8 0,-3 1,-5 -1,-6z"/>
  </g>
 </g>
</svg>
